<?xml version="1.0" standalone="no"?>
<!DOCTYPE svg PUBLIC "-//W3C//DTD SVG 1.1//EN" "http://www.w3.org/Graphics/SVG/1.1/DTD/svg11.dtd" >
<svg xmlns="http://www.w3.org/2000/svg" xmlns:xlink="http://www.w3.org/1999/xlink" version="1.1">
<metadata>
Created by FontForge 20200511 at Sun Sep 15 22:10:48 2019
 By convertio
Copyright (c) 2018 by Alexander Slobzheninov. All rights reserved.
</metadata>
<defs>
<font id="Agrandir-NarrowMedium" horiz-adv-x="520" >
  <font-face 
    font-family="Agrandir Narrow Medium"
    font-weight="500"
    font-stretch="condensed"
    units-per-em="1000"
    panose-1="0 0 6 6 0 0 0 0 0 0"
    ascent="750"
    descent="-250"
    x-height="508"
    cap-height="708"
    bbox="-148 -254 1429 970"
    underline-thickness="40"
    underline-position="-120"
    unicode-range="U+000D-F6C3"
  />
<missing-glyph horiz-adv-x="0" 
 />
    <glyph glyph-name=".notdef" horiz-adv-x="0" 
 />
    <glyph glyph-name="NULL" horiz-adv-x="717" 
d="M104 708h510v-708h-510v708zM516 85v538h-315v-538h315z" />
    <glyph glyph-name="NULL" horiz-adv-x="717" 
d="M104 708h510v-708h-510v708zM516 85v538h-315v-538h315z" />
    <glyph glyph-name="nonmarkingreturn" unicode="&#xd;" horiz-adv-x="45" 
 />
    <glyph glyph-name="space" unicode=" " horiz-adv-x="215" 
 />
    <glyph glyph-name="A" unicode="A" horiz-adv-x="647" 
d="M249 708h149l240 -708h-124l-50 157h-281l-51 -157h-123zM437 254l-112 348h-2l-113 -348h227z" />
    <glyph glyph-name="B" unicode="B" horiz-adv-x="628" 
d="M57 708h305q104 0 161.5 -50t57.5 -141q0 -58 -29 -98t-80 -54v-2q60 -13 93.5 -57.5t33.5 -109.5q0 -92 -61.5 -144t-172.5 -52h-308v708zM346 409q55 0 85.5 26.5t30.5 73.5t-30.5 74t-85.5 27h-168v-201h168zM345 98q64 0 99.5 29t35.5 80t-35.5 79.5t-99.5 28.5h-167
v-217h167z" />
    <glyph glyph-name="C" unicode="C" horiz-adv-x="721" 
d="M194.5 23.5q-77.5 45.5 -119.5 130.5t-42 200t39.5 200t113 130.5t172.5 45.5q113 0 189.5 -67t98.5 -186l-113 -25q-14 83 -61 128.5t-115 45.5q-94 0 -149 -73t-55 -199q1 -126 61 -198.5t164 -72.5q84 0 140.5 55.5t70.5 151.5l113 -24q-12 -88 -56 -153t-113 -100
t-155 -35q-106 0 -183.5 45.5z" />
    <glyph glyph-name="D" unicode="D" horiz-adv-x="692" 
d="M57 708h251q170 0 260.5 -91.5t90.5 -262.5t-90.5 -262.5t-260.5 -91.5h-251v708zM308 102q112 0 172 65t60 187q0 121 -60 186.5t-172 65.5h-132v-504h132z" />
    <glyph glyph-name="E" unicode="E" horiz-adv-x="532" 
d="M57 708h441v-102h-324v-195h284v-94h-284v-215h334v-102h-451v708z" />
    <glyph glyph-name="F" unicode="F" horiz-adv-x="491" 
d="M57 708h414v-105h-293v-209h234v-96h-234v-298h-121v708z" />
    <glyph glyph-name="G" unicode="G" horiz-adv-x="767" 
d="M191 24.5q-75 46.5 -116.5 132t-41.5 197.5t42 197.5t119.5 132t179.5 46.5q101 0 179.5 -57t109.5 -152l-113 -30q-21 61 -69.5 98t-108.5 37q-65 0 -114.5 -33.5t-76.5 -95t-27 -142.5q0 -82 29 -143.5t82.5 -95.5t123.5 -34q64 0 113.5 27.5t78 77.5t28.5 115h-307v94
h426v-396h-94l-12 116h-1q-40 -65 -107 -101.5t-148 -36.5q-100 0 -175 46.5z" />
    <glyph glyph-name="G.alt1" horiz-adv-x="771" 
d="M203.5 24q-81.5 47 -126 132.5t-44.5 197.5t42 197.5t119.5 132t179.5 46.5q101 0 180 -56t108 -149l-112 -30q-20 59 -68.5 95t-109.5 36q-65 0 -115 -33.5t-77 -95t-27 -142.5q0 -82 30 -143.5t84.5 -95.5t125.5 -34q64 0 114 27.5t79.5 77.5t31.5 115h-315v94h433
q2 -17 2 -49q0 -112 -42.5 -195.5t-120.5 -129t-183 -45.5q-107 0 -188.5 47z" />
    <glyph glyph-name="H" unicode="H" horiz-adv-x="654" 
d="M57 708h121v-289h299v289h120v-708h-120v317h-299v-317h-121v708z" />
    <glyph glyph-name="I" unicode="I" horiz-adv-x="235" 
d="M57 708h121v-708h-121v708z" />
    <glyph glyph-name="J" unicode="J" horiz-adv-x="491" 
d="M85.5 29.5q-56.5 49.5 -67.5 139.5l105 42q4 -62 32.5 -96t75.5 -34q43 0 67 28.5t24 81.5v517h121v-526q0 -97 -54.5 -149.5t-152.5 -52.5q-94 0 -150.5 49.5z" />
    <glyph glyph-name="K" unicode="K" horiz-adv-x="593" 
d="M57 708h121v-305h1l248 305h144l-238 -285l251 -423h-138l-191 333l-77 -91v-242h-121v708z" />
    <glyph glyph-name="K.alt1" horiz-adv-x="584" 
d="M57 708h121v-303h1l246 303h146l-288 -342l301 -366h-151l-254 324h-1v-324h-121v708z" />
    <glyph glyph-name="L" unicode="L" horiz-adv-x="477" 
d="M57 708h121v-604h287v-104h-408v708z" />
    <glyph glyph-name="M" unicode="M" horiz-adv-x="864" 
d="M57 708h167l207 -571h2l207 571h167v-708h-116v540h-2l-200 -540h-114l-200 539h-2v-539h-116v708z" />
    <glyph glyph-name="N" unicode="N" horiz-adv-x="666" 
d="M57 708h157l276 -556h2v556h116v-708h-156l-276 555h-2v-555h-117v708z" />
    <glyph glyph-name="O" unicode="O" horiz-adv-x="772" 
d="M201 24q-80 47 -124 132.5t-44 197.5t44 197.5t124 132t185 46.5q106 0 185.5 -46.5t123.5 -131.5t44 -198q0 -112 -44 -197.5t-124 -132.5t-185 -47t-185 47zM508.5 115.5q52.5 33.5 81 95.5t28.5 143t-28.5 143t-81 95.5t-122.5 33.5t-122.5 -34t-81.5 -95.5
t-29 -142.5t29 -142.5t81.5 -95.5t122.5 -34t122.5 33.5z" />
    <glyph glyph-name="P" unicode="P" horiz-adv-x="603" 
d="M57 708h280q72 0 128 -28t87.5 -78.5t31.5 -114.5t-31.5 -114t-87.5 -78t-127 -28h-163v-267h-118v708zM324 367q61 0 100.5 34t39.5 86q0 54 -39 88t-101 34h-149v-242h149z" />
    <glyph glyph-name="Q" unicode="Q" horiz-adv-x="772" 
d="M564 -113q22 19 30 51l70 -64q-12 -45 -57 -73t-105 -28q-77 0 -125 43.5t-48 112.5v53q-90 12 -157 61t-103 129t-36 182q0 112 44 197.5t124 132t185 46.5q106 0 185.5 -46.5t123.5 -131.5t44 -198q0 -102 -36.5 -182.5t-104 -129.5t-158.5 -61v-32q0 -37 19.5 -59
t52.5 -22q30 0 52 19zM182 211.5q29 -61.5 81.5 -95.5t122.5 -34t122.5 33.5t81 95.5t28.5 143t-28.5 143t-81 95.5t-122.5 33.5t-122.5 -34t-81.5 -95.5t-29 -142.5t29 -142.5z" />
    <glyph glyph-name="R" unicode="R" horiz-adv-x="656" 
d="M457.5 5q-28.5 24 -39.5 65l-40 142q-10 34 -34.5 55.5t-53.5 21.5h-113v-289h-120v708h295q72 0 129 -26.5t88.5 -75t31.5 -110.5q0 -68 -46 -120t-124 -67v-1q50 -25 65 -85l31 -114q10 -37 35 -37t49 36l44 -63q-22 -30 -54.5 -47t-70.5 -17q-44 0 -72.5 24zM344 385
q60 0 98.5 31t38.5 79q0 52 -38 83t-99 31h-166v-224h166z" />
    <glyph glyph-name="R.alt1" horiz-adv-x="638" 
d="M57 708h295q72 0 129 -26.5t88.5 -75t31.5 -110.5q0 -55 -31.5 -100.5t-87.5 -69.5v-1q43 -9 67 -39.5t24 -73.5v-212h-120v202q0 37 -21 62t-54 25h-201v-289h-120v708zM344 385q60 0 98.5 31t38.5 79q0 52 -38 83t-99 31h-166v-224h166z" />
    <glyph glyph-name="R.alt2" horiz-adv-x="636" 
d="M57 708h295q72 0 129 -26.5t88.5 -75t31.5 -110.5q0 -64 -41 -115t-108 -70l151 -311h-131l-135 289h-160v-289h-120v708zM344 385q60 0 98.5 31t38.5 79q0 52 -38 83t-99 31h-166v-224h166z" />
    <glyph glyph-name="S" unicode="S" horiz-adv-x="588" 
d="M163 8q-64 31 -101.5 87.5t-41.5 129.5l115 21q1 -49 24.5 -87.5t63.5 -60t90 -21.5q62 0 100 31.5t38 78.5q0 38 -27.5 63t-88.5 42l-104 30q-94 25 -137 72t-43 123q0 62 29 110.5t83 75.5t126 27q68 0 121 -26t84.5 -72.5t36.5 -108.5l-112 -25q-2 60 -38.5 96.5
t-92.5 36.5q-53 0 -86 -29t-33 -73q0 -39 25 -63t81 -40l104 -29q98 -26 144 -74t46 -124q0 -64 -31.5 -114.5t-90 -79t-138.5 -28.5q-82 0 -146 31z" />
    <glyph glyph-name="T" unicode="T" horiz-adv-x="547" 
d="M213 603h-202v105h525v-105h-202v-603h-121v603z" />
    <glyph glyph-name="U" unicode="U" horiz-adv-x="648" 
d="M178.5 10.5q-62.5 33.5 -96.5 94.5t-34 142v461h121v-458q0 -73 42.5 -120.5t113.5 -47.5t113 46t42 123v457h120v-461q0 -81 -34 -142t-96 -94.5t-145 -33.5q-84 0 -146.5 33.5z" />
    <glyph glyph-name="V" unicode="V" horiz-adv-x="638" 
d="M9 708h125l185 -585h2l183 585h125l-236 -708h-147z" />
    <glyph glyph-name="W" unicode="W" horiz-adv-x="960" 
d="M9 708h123l140 -587h2l126 587h161l127 -587h2l138 587h123l-180 -708h-164l-125 576h-2l-127 -576h-164z" />
    <glyph glyph-name="X" unicode="X" horiz-adv-x="639" 
d="M240 370l-223 338h138l161 -261l167 261h139l-229 -338l238 -370h-139l-176 280l-171 -280h-136z" />
    <glyph glyph-name="Y" unicode="Y" horiz-adv-x="597" 
d="M240 252l-231 456h128l162 -340h2l157 340h130l-228 -456v-252h-120v252z" />
    <glyph glyph-name="Z" unicode="Z" horiz-adv-x="542" 
d="M13 108l378 503h-368v97h497v-109l-378 -502h388v-97h-517v108z" />
    <glyph glyph-name="a" unicode="a" horiz-adv-x="564" 
d="M66 26.5q-48 40.5 -48 107.5t52.5 112t153.5 56l90 10q20 2 32 14.5t12 32.5q0 34 -30 55.5t-76 21.5q-53 0 -87.5 -32t-36.5 -76l-98 32q3 45 32 83t79 60t113 22t110 -23t73 -64.5t26 -95.5v-237q0 -14 6 -22t17 -8q19 0 39 23l39 -66q-19 -22 -49 -34t-60 -12
q-40 0 -65.5 21t-31.5 54l-2 11h-1q-25 -41 -67.5 -63.5t-96.5 -22.5q-77 0 -125 40.5zM318 112.5q37 37.5 37 95.5v29l-111 -12q-59 -7 -88 -29t-29 -53q0 -32 27 -50t70 -18q57 0 94 37.5z" />
    <glyph glyph-name="a.alt1" horiz-adv-x="505" 
d="M66 26.5q-48 40.5 -48 107.5t52.5 112t153.5 56l90 10q20 2 32 14.5t12 32.5q0 34 -30 55.5t-76 21.5q-53 0 -87.5 -32t-36.5 -76l-98 32q3 45 32 83t79 60t113 22t110 -23t73 -64.5t26 -95.5v-342h-95l-13 71h-1q-25 -41 -67 -63t-96 -22q-77 0 -125 40.5zM318 112.5
q37 37.5 37 95.5v29l-111 -12q-59 -7 -88 -29t-29 -53q0 -32 27 -50t70 -18q57 0 94 37.5z" />
    <glyph glyph-name="a.alt2" horiz-adv-x="565" 
d="M133 18q-50 34 -77.5 95.5t-27.5 140.5t27.5 140.5t77 95.5t114.5 34q51 0 94 -23.5t68 -66.5h1l12 74h96v-508h-93l-13 77h-1q-24 -44 -67.5 -68.5t-95.5 -24.5q-65 0 -115 34zM376 129.5q38 48.5 38 124.5t-38 124.5t-101 48.5t-101 -48.5t-38 -124.5q0 -77 38 -125
t101 -48t101 48.5z" />
    <glyph glyph-name="b" unicode="b" horiz-adv-x="565" 
d="M220.5 8q-42.5 24 -67.5 69h-1l-13 -77h-92v738h108v-304h1q26 44 67.5 67t94.5 23q65 0 114.5 -33.5t77 -94.5t27.5 -142t-27.5 -142t-77.5 -94.5t-115 -33.5q-54 0 -96.5 24zM390.5 128.5q38.5 47.5 38.5 125.5q0 77 -38.5 124.5t-100.5 47.5t-100.5 -47.5
t-38.5 -124.5t38.5 -125t100.5 -48t100.5 47.5z" />
    <glyph glyph-name="c" unicode="c" horiz-adv-x="530" 
d="M145 16q-56 33 -86.5 94t-30.5 142t29 143t81.5 96t121.5 34q82 0 140.5 -47t75.5 -127l-102 -25q-11 50 -42 78.5t-71 28.5q-56 0 -90.5 -48.5t-34.5 -130.5t38.5 -130.5t100.5 -48.5q52 0 89 35.5t45 95.5l102 -20q-13 -92 -78 -147.5t-158 -55.5q-74 0 -130 33z" />
    <glyph glyph-name="d" unicode="d" horiz-adv-x="565" 
d="M132.5 17.5q-49.5 33.5 -77 94.5t-27.5 142t27.5 142t77 94.5t114.5 33.5q53 0 94.5 -23t67.5 -67h1v304h108v-738h-92l-13 77h-1q-25 -45 -68 -69t-97 -24q-65 0 -114.5 33.5zM375.5 129q38.5 48 38.5 125t-38.5 124.5t-100.5 47.5t-100.5 -47.5t-38.5 -124.5
q0 -78 38.5 -125.5t100.5 -47.5t100.5 48z" />
    <glyph glyph-name="e" unicode="e" horiz-adv-x="535" 
d="M153.5 17q-59.5 34 -92.5 97t-33 146q0 79 30 139t84.5 93t126.5 33q70 0 122.5 -32.5t81 -92t28.5 -138.5q0 -27 -3 -41h-361q7 -68 48.5 -108t106.5 -40q48 0 83 22.5t52 62.5l87 -38q-22 -63 -82.5 -100t-139.5 -37t-138.5 34zM389 301q-5 65 -36 99.5t-84 34.5
q-56 0 -89.5 -35.5t-41.5 -98.5h251z" />
    <glyph glyph-name="f" unicode="f" horiz-adv-x="429" 
d="M99 423h-98v85h98v92q0 71 45.5 113t121.5 42q65 0 109 -33t55 -89l-71 -51q-7 38 -29 60t-53 22q-32 0 -51 -22t-19 -59v-75h184v-85h-184l1 -423h-109v423z" />
    <glyph glyph-name="g" unicode="g" horiz-adv-x="562" 
d="M98 -196q-69 31 -103 83l67 73q28 -42 76 -67.5t101 -25.5q77 0 122 45t45 121v54h-1q-24 -41 -68 -67.5t-91 -26.5q-64 0 -113.5 33t-76.5 92.5t-27 138.5t27 139.5t76 94t113 33.5q50 0 94.5 -25t66.5 -66h1l13 75h95v-476q0 -79 -33 -137.5t-93.5 -90t-141.5 -31.5
q-80 0 -149 31zM372 134q38 48 38 123q0 77 -37.5 125.5t-98.5 48.5t-99 -48t-38 -126q0 -77 38 -124t99 -47q60 0 98 48z" />
    <glyph glyph-name="h" unicode="h" 
d="M47 738h108v-302h1q26 42 67.5 65t95.5 23q75 0 116.5 -45.5t41.5 -126.5v-352h-108v335q0 46 -24.5 72t-65.5 26q-56 0 -90 -36t-34 -96v-301h-108v738z" />
    <glyph glyph-name="i" unicode="i" horiz-adv-x="216" 
d="M56.5 614.5q-19.5 19.5 -19.5 51.5t19.5 51t51.5 19t52 -19.5t20 -50.5t-20 -51t-52 -20t-51.5 19.5zM53 508h108v-508h-108v508z" />
    <glyph glyph-name="j" unicode="j" horiz-adv-x="214" 
d="M55 615q-20 20 -20 51t20 50.5t51 19.5q32 0 52 -19.5t20 -50.5t-20 -51t-52 -20q-31 0 -51 20zM-81 -211l15 85q23 -11 50 -11q32 0 50 20t18 55v570h109v-581q0 -73 -41.5 -113.5t-114.5 -40.5q-51 0 -86 16z" />
    <glyph glyph-name="k" unicode="k" horiz-adv-x="471" 
d="M47 738h108v-430h1l171 200h132l-173 -193l185 -315h-122l-134 239l-60 -68v-171h-108v738z" />
    <glyph glyph-name="k.alt1" horiz-adv-x="470" 
d="M47 738h108v-437h1l169 207h132l-201 -234l214 -274h-132l-182 243h-1v-243h-108v738z" />
    <glyph glyph-name="l" unicode="l" horiz-adv-x="202" 
d="M47 738h108v-738h-108v738z" />
    <glyph glyph-name="m" unicode="m" horiz-adv-x="837" 
d="M47 508h90l13 -74h1q21 43 63 66.5t96 23.5q55 0 93.5 -24.5t57.5 -70.5h1q29 47 73 71t97 24q77 0 120 -47t43 -131l-1 -346h-108v335q0 44 -25 69t-69 25q-54 0 -85.5 -38t-31.5 -102l-1 -289h-108v335q0 44 -24.5 69t-69.5 25q-54 0 -85.5 -38t-31.5 -102v-289h-108
v508z" />
    <glyph glyph-name="n" unicode="n" 
d="M435 478.5q42 -45.5 42 -126.5v-352h-108v335q0 46 -24.5 72t-65.5 26q-56 0 -90 -36t-34 -96v-301h-108v508h93l13 -72h1q27 43 68.5 65.5t96.5 22.5q74 0 116 -45.5z" />
    <glyph glyph-name="o" unicode="o" horiz-adv-x="558" 
d="M147 16.5q-57 33.5 -88 95t-31 143.5q0 81 31 142t88 94.5t132 33.5t132.5 -33.5t88.5 -94.5t31 -142q0 -82 -31.5 -143.5t-88.5 -95t-132 -33.5t-132 33.5zM383.5 125.5q39.5 48.5 39.5 129.5q0 80 -39.5 128t-104.5 48t-104 -48t-39 -128q0 -81 39 -129.5t104 -48.5
t104.5 48.5z" />
    <glyph glyph-name="p" unicode="p" horiz-adv-x="565" 
d="M47 508h92l13 -77h1q25 45 67.5 69t96.5 24q65 0 115 -33.5t77.5 -94.5t27.5 -142t-27.5 -142t-77 -94.5t-114.5 -33.5q-53 0 -94.5 23t-67.5 67h-1v-284h-108v718zM390.5 129.5q38.5 47.5 38.5 124.5q0 78 -38.5 125.5t-100.5 47.5t-100.5 -48t-38.5 -125t38.5 -124.5
t100.5 -47.5t100.5 47.5z" />
    <glyph glyph-name="q" unicode="q" horiz-adv-x="565" 
d="M410 74h-1q-26 -44 -67.5 -67t-94.5 -23q-65 0 -114.5 33.5t-77 94.5t-27.5 142t27.5 142t77 94.5t114.5 33.5q54 0 97 -24t68 -69h1l13 77h92v-718h-108v284zM375.5 129.5q38.5 47.5 38.5 124.5t-38.5 125t-100.5 48t-100.5 -47.5t-38.5 -125.5q0 -77 38.5 -124.5
t100.5 -47.5t100.5 47.5z" />
    <glyph glyph-name="r" unicode="r" horiz-adv-x="440" 
d="M379.5 481q37.5 -44 41.5 -122l-92 -28q-3 49 -23 76.5t-53 27.5q-46 0 -72 -44t-26 -123v-268h-108v508h87l13 -82h1q18 47 52.5 73t78.5 26q63 0 100.5 -44z" />
    <glyph glyph-name="s" unicode="s" horiz-adv-x="481" 
d="M133.5 4.5q-51.5 21.5 -82 62.5t-32.5 97l101 18q2 -52 38.5 -82t93.5 -30q47 0 77.5 18.5t30.5 49.5q-1 24 -24 40t-74 28l-77 19q-73 19 -106.5 52.5t-33.5 88.5q0 72 52 115.5t135 43.5q81 0 136.5 -41.5t62.5 -109.5l-100 -21q-3 41 -30.5 63.5t-70.5 22.5
q-38 0 -61 -18t-23 -46q0 -22 20.5 -37.5t65.5 -27.5l76 -19q80 -21 117 -55t38 -89q0 -48 -28 -85t-77 -58t-110 -21q-63 0 -114.5 21.5z" />
    <glyph glyph-name="t" unicode="t" horiz-adv-x="420" 
d="M138 25q-43 42 -43 113l-1 285h-93v85h93v142l109 24v-166h184v-85h-184v-267q0 -38 17.5 -60t48.5 -22t52.5 22t27.5 66l69 -49q-10 -61 -54.5 -95.5t-109.5 -34.5q-73 0 -116 42z" />
    <glyph glyph-name="u" unicode="u" 
d="M85 29.5q-42 45.5 -42 126.5v352h108v-335q0 -46 24.5 -72t65.5 -26q56 0 90 36t34 96v301h108v-508h-93l-13 72h-1q-27 -43 -68.5 -65.5t-96.5 -22.5q-74 0 -116 45.5z" />
    <glyph glyph-name="u.alt1" horiz-adv-x="515" 
d="M101 37.5q-58 54.5 -59 145.5v325h109v-323q0 -48 29 -77.5t78 -29.5q48 0 77.5 29.5t29.5 77.5v323h108v-325q0 -92 -58.5 -146t-157.5 -54q-98 0 -156 54.5z" />
    <glyph glyph-name="v" unicode="v" horiz-adv-x="496" 
d="M9 508h113l125 -416h2l125 416h113l-169 -508h-141z" />
    <glyph glyph-name="w" unicode="w" horiz-adv-x="787" 
d="M9 508h110l104 -399h1l107 399h125l110 -400h1l102 400h110l-144 -508h-133l-107 399h-2l-104 -399h-134z" />
    <glyph glyph-name="x" unicode="x" horiz-adv-x="486" 
d="M175 264l-157 244h120l105 -178l106 178h119l-157 -244l167 -264h-123l-112 193l-113 -193h-121z" />
    <glyph glyph-name="y" unicode="y" horiz-adv-x="518" 
d="M80.5 -197q-61.5 30 -94.5 84l71 70q25 -42 66 -66t92 -24q69 0 109 40t40 111v35h-1q-22 -40 -60.5 -62.5t-83.5 -22.5q-83 0 -131 53t-48 143v344h108v-337q0 -50 26.5 -80t73.5 -30q50 0 82 33t32 87v327h109l1 -493q0 -114 -67.5 -178t-184.5 -64q-78 0 -139.5 30z
" />
    <glyph glyph-name="y.alt1" horiz-adv-x="503" 
d="M218 23l-209 485h114l144 -347h1l115 347h111l-244 -718h-112z" />
    <glyph glyph-name="z" unicode="z" horiz-adv-x="454" 
d="M20 106l289 311h-279v91h395v-106l-290 -311h300v-91h-415v106z" />
    <glyph glyph-name="Agrave" unicode="&#xc0;" horiz-adv-x="647" 
d="M249 708h149l240 -708h-124l-50 157h-281l-51 -157h-123zM437 254l-112 348h-2l-113 -348h227zM243 908l33 21l78 -129l-33 -21z" />
    <glyph glyph-name="agrave" unicode="&#xe0;" horiz-adv-x="564" 
d="M66 26.5q-48 40.5 -48 107.5t52.5 112t153.5 56l90 10q20 2 32 14.5t12 32.5q0 34 -30 55.5t-76 21.5q-53 0 -87.5 -32t-36.5 -76l-98 32q3 45 32 83t79 60t113 22t110 -23t73 -64.5t26 -95.5v-237q0 -14 6 -22t17 -8q19 0 39 23l39 -66q-19 -22 -49 -34t-60 -12
q-40 0 -65.5 21t-31.5 54l-2 11h-1q-25 -41 -67.5 -63.5t-96.5 -22.5q-77 0 -125 40.5zM318 112.5q37 37.5 37 95.5v29l-111 -12q-59 -7 -88 -29t-29 -53q0 -32 27 -50t70 -18q57 0 94 37.5zM158 749l34 21l93 -149l-34 -21z" />
    <glyph glyph-name="agrave.alt1" horiz-adv-x="505" 
d="M66 26.5q-48 40.5 -48 107.5t52.5 112t153.5 56l90 10q20 2 32 14.5t12 32.5q0 34 -30 55.5t-76 21.5q-53 0 -87.5 -32t-36.5 -76l-98 32q3 45 32 83t79 60t113 22t110 -23t73 -64.5t26 -95.5v-342h-95l-13 71h-1q-25 -41 -67 -63t-96 -22q-77 0 -125 40.5zM318 112.5
q37 37.5 37 95.5v29l-111 -12q-59 -7 -88 -29t-29 -53q0 -32 27 -50t70 -18q57 0 94 37.5zM157 749l34 21l93 -149l-34 -21z" />
    <glyph glyph-name="agrave.alt2" horiz-adv-x="565" 
d="M133 18q-50 34 -77.5 95.5t-27.5 140.5t27.5 140.5t77 95.5t114.5 34q51 0 94 -23.5t68 -66.5h1l12 74h96v-508h-93l-13 77h-1q-24 -44 -67.5 -68.5t-95.5 -24.5q-65 0 -115 34zM376 129.5q38 48.5 38 124.5t-38 124.5t-101 48.5t-101 -48.5t-38 -124.5q0 -77 38 -125
t101 -48t101 48.5zM179 749l34 21l93 -149l-34 -21z" />
    <glyph glyph-name="Aacute" unicode="&#xc1;" horiz-adv-x="647" 
d="M249 708h149l240 -708h-124l-50 157h-281l-51 -157h-123zM437 254l-112 348h-2l-113 -348h227zM305 800l78 129l33 -21l-78 -129z" />
    <glyph glyph-name="aacute" unicode="&#xe1;" horiz-adv-x="564" 
d="M66 26.5q-48 40.5 -48 107.5t52.5 112t153.5 56l90 10q20 2 32 14.5t12 32.5q0 34 -30 55.5t-76 21.5q-53 0 -87.5 -32t-36.5 -76l-98 32q3 45 32 83t79 60t113 22t110 -23t73 -64.5t26 -95.5v-237q0 -14 6 -22t17 -8q19 0 39 23l39 -66q-19 -22 -49 -34t-60 -12
q-40 0 -65.5 21t-31.5 54l-2 11h-1q-25 -41 -67.5 -63.5t-96.5 -22.5q-77 0 -125 40.5zM318 112.5q37 37.5 37 95.5v29l-111 -12q-59 -7 -88 -29t-29 -53q0 -32 27 -50t70 -18q57 0 94 37.5zM229 621l93 149l34 -21l-94 -149z" />
    <glyph glyph-name="aacute.alt1" horiz-adv-x="505" 
d="M66 26.5q-48 40.5 -48 107.5t52.5 112t153.5 56l90 10q20 2 32 14.5t12 32.5q0 34 -30 55.5t-76 21.5q-53 0 -87.5 -32t-36.5 -76l-98 32q3 45 32 83t79 60t113 22t110 -23t73 -64.5t26 -95.5v-342h-95l-13 71h-1q-25 -41 -67 -63t-96 -22q-77 0 -125 40.5zM318 112.5
q37 37.5 37 95.5v29l-111 -12q-59 -7 -88 -29t-29 -53q0 -32 27 -50t70 -18q57 0 94 37.5zM229 621l93 149l34 -21l-94 -149z" />
    <glyph glyph-name="aacute.alt2" horiz-adv-x="565" 
d="M133 18q-50 34 -77.5 95.5t-27.5 140.5t27.5 140.5t77 95.5t114.5 34q51 0 94 -23.5t68 -66.5h1l12 74h96v-508h-93l-13 77h-1q-24 -44 -67.5 -68.5t-95.5 -24.5q-65 0 -115 34zM376 129.5q38 48.5 38 124.5t-38 124.5t-101 48.5t-101 -48.5t-38 -124.5q0 -77 38 -125
t101 -48t101 48.5zM251 621l93 149l34 -21l-94 -149z" />
    <glyph glyph-name="Atilde" unicode="&#xc3;" horiz-adv-x="647" 
d="M249 708h149l240 -708h-124l-50 157h-281l-51 -157h-123zM437 254l-112 348h-2l-113 -348h227zM356.5 789.5q-15.5 9.5 -29.5 25.5t-25 31q-14 18 -24.5 27.5t-22.5 9.5q-20 0 -33 -26t-13 -67h-40q0 58 24 95.5t63 37.5q27 0 44.5 -15.5t38.5 -44.5q17 -23 27.5 -33
t23.5 -10q21 0 35 26.5t14 67.5h40q0 -59 -24 -96.5t-63 -37.5q-20 0 -35.5 9.5z" />
    <glyph glyph-name="atilde" unicode="&#xe3;" horiz-adv-x="564" 
d="M66 26.5q-48 40.5 -48 107.5t52.5 112t153.5 56l90 10q20 2 32 14.5t12 32.5q0 34 -30 55.5t-76 21.5q-53 0 -87.5 -32t-36.5 -76l-98 32q3 45 32 83t79 60t113 22t110 -23t73 -64.5t26 -95.5v-237q0 -14 6 -22t17 -8q19 0 39 23l39 -66q-19 -22 -49 -34t-60 -12
q-40 0 -65.5 21t-31.5 54l-2 11h-1q-25 -41 -67.5 -63.5t-96.5 -22.5q-77 0 -125 40.5zM318 112.5q37 37.5 37 95.5v29l-111 -12q-59 -7 -88 -29t-29 -53q0 -32 27 -50t70 -18q57 0 94 37.5zM278.5 604.5q-18.5 14.5 -37.5 39.5q-19 26 -30 37.5t-26 11.5q-20 0 -33 -26
t-13 -67h-40q0 58 24 95.5t63 37.5q25 0 43 -14.5t37 -40.5q18 -25 29 -36.5t25 -11.5q21 0 35 26.5t14 67.5h40q0 -59 -24 -96.5t-63 -37.5q-25 0 -43.5 14.5z" />
    <glyph glyph-name="atilde.alt1" horiz-adv-x="505" 
d="M66 26.5q-48 40.5 -48 107.5t52.5 112t153.5 56l90 10q20 2 32 14.5t12 32.5q0 34 -30 55.5t-76 21.5q-53 0 -87.5 -32t-36.5 -76l-98 32q3 45 32 83t79 60t113 22t110 -23t73 -64.5t26 -95.5v-342h-95l-13 71h-1q-25 -41 -67 -63t-96 -22q-77 0 -125 40.5zM318 112.5
q37 37.5 37 95.5v29l-111 -12q-59 -7 -88 -29t-29 -53q0 -32 27 -50t70 -18q57 0 94 37.5zM277.5 604.5q-18.5 14.5 -37.5 39.5q-19 26 -30 37.5t-26 11.5q-20 0 -33 -26t-13 -67h-40q0 58 24 95.5t63 37.5q25 0 43 -14.5t37 -40.5q18 -25 29 -36.5t25 -11.5q21 0 35 26.5
t14 67.5h40q0 -59 -24 -96.5t-63 -37.5q-25 0 -43.5 14.5z" />
    <glyph glyph-name="atilde.alt2" horiz-adv-x="565" 
d="M133 18q-50 34 -77.5 95.5t-27.5 140.5t27.5 140.5t77 95.5t114.5 34q51 0 94 -23.5t68 -66.5h1l12 74h96v-508h-93l-13 77h-1q-24 -44 -67.5 -68.5t-95.5 -24.5q-65 0 -115 34zM376 129.5q38 48.5 38 124.5t-38 124.5t-101 48.5t-101 -48.5t-38 -124.5q0 -77 38 -125
t101 -48t101 48.5zM299.5 604.5q-18.5 14.5 -37.5 39.5q-19 26 -30 37.5t-26 11.5q-20 0 -33 -26t-13 -67h-40q0 58 24 95.5t63 37.5q25 0 43 -14.5t37 -40.5q18 -25 29 -36.5t25 -11.5q21 0 35 26.5t14 67.5h40q0 -59 -24 -96.5t-63 -37.5q-25 0 -43.5 14.5z" />
    <glyph glyph-name="Adieresis" unicode="&#xc4;" horiz-adv-x="647" 
d="M249 708h149l240 -708h-124l-50 157h-281l-51 -157h-123zM437 254l-112 348h-2l-113 -348h227zM156 814.5q-19 18.5 -19 49.5q0 29 19 48t50 19q30 0 49.5 -19t19.5 -48q0 -30 -19.5 -49t-49.5 -19q-31 0 -50 18.5zM392.5 814.5q-18.5 18.5 -18.5 49.5q0 30 19 48.5
t49 18.5t49 -19t19 -48q0 -31 -19 -49.5t-49 -18.5q-31 0 -49.5 18.5z" />
    <glyph glyph-name="adieresis" unicode="&#xe4;" horiz-adv-x="564" 
d="M66 26.5q-48 40.5 -48 107.5t52.5 112t153.5 56l90 10q20 2 32 14.5t12 32.5q0 34 -30 55.5t-76 21.5q-53 0 -87.5 -32t-36.5 -76l-98 32q3 45 32 83t79 60t113 22t110 -23t73 -64.5t26 -95.5v-237q0 -14 6 -22t17 -8q19 0 39 23l39 -66q-19 -22 -49 -34t-60 -12
q-40 0 -65.5 21t-31.5 54l-2 11h-1q-25 -41 -67.5 -63.5t-96.5 -22.5q-77 0 -125 40.5zM318 112.5q37 37.5 37 95.5v29l-111 -12q-59 -7 -88 -29t-29 -53q0 -32 27 -50t70 -18q57 0 94 37.5zM91 619q-19 19 -19 48t19 47.5t49 18.5t49.5 -18.5t19.5 -47.5t-19.5 -48
t-49.5 -19t-49 19zM317 619q-19 19 -19 48t19 47.5t49 18.5t49.5 -18.5t19.5 -47.5t-19.5 -48t-49.5 -19t-49 19z" />
    <glyph glyph-name="adieresis.alt1" horiz-adv-x="505" 
d="M66 26.5q-48 40.5 -48 107.5t52.5 112t153.5 56l90 10q20 2 32 14.5t12 32.5q0 34 -30 55.5t-76 21.5q-53 0 -87.5 -32t-36.5 -76l-98 32q3 45 32 83t79 60t113 22t110 -23t73 -64.5t26 -95.5v-342h-95l-13 71h-1q-25 -41 -67 -63t-96 -22q-77 0 -125 40.5zM318 112.5
q37 37.5 37 95.5v29l-111 -12q-59 -7 -88 -29t-29 -53q0 -32 27 -50t70 -18q57 0 94 37.5zM90 619q-19 19 -19 48t19 47.5t49 18.5t49.5 -18.5t19.5 -47.5t-19.5 -48t-49.5 -19t-49 19zM316 619q-19 19 -19 48t19 47.5t49 18.5t49.5 -18.5t19.5 -47.5t-19.5 -48t-49.5 -19
t-49 19z" />
    <glyph glyph-name="adieresis.alt2" horiz-adv-x="565" 
d="M133 18q-50 34 -77.5 95.5t-27.5 140.5t27.5 140.5t77 95.5t114.5 34q51 0 94 -23.5t68 -66.5h1l12 74h96v-508h-93l-13 77h-1q-24 -44 -67.5 -68.5t-95.5 -24.5q-65 0 -115 34zM376 129.5q38 48.5 38 124.5t-38 124.5t-101 48.5t-101 -48.5t-38 -124.5q0 -77 38 -125
t101 -48t101 48.5zM112 619q-19 19 -19 48t19 47.5t49 18.5t49.5 -18.5t19.5 -47.5t-19.5 -48t-49.5 -19t-49 19zM338 619q-19 19 -19 48t19 47.5t49 18.5t49.5 -18.5t19.5 -47.5t-19.5 -48t-49.5 -19t-49 19z" />
    <glyph glyph-name="Aring" unicode="&#xc5;" horiz-adv-x="647" 
d="M249 708h149l240 -708h-124l-50 157h-281l-51 -157h-123zM437 254l-112 348h-2l-113 -348h227zM255.5 807.5q-26.5 27.5 -26.5 69.5q0 40 27 66.5t68 26.5t67.5 -27t27.5 -68q0 -41 -26.5 -68t-68.5 -27t-68.5 27.5zM363 835.5q15 15.5 15 39.5t-15 39.5t-40 15.5
q-23 0 -39 -15.5t-16 -39.5t16 -39.5t39 -15.5q25 0 40 15.5z" />
    <glyph glyph-name="aring" unicode="&#xe5;" horiz-adv-x="564" 
d="M66 26.5q-48 40.5 -48 107.5t52.5 112t153.5 56l90 10q20 2 32 14.5t12 32.5q0 34 -30 55.5t-76 21.5q-53 0 -87.5 -32t-36.5 -76l-98 32q3 45 32 83t79 60t113 22t110 -23t73 -64.5t26 -95.5v-237q0 -14 6 -22t17 -8q19 0 39 23l39 -66q-19 -22 -49 -34t-60 -12
q-40 0 -65.5 21t-31.5 54l-2 11h-1q-25 -41 -67.5 -63.5t-96.5 -22.5q-77 0 -125 40.5zM318 112.5q37 37.5 37 95.5v29l-111 -12q-59 -7 -88 -29t-29 -53q0 -32 27 -50t70 -18q57 0 94 37.5zM185.5 617.5q-26.5 27.5 -26.5 69.5q0 40 27 66.5t68 26.5t67.5 -27t27.5 -68
q0 -41 -26.5 -68t-68.5 -27t-68.5 27.5zM293 645.5q15 15.5 15 39.5t-15 39.5t-40 15.5q-23 0 -39 -15.5t-16 -39.5t16 -39.5t39 -15.5q25 0 40 15.5z" />
    <glyph glyph-name="aring.alt1" horiz-adv-x="505" 
d="M66 26.5q-48 40.5 -48 107.5t52.5 112t153.5 56l90 10q20 2 32 14.5t12 32.5q0 34 -30 55.5t-76 21.5q-53 0 -87.5 -32t-36.5 -76l-98 32q3 45 32 83t79 60t113 22t110 -23t73 -64.5t26 -95.5v-342h-95l-13 71h-1q-25 -41 -67 -63t-96 -22q-77 0 -125 40.5zM318 112.5
q37 37.5 37 95.5v29l-111 -12q-59 -7 -88 -29t-29 -53q0 -32 27 -50t70 -18q57 0 94 37.5zM184.5 617.5q-26.5 27.5 -26.5 69.5q0 40 27 66.5t68 26.5t67.5 -27t27.5 -68q0 -41 -26.5 -68t-68.5 -27t-68.5 27.5zM292 645.5q15 15.5 15 39.5t-15 39.5t-40 15.5
q-23 0 -39 -15.5t-16 -39.5t16 -39.5t39 -15.5q25 0 40 15.5z" />
    <glyph glyph-name="aring.alt2" horiz-adv-x="565" 
d="M133 18q-50 34 -77.5 95.5t-27.5 140.5t27.5 140.5t77 95.5t114.5 34q51 0 94 -23.5t68 -66.5h1l12 74h96v-508h-93l-13 77h-1q-24 -44 -67.5 -68.5t-95.5 -24.5q-65 0 -115 34zM376 129.5q38 48.5 38 124.5t-38 124.5t-101 48.5t-101 -48.5t-38 -124.5q0 -77 38 -125
t101 -48t101 48.5zM206.5 617.5q-26.5 27.5 -26.5 69.5q0 40 27 66.5t68 26.5t67.5 -27t27.5 -68q0 -41 -26.5 -68t-68.5 -27t-68.5 27.5zM314 645.5q15 15.5 15 39.5t-15 39.5t-40 15.5q-23 0 -39 -15.5t-16 -39.5t16 -39.5t39 -15.5q25 0 40 15.5z" />
    <glyph glyph-name="Amacron" unicode="&#x100;" horiz-adv-x="647" 
d="M249 708h149l240 -708h-124l-50 157h-281l-51 -157h-123zM437 254l-112 348h-2l-113 -348h227zM183 839h281v-40h-281v40z" />
    <glyph glyph-name="amacron" unicode="&#x101;" horiz-adv-x="564" 
d="M66 26.5q-48 40.5 -48 107.5t52.5 112t153.5 56l90 10q20 2 32 14.5t12 32.5q0 34 -30 55.5t-76 21.5q-53 0 -87.5 -32t-36.5 -76l-98 32q3 45 32 83t79 60t113 22t110 -23t73 -64.5t26 -95.5v-237q0 -14 6 -22t17 -8q19 0 39 23l39 -66q-19 -22 -49 -34t-60 -12
q-40 0 -65.5 21t-31.5 54l-2 11h-1q-25 -41 -67.5 -63.5t-96.5 -22.5q-77 0 -125 40.5zM318 112.5q37 37.5 37 95.5v29l-111 -12q-59 -7 -88 -29t-29 -53q0 -32 27 -50t70 -18q57 0 94 37.5zM113 639h281v-40h-281v40z" />
    <glyph glyph-name="amacron.alt1" horiz-adv-x="505" 
d="M66 26.5q-48 40.5 -48 107.5t52.5 112t153.5 56l90 10q20 2 32 14.5t12 32.5q0 34 -30 55.5t-76 21.5q-53 0 -87.5 -32t-36.5 -76l-98 32q3 45 32 83t79 60t113 22t110 -23t73 -64.5t26 -95.5v-342h-95l-13 71h-1q-25 -41 -67 -63t-96 -22q-77 0 -125 40.5zM318 112.5
q37 37.5 37 95.5v29l-111 -12q-59 -7 -88 -29t-29 -53q0 -32 27 -50t70 -18q57 0 94 37.5zM112 639h281v-40h-281v40z" />
    <glyph glyph-name="amacron.alt2" horiz-adv-x="565" 
d="M133 18q-50 34 -77.5 95.5t-27.5 140.5t27.5 140.5t77 95.5t114.5 34q51 0 94 -23.5t68 -66.5h1l12 74h96v-508h-93l-13 77h-1q-24 -44 -67.5 -68.5t-95.5 -24.5q-65 0 -115 34zM376 129.5q38 48.5 38 124.5t-38 124.5t-101 48.5t-101 -48.5t-38 -124.5q0 -77 38 -125
t101 -48t101 48.5zM134 639h281v-40h-281v40z" />
    <glyph glyph-name="Abreve" unicode="&#x102;" horiz-adv-x="647" 
d="M249 708h149l240 -708h-124l-50 157h-281l-51 -157h-123zM437 254l-112 348h-2l-113 -348h227zM236.5 826.5q-35.5 36.5 -35.5 93.5h40q0 -39 24 -64.5t61 -25.5t61 25.5t24 64.5h40q0 -56 -35 -93t-90 -37q-54 0 -89.5 36.5z" />
    <glyph glyph-name="abreve" unicode="&#x103;" horiz-adv-x="564" 
d="M66 26.5q-48 40.5 -48 107.5t52.5 112t153.5 56l90 10q20 2 32 14.5t12 32.5q0 34 -30 55.5t-76 21.5q-53 0 -87.5 -32t-36.5 -76l-98 32q3 45 32 83t79 60t113 22t110 -23t73 -64.5t26 -95.5v-237q0 -14 6 -22t17 -8q19 0 39 23l39 -66q-19 -22 -49 -34t-60 -12
q-40 0 -65.5 21t-31.5 54l-2 11h-1q-25 -41 -67.5 -63.5t-96.5 -22.5q-77 0 -125 40.5zM318 112.5q37 37.5 37 95.5v29l-111 -12q-59 -7 -88 -29t-29 -53q0 -32 27 -50t70 -18q57 0 94 37.5zM148.5 635q-40.5 45 -40.5 115h40q0 -52 29.5 -86t74.5 -34q46 0 76 33.5t30 86.5
h40q0 -70 -41 -115t-104 -45q-64 0 -104.5 45z" />
    <glyph glyph-name="abreve.alt1" horiz-adv-x="505" 
d="M66 26.5q-48 40.5 -48 107.5t52.5 112t153.5 56l90 10q20 2 32 14.5t12 32.5q0 34 -30 55.5t-76 21.5q-53 0 -87.5 -32t-36.5 -76l-98 32q3 45 32 83t79 60t113 22t110 -23t73 -64.5t26 -95.5v-342h-95l-13 71h-1q-25 -41 -67 -63t-96 -22q-77 0 -125 40.5zM318 112.5
q37 37.5 37 95.5v29l-111 -12q-59 -7 -88 -29t-29 -53q0 -32 27 -50t70 -18q57 0 94 37.5zM148.5 635q-40.5 45 -40.5 115h40q0 -52 29.5 -86t74.5 -34q46 0 76 33.5t30 86.5h40q0 -70 -41 -115t-104 -45q-64 0 -104.5 45z" />
    <glyph glyph-name="abreve.alt2" horiz-adv-x="565" 
d="M133 18q-50 34 -77.5 95.5t-27.5 140.5t27.5 140.5t77 95.5t114.5 34q51 0 94 -23.5t68 -66.5h1l12 74h96v-508h-93l-13 77h-1q-24 -44 -67.5 -68.5t-95.5 -24.5q-65 0 -115 34zM376 129.5q38 48.5 38 124.5t-38 124.5t-101 48.5t-101 -48.5t-38 -124.5q0 -77 38 -125
t101 -48t101 48.5zM170.5 635q-40.5 45 -40.5 115h40q0 -52 29.5 -86t74.5 -34q46 0 76 33.5t30 86.5h40q0 -70 -41 -115t-104 -45q-64 0 -104.5 45z" />
    <glyph glyph-name="Aogonek" unicode="&#x104;" horiz-adv-x="647" 
d="M502.5 -55.5q-38.5 -24.5 -38.5 -63.5q0 -21 13.5 -33.5t35.5 -12.5q16 0 34.5 10t34.5 26l28 -26q-19 -23 -46.5 -36.5t-52.5 -13.5q-40 0 -64 22.5t-24 59.5q0 40 27 69t80 54h-16l-50 157h-281l-51 -157h-123l240 708h149l240 -708h-9q-88 -31 -126.5 -55.5zM437 254
l-112 348h-2l-113 -348h227z" />
    <glyph glyph-name="aogonek" unicode="&#x105;" horiz-adv-x="564" 
d="M385 -59.5q-33 -23.5 -33 -59.5q0 -21 13.5 -33.5t35.5 -12.5q16 0 34.5 10t34.5 26l28 -26q-19 -23 -46.5 -36.5t-52.5 -13.5q-40 0 -64 22.5t-24 59.5q0 38 24.5 66.5t72.5 52.5q-20 9 -33 26.5t-17 38.5l-2 11h-1q-25 -41 -67.5 -63.5t-96.5 -22.5q-77 0 -125 40.5
t-48 107.5t52.5 112t153.5 56l90 10q20 2 32 14.5t12 32.5q0 34 -30 55.5t-76 21.5q-53 0 -87.5 -32t-36.5 -76l-98 32q3 45 32 83t79 60t113 22t110 -23t73 -64.5t26 -95.5v-237q0 -14 6 -22t17 -8q19 0 39 23l39 -66q-28 -32 -76 -42q-70 -26 -103 -49.5zM355 237
l-111 -12q-59 -7 -88 -29t-29 -53q0 -32 27 -50t70 -18q57 0 94 37.5t37 95.5v29z" />
    <glyph glyph-name="aogonek.alt1" horiz-adv-x="505" 
d="M336.5 -55.5q-38.5 -24.5 -38.5 -63.5q0 -21 13.5 -33.5t35.5 -12.5q16 0 34.5 10t34.5 26l28 -26q-19 -23 -46.5 -36.5t-52.5 -13.5q-40 0 -64 22.5t-24 59.5q0 41 28 71t83 54l-13 69h-1q-25 -41 -67 -63t-96 -22q-77 0 -125 40.5t-48 107.5t52.5 112t153.5 56l90 10
q20 2 32 14.5t12 32.5q0 34 -30 55.5t-76 21.5q-53 0 -87.5 -32t-36.5 -76l-98 32q3 45 32 83t79 60t113 22t110 -23t73 -64.5t26 -95.5v-342q-88 -31 -126.5 -55.5zM355 237l-111 -12q-59 -7 -88 -29t-29 -53q0 -32 27 -50t70 -18q57 0 94 37.5t37 95.5v29z" />
    <glyph glyph-name="aogonek.alt2" horiz-adv-x="565" 
d="M391.5 -55.5q-38.5 -24.5 -38.5 -63.5q0 -21 13.5 -33.5t35.5 -12.5q16 0 34.5 10t34.5 26l28 -26q-19 -23 -46.5 -36.5t-52.5 -13.5q-40 0 -64 23t-24 61q0 40 28.5 69.5t84.5 54.5l-13 74h-1q-24 -44 -67.5 -68.5t-95.5 -24.5q-65 0 -115 34t-77.5 95.5t-27.5 140.5
t27.5 140.5t77 95.5t114.5 34q51 0 94 -23.5t68 -66.5h1l12 74h96v-508q-88 -31 -126.5 -55.5zM376 129.5q38 48.5 38 124.5t-38 124.5t-101 48.5t-101 -48.5t-38 -124.5q0 -77 38 -125t101 -48t101 48.5z" />
    <glyph glyph-name="Acircumflex" unicode="&#xc2;" horiz-adv-x="647" 
d="M249 708h149l240 -708h-124l-50 157h-281l-51 -157h-123zM437 254l-112 348h-2l-113 -348h227zM188 807l108 113h54l108 -113l-29 -27l-106 109l-106 -109z" />
    <glyph glyph-name="acircumflex" unicode="&#xe2;" horiz-adv-x="564" 
d="M66 26.5q-48 40.5 -48 107.5t52.5 112t153.5 56l90 10q20 2 32 14.5t12 32.5q0 34 -30 55.5t-76 21.5q-53 0 -87.5 -32t-36.5 -76l-98 32q3 45 32 83t79 60t113 22t110 -23t73 -64.5t26 -95.5v-237q0 -14 6 -22t17 -8q19 0 39 23l39 -66q-19 -22 -49 -34t-60 -12
q-40 0 -65.5 21t-31.5 54l-2 11h-1q-25 -41 -67.5 -63.5t-96.5 -22.5q-77 0 -125 40.5zM318 112.5q37 37.5 37 95.5v29l-111 -12q-59 -7 -88 -29t-29 -53q0 -32 27 -50t70 -18q57 0 94 37.5zM101 617l126 133h54l127 -133l-29 -27l-125 130l-124 -130z" />
    <glyph glyph-name="acircumflex.alt1" horiz-adv-x="505" 
d="M66 26.5q-48 40.5 -48 107.5t52.5 112t153.5 56l90 10q20 2 32 14.5t12 32.5q0 34 -30 55.5t-76 21.5q-53 0 -87.5 -32t-36.5 -76l-98 32q3 45 32 83t79 60t113 22t110 -23t73 -64.5t26 -95.5v-342h-95l-13 71h-1q-25 -41 -67 -63t-96 -22q-77 0 -125 40.5zM318 112.5
q37 37.5 37 95.5v29l-111 -12q-59 -7 -88 -29t-29 -53q0 -32 27 -50t70 -18q57 0 94 37.5zM100 617l126 133h54l127 -133l-29 -27l-125 130l-124 -130z" />
    <glyph glyph-name="acircumflex.alt2" horiz-adv-x="565" 
d="M133 18q-50 34 -77.5 95.5t-27.5 140.5t27.5 140.5t77 95.5t114.5 34q51 0 94 -23.5t68 -66.5h1l12 74h96v-508h-93l-13 77h-1q-24 -44 -67.5 -68.5t-95.5 -24.5q-65 0 -115 34zM376 129.5q38 48.5 38 124.5t-38 124.5t-101 48.5t-101 -48.5t-38 -124.5q0 -77 38 -125
t101 -48t101 48.5zM122 617l126 133h54l127 -133l-29 -27l-125 130l-124 -130z" />
    <glyph glyph-name="AE" unicode="&#xc6;" horiz-adv-x="858" 
d="M351 708h473v-102h-287v-200h247v-93h-247v-211h297v-102h-413v132h-225l-65 -132h-132zM421 226v377h-1l-185 -377h186z" />
    <glyph glyph-name="ae" unicode="&#xe6;" horiz-adv-x="838" 
d="M109.5 2q-42.5 19 -67 53t-24.5 77q0 66 52 110t149 54l98 11q19 2 30 15t11 34q0 37 -28.5 58.5t-70.5 21.5q-55 0 -90 -31t-37 -72l-97 31q2 43 29.5 80t74.5 59t105 22t105.5 -24t71.5 -67q27 43 72 67t100 24q62 0 109 -32.5t73 -92t26 -138.5q0 -21 -3 -41h-327
q8 -68 46.5 -108t94.5 -40q39 0 69 23t48 66l87 -38q-26 -69 -78.5 -105t-123.5 -36q-69 0 -121.5 36t-73.5 96q-23 -63 -80.5 -97.5t-133.5 -34.5q-53 0 -95.5 19zM689 301q-2 62 -31.5 98.5t-75.5 36.5q-44 0 -73.5 -37t-36.5 -98h217zM322 109.5q37 37.5 37 97.5v27
l-128 -14q-47 -5 -75.5 -26t-28.5 -52t27.5 -50.5t71.5 -19.5q59 0 96 37.5z" />
    <glyph glyph-name="AEacute" unicode="&#x1fc;" horiz-adv-x="858" 
d="M351 708h473v-102h-287v-200h247v-93h-247v-211h297v-102h-413v132h-225l-65 -132h-132zM421 226v377h-1l-185 -377h186zM404 800l78 129l33 -21l-78 -129z" />
    <glyph glyph-name="aeacute" unicode="&#x1fd;" horiz-adv-x="838" 
d="M109.5 2q-42.5 19 -67 53t-24.5 77q0 66 52 110t149 54l98 11q19 2 30 15t11 34q0 37 -28.5 58.5t-70.5 21.5q-55 0 -90 -31t-37 -72l-97 31q2 43 29.5 80t74.5 59t105 22t105.5 -24t71.5 -67q27 43 72 67t100 24q62 0 109 -32.5t73 -92t26 -138.5q0 -21 -3 -41h-327
q8 -68 46.5 -108t94.5 -40q39 0 69 23t48 66l87 -38q-26 -69 -78.5 -105t-123.5 -36q-69 0 -121.5 36t-73.5 96q-23 -63 -80.5 -97.5t-133.5 -34.5q-53 0 -95.5 19zM689 301q-2 62 -31.5 98.5t-75.5 36.5q-44 0 -73.5 -37t-36.5 -98h217zM322 109.5q37 37.5 37 97.5v27
l-128 -14q-47 -5 -75.5 -26t-28.5 -52t27.5 -50.5t71.5 -19.5q59 0 96 37.5zM398 621l93 149l34 -21l-94 -149z" />
    <glyph glyph-name="Cacute" unicode="&#x106;" horiz-adv-x="721" 
d="M194.5 23.5q-77.5 45.5 -119.5 130.5t-42 200t39.5 200t113 130.5t172.5 45.5q113 0 189.5 -67t98.5 -186l-113 -25q-14 83 -61 128.5t-115 45.5q-94 0 -149 -73t-55 -199q1 -126 61 -198.5t164 -72.5q84 0 140.5 55.5t70.5 151.5l113 -24q-12 -88 -56 -153t-113 -100
t-155 -35q-106 0 -183.5 45.5zM337 800l78 129l33 -21l-78 -129z" />
    <glyph glyph-name="cacute" unicode="&#x107;" horiz-adv-x="530" 
d="M145 16q-56 33 -86.5 94t-30.5 142t29 143t81.5 96t121.5 34q82 0 140.5 -47t75.5 -127l-102 -25q-11 50 -42 78.5t-71 28.5q-56 0 -90.5 -48.5t-34.5 -130.5t38.5 -130.5t100.5 -48.5q52 0 89 35.5t45 95.5l102 -20q-13 -92 -78 -147.5t-158 -55.5q-74 0 -130 33z
M236 621l93 149l34 -21l-94 -149z" />
    <glyph glyph-name="Cdotaccent" unicode="&#x10a;" horiz-adv-x="721" 
d="M194.5 23.5q-77.5 45.5 -119.5 130.5t-42 200t39.5 200t113 130.5t172.5 45.5q113 0 189.5 -67t98.5 -186l-113 -25q-14 83 -61 128.5t-115 45.5q-94 0 -149 -73t-55 -199q1 -126 61 -198.5t164 -72.5q84 0 140.5 55.5t70.5 151.5l113 -24q-12 -88 -56 -153t-113 -100
t-155 -35q-106 0 -183.5 45.5zM305.5 815q-19.5 19 -19.5 50q0 30 19.5 49t50.5 19t51 -19t20 -49q0 -31 -19.5 -50t-51.5 -19q-31 0 -50.5 19z" />
    <glyph glyph-name="cdotaccent" unicode="&#x10b;" horiz-adv-x="530" 
d="M145 16q-56 33 -86.5 94t-30.5 142t29 143t81.5 96t121.5 34q82 0 140.5 -47t75.5 -127l-102 -25q-11 50 -42 78.5t-71 28.5q-56 0 -90.5 -48.5t-34.5 -130.5t38.5 -130.5t100.5 -48.5q52 0 89 35.5t45 95.5l102 -20q-13 -92 -78 -147.5t-158 -55.5q-74 0 -130 33z
M209.5 617.5q-19.5 19.5 -19.5 50.5q0 29 19.5 48.5t50.5 19.5t50.5 -19.5t19.5 -48.5q0 -31 -19.5 -50.5t-50.5 -19.5t-50.5 19.5z" />
    <glyph glyph-name="Ccaron" unicode="&#x10c;" horiz-adv-x="721" 
d="M194.5 23.5q-77.5 45.5 -119.5 130.5t-42 200t39.5 200t113 130.5t172.5 45.5q113 0 189.5 -67t98.5 -186l-113 -25q-14 83 -61 128.5t-115 45.5q-94 0 -149 -73t-55 -199q1 -126 61 -198.5t164 -72.5q84 0 140.5 55.5t70.5 151.5l113 -24q-12 -88 -56 -153t-113 -100
t-155 -35q-106 0 -183.5 45.5zM220 903l29 27l106 -110l106 110l29 -27l-108 -113h-54z" />
    <glyph glyph-name="ccaron" unicode="&#x10d;" horiz-adv-x="530" 
d="M145 16q-56 33 -86.5 94t-30.5 142t29 143t81.5 96t121.5 34q82 0 140.5 -47t75.5 -127l-102 -25q-11 50 -42 78.5t-71 28.5q-56 0 -90.5 -48.5t-34.5 -130.5t38.5 -130.5t100.5 -48.5q52 0 89 35.5t45 95.5l102 -20q-13 -92 -78 -147.5t-158 -55.5q-74 0 -130 33z
M107 733l29 27l124 -129l125 129l29 -27l-127 -133h-54z" />
    <glyph glyph-name="Ccedilla" unicode="&#xc7;" horiz-adv-x="721" 
d="M601.5 60q-82.5 -77 -206.5 -82l-3 -26q44 -3 70 -23t26 -55q0 -36 -25 -57.5t-66 -21.5q-29 0 -55 15t-39 38l31 25q8 -17 26 -27.5t37 -10.5q23 0 37 10t14 27q0 19 -18 31t-47 12h-35l7 64q-99 4 -171.5 51t-111.5 130t-39 194q0 115 39.5 200t113 130.5t172.5 45.5
q113 0 189.5 -67t98.5 -186l-113 -25q-14 83 -61 128.5t-115 45.5q-94 0 -149 -73t-55 -199q1 -126 61 -198.5t164 -72.5q84 0 140.5 55.5t70.5 151.5l113 -24q-18 -129 -100.5 -206z" />
    <glyph glyph-name="ccedilla" unicode="&#xe7;" horiz-adv-x="530" 
d="M438.5 43.5q-59.5 -55.5 -146.5 -60.5l-4 -31q44 -3 70 -23t26 -55q0 -36 -25 -57.5t-66 -21.5q-29 0 -55 15t-39 38l31 25q8 -17 26 -27.5t37 -10.5q23 0 37 10t14 27q0 19 -18 31t-47 12h-35l8 69q-67 5 -118 39.5t-78.5 93t-27.5 134.5q0 82 29 144t81.5 96t121.5 34
q82 0 140.5 -47t75.5 -127l-102 -25q-11 50 -42 78.5t-71 28.5q-56 0 -90.5 -48.5t-34.5 -130.5t38.5 -130.5t100.5 -48.5q52 0 89 35.5t45 95.5l102 -20q-13 -87 -72.5 -142.5z" />
    <glyph glyph-name="Ccircumflex" unicode="&#x108;" horiz-adv-x="721" 
d="M194.5 23.5q-77.5 45.5 -119.5 130.5t-42 200t39.5 200t113 130.5t172.5 45.5q113 0 189.5 -67t98.5 -186l-113 -25q-14 83 -61 128.5t-115 45.5q-94 0 -149 -73t-55 -199q1 -126 61 -198.5t164 -72.5q84 0 140.5 55.5t70.5 151.5l113 -24q-12 -88 -56 -153t-113 -100
t-155 -35q-106 0 -183.5 45.5zM221 807l108 113h54l108 -113l-29 -27l-106 109l-106 -109z" />
    <glyph glyph-name="ccircumflex" unicode="&#x109;" horiz-adv-x="530" 
d="M145 16q-56 33 -86.5 94t-30.5 142t29 143t81.5 96t121.5 34q82 0 140.5 -47t75.5 -127l-102 -25q-11 50 -42 78.5t-71 28.5q-56 0 -90.5 -48.5t-34.5 -130.5t38.5 -130.5t100.5 -48.5q52 0 89 35.5t45 95.5l102 -20q-13 -92 -78 -147.5t-158 -55.5q-74 0 -130 33z
M108 617l126 133h54l127 -133l-29 -27l-125 130l-124 -130z" />
    <glyph glyph-name="Dcaron" unicode="&#x10e;" horiz-adv-x="692" 
d="M57 708h251q170 0 260.5 -91.5t90.5 -262.5t-90.5 -262.5t-260.5 -91.5h-251v708zM308 102q112 0 172 65t60 187q0 121 -60 186.5t-172 65.5h-132v-504h132zM190 903l29 27l106 -110l106 110l29 -27l-108 -113h-54z" />
    <glyph glyph-name="dcaron" unicode="&#x10f;" horiz-adv-x="565" 
d="M132.5 17.5q-49.5 33.5 -77 94.5t-27.5 142t27.5 142t77 94.5t114.5 33.5q53 0 94.5 -23t67.5 -67h1v304h108v-738h-92l-13 77h-1q-25 -45 -68 -69t-97 -24q-65 0 -114.5 33.5zM375.5 129q38.5 48 38.5 125t-38.5 124.5t-100.5 47.5t-100.5 -47.5t-38.5 -124.5
q0 -78 38.5 -125.5t100.5 -47.5t100.5 48zM575 584q12 -3 23 -3q24 0 38.5 11.5t13.5 33.5q-13 -5 -25 -5q-25 0 -43 16.5t-18 40.5q0 22 15.5 36.5t40.5 14.5q31 0 51 -25.5t20 -67.5q0 -45 -24.5 -68.5t-66.5 -23.5q-16 0 -32 3z" />
    <glyph glyph-name="Dcroat" unicode="&#x110;" horiz-adv-x="740" 
d="M616 616.5q91 -91.5 91 -262.5t-91 -262.5t-261 -91.5h-250v383h-105v40h105v285h251q169 0 260 -91.5zM527 167q60 65 60 187q0 121 -60 186.5t-172 65.5h-131v-183h157v-40h-157v-281h131q112 0 172 65z" />
    <glyph glyph-name="dcroat" unicode="&#x111;" horiz-adv-x="566" 
d="M605 602h-87v-602h-92l-13 77h-1q-25 -45 -68 -69t-97 -24q-65 0 -114.5 33.5t-77 94.5t-27.5 142t27.5 142t77 94.5t114.5 33.5q53 0 94.5 -23t67.5 -67h1v168h-166v40h166v96h108v-96h87v-40zM375.5 129q38.5 48 38.5 125t-38.5 124.5t-100.5 47.5t-100.5 -47.5
t-38.5 -124.5q0 -78 38.5 -125.5t100.5 -47.5t100.5 48z" />
    <glyph glyph-name="Egrave" unicode="&#xc8;" horiz-adv-x="532" 
d="M57 708h441v-102h-324v-195h284v-94h-284v-215h334v-102h-451v708zM205 908l33 21l78 -129l-33 -21z" />
    <glyph glyph-name="egrave" unicode="&#xe8;" horiz-adv-x="535" 
d="M153.5 17q-59.5 34 -92.5 97t-33 146q0 79 30 139t84.5 93t126.5 33q70 0 122.5 -32.5t81 -92t28.5 -138.5q0 -27 -3 -41h-361q7 -68 48.5 -108t106.5 -40q48 0 83 22.5t52 62.5l87 -38q-22 -63 -82.5 -100t-139.5 -37t-138.5 34zM389 301q-5 65 -36 99.5t-84 34.5
q-56 0 -89.5 -35.5t-41.5 -98.5h251zM171 749l34 21l93 -149l-34 -21z" />
    <glyph glyph-name="Eacute" unicode="&#xc9;" horiz-adv-x="532" 
d="M57 708h441v-102h-324v-195h284v-94h-284v-215h334v-102h-451v708zM267 800l78 129l33 -21l-78 -129z" />
    <glyph glyph-name="eacute" unicode="&#xe9;" horiz-adv-x="535" 
d="M153.5 17q-59.5 34 -92.5 97t-33 146q0 79 30 139t84.5 93t126.5 33q70 0 122.5 -32.5t81 -92t28.5 -138.5q0 -27 -3 -41h-361q7 -68 48.5 -108t106.5 -40q48 0 83 22.5t52 62.5l87 -38q-22 -63 -82.5 -100t-139.5 -37t-138.5 34zM389 301q-5 65 -36 99.5t-84 34.5
q-56 0 -89.5 -35.5t-41.5 -98.5h251zM243 621l93 149l34 -21l-94 -149z" />
    <glyph glyph-name="Ecaron" unicode="&#x11a;" horiz-adv-x="532" 
d="M57 708h441v-102h-324v-195h284v-94h-284v-215h334v-102h-451v708zM150 903l29 27l106 -110l106 110l29 -27l-108 -113h-54z" />
    <glyph glyph-name="ecaron" unicode="&#x11b;" horiz-adv-x="535" 
d="M153.5 17q-59.5 34 -92.5 97t-33 146q0 79 30 139t84.5 93t126.5 33q70 0 122.5 -32.5t81 -92t28.5 -138.5q0 -27 -3 -41h-361q7 -68 48.5 -108t106.5 -40q48 0 83 22.5t52 62.5l87 -38q-22 -63 -82.5 -100t-139.5 -37t-138.5 34zM389 301q-5 65 -36 99.5t-84 34.5
q-56 0 -89.5 -35.5t-41.5 -98.5h251zM113 733l29 27l124 -129l125 129l29 -27l-127 -133h-54z" />
    <glyph glyph-name="Ecircumflex" unicode="&#xca;" horiz-adv-x="532" 
d="M57 708h441v-102h-324v-195h284v-94h-284v-215h334v-102h-451v708zM150 807l108 113h54l108 -113l-29 -27l-106 109l-106 -109z" />
    <glyph glyph-name="ecircumflex" unicode="&#xea;" horiz-adv-x="535" 
d="M153.5 17q-59.5 34 -92.5 97t-33 146q0 79 30 139t84.5 93t126.5 33q70 0 122.5 -32.5t81 -92t28.5 -138.5q0 -27 -3 -41h-361q7 -68 48.5 -108t106.5 -40q48 0 83 22.5t52 62.5l87 -38q-22 -63 -82.5 -100t-139.5 -37t-138.5 34zM389 301q-5 65 -36 99.5t-84 34.5
q-56 0 -89.5 -35.5t-41.5 -98.5h251zM114 617l126 133h54l127 -133l-29 -27l-125 130l-124 -130z" />
    <glyph glyph-name="Edieresis" unicode="&#xcb;" horiz-adv-x="532" 
d="M57 708h441v-102h-324v-195h284v-94h-284v-215h334v-102h-451v708zM119 814.5q-19 18.5 -19 49.5q0 29 19 48t50 19q30 0 49.5 -19t19.5 -48q0 -30 -19.5 -49t-49.5 -19q-31 0 -50 18.5zM355.5 814.5q-18.5 18.5 -18.5 49.5q0 30 19 48.5t49 18.5t49 -19t19 -48
q0 -31 -19 -49.5t-49 -18.5q-31 0 -49.5 18.5z" />
    <glyph glyph-name="edieresis" unicode="&#xeb;" horiz-adv-x="535" 
d="M153.5 17q-59.5 34 -92.5 97t-33 146q0 79 30 139t84.5 93t126.5 33q70 0 122.5 -32.5t81 -92t28.5 -138.5q0 -27 -3 -41h-361q7 -68 48.5 -108t106.5 -40q48 0 83 22.5t52 62.5l87 -38q-22 -63 -82.5 -100t-139.5 -37t-138.5 34zM389 301q-5 65 -36 99.5t-84 34.5
q-56 0 -89.5 -35.5t-41.5 -98.5h251zM104 619q-19 19 -19 48t19 47.5t49 18.5t49.5 -18.5t19.5 -47.5t-19.5 -48t-49.5 -19t-49 19zM330 619q-19 19 -19 48t19 47.5t49 18.5t49.5 -18.5t19.5 -47.5t-19.5 -48t-49.5 -19t-49 19z" />
    <glyph glyph-name="Emacron" unicode="&#x112;" horiz-adv-x="532" 
d="M57 708h441v-102h-324v-195h284v-94h-284v-215h334v-102h-451v708zM146 839h281v-40h-281v40z" />
    <glyph glyph-name="emacron" unicode="&#x113;" horiz-adv-x="535" 
d="M153.5 17q-59.5 34 -92.5 97t-33 146q0 79 30 139t84.5 93t126.5 33q70 0 122.5 -32.5t81 -92t28.5 -138.5q0 -27 -3 -41h-361q7 -68 48.5 -108t106.5 -40q48 0 83 22.5t52 62.5l87 -38q-22 -63 -82.5 -100t-139.5 -37t-138.5 34zM389 301q-5 65 -36 99.5t-84 34.5
q-56 0 -89.5 -35.5t-41.5 -98.5h251zM126 639h281v-40h-281v40z" />
    <glyph glyph-name="Ebreve" unicode="&#x114;" horiz-adv-x="532" 
d="M57 708h441v-102h-324v-195h284v-94h-284v-215h334v-102h-451v708zM198.5 826.5q-35.5 36.5 -35.5 93.5h40q0 -39 24 -64.5t61 -25.5t61 25.5t24 64.5h40q0 -56 -35 -93t-90 -37q-54 0 -89.5 36.5z" />
    <glyph glyph-name="ebreve" unicode="&#x115;" horiz-adv-x="535" 
d="M153.5 17q-59.5 34 -92.5 97t-33 146q0 79 30 139t84.5 93t126.5 33q70 0 122.5 -32.5t81 -92t28.5 -138.5q0 -27 -3 -41h-361q7 -68 48.5 -108t106.5 -40q48 0 83 22.5t52 62.5l87 -38q-22 -63 -82.5 -100t-139.5 -37t-138.5 34zM389 301q-5 65 -36 99.5t-84 34.5
q-56 0 -89.5 -35.5t-41.5 -98.5h251zM162.5 635q-40.5 45 -40.5 115h40q0 -52 29.5 -86t74.5 -34q46 0 76 33.5t30 86.5h40q0 -70 -41 -115t-104 -45q-64 0 -104.5 45z" />
    <glyph glyph-name="Edotaccent" unicode="&#x116;" horiz-adv-x="532" 
d="M57 708h441v-102h-324v-195h284v-94h-284v-215h334v-102h-451v708zM235.5 815q-19.5 19 -19.5 50q0 30 19.5 49t50.5 19t51 -19t20 -49q0 -31 -19.5 -50t-51.5 -19q-31 0 -50.5 19z" />
    <glyph glyph-name="edotaccent" unicode="&#x117;" horiz-adv-x="535" 
d="M153.5 17q-59.5 34 -92.5 97t-33 146q0 79 30 139t84.5 93t126.5 33q70 0 122.5 -32.5t81 -92t28.5 -138.5q0 -27 -3 -41h-361q7 -68 48.5 -108t106.5 -40q48 0 83 22.5t52 62.5l87 -38q-22 -63 -82.5 -100t-139.5 -37t-138.5 34zM389 301q-5 65 -36 99.5t-84 34.5
q-56 0 -89.5 -35.5t-41.5 -98.5h251zM216.5 617.5q-19.5 19.5 -19.5 50.5q0 29 19.5 48.5t50.5 19.5t50.5 -19.5t19.5 -48.5q0 -31 -19.5 -50.5t-50.5 -19.5t-50.5 19.5z" />
    <glyph glyph-name="Eogonek" unicode="&#x118;" horiz-adv-x="532" 
d="M381.5 -55.5q-38.5 -24.5 -38.5 -63.5q0 -21 13.5 -33.5t35.5 -12.5q16 0 34.5 10t34.5 26l28 -26q-19 -23 -46.5 -36.5t-52.5 -13.5q-40 0 -64 22.5t-24 59.5q0 40 27 69t80 54h-352v708h441v-102h-324v-195h284v-94h-284v-215h334v-102q-88 -31 -126.5 -55.5z" />
    <glyph glyph-name="eogonek" unicode="&#x119;" horiz-adv-x="535" 
d="M468 48q-32 -31 -77 -48q-88 -31 -126.5 -55.5t-38.5 -63.5q0 -21 13.5 -33.5t35.5 -12.5q16 0 34.5 10t34.5 26l28 -26q-19 -23 -46.5 -36.5t-52.5 -13.5q-40 0 -64 22.5t-24 59.5q0 64 76 107q-107 11 -170 85t-63 191q0 79 30 139t84.5 93t126.5 33q70 0 122.5 -32.5
t81 -92t28.5 -138.5q0 -27 -3 -41h-361q7 -68 48.5 -108t106.5 -40q48 0 83 22.5t52 62.5l87 -38q-14 -41 -46 -72zM179.5 399.5q-33.5 -35.5 -41.5 -98.5h251q-5 65 -36 99.5t-84 34.5q-56 0 -89.5 -35.5z" />
    <glyph glyph-name="Gcircumflex" unicode="&#x11c;" horiz-adv-x="767" 
d="M191 24.5q-75 46.5 -116.5 132t-41.5 197.5t42 197.5t119.5 132t179.5 46.5q101 0 179.5 -57t109.5 -152l-113 -30q-21 61 -69.5 98t-108.5 37q-65 0 -114.5 -33.5t-76.5 -95t-27 -142.5q0 -82 29 -143.5t82.5 -95.5t123.5 -34q64 0 113.5 27.5t78 77.5t28.5 115h-307v94
h426v-396h-94l-12 116h-1q-40 -65 -107 -101.5t-148 -36.5q-100 0 -175 46.5zM237 807l108 113h54l108 -113l-29 -27l-106 109l-106 -109z" />
    <glyph glyph-name="Gcircumflex.alt1" horiz-adv-x="771" 
d="M203.5 24q-81.5 47 -126 132.5t-44.5 197.5t42 197.5t119.5 132t179.5 46.5q101 0 180 -56t108 -149l-112 -30q-20 59 -68.5 95t-109.5 36q-65 0 -115 -33.5t-77 -95t-27 -142.5q0 -82 30 -143.5t84.5 -95.5t125.5 -34q64 0 114 27.5t79.5 77.5t31.5 115h-315v94h433
q2 -17 2 -49q0 -112 -42.5 -195.5t-120.5 -129t-183 -45.5q-107 0 -188.5 47zM238 807l108 113h54l108 -113l-29 -27l-106 109l-106 -109z" />
    <glyph glyph-name="gcircumflex" unicode="&#x11d;" horiz-adv-x="562" 
d="M98 -196q-69 31 -103 83l67 73q28 -42 76 -67.5t101 -25.5q77 0 122 45t45 121v54h-1q-24 -41 -68 -67.5t-91 -26.5q-64 0 -113.5 33t-76.5 92.5t-27 138.5t27 139.5t76 94t113 33.5q50 0 94.5 -25t66.5 -66h1l13 75h95v-476q0 -79 -33 -137.5t-93.5 -90t-141.5 -31.5
q-80 0 -149 31zM372 134q38 48 38 123q0 77 -37.5 125.5t-98.5 48.5t-99 -48t-38 -126q0 -77 38 -124t99 -47q60 0 98 48zM117 617l126 133h54l127 -133l-29 -27l-125 130l-124 -130z" />
    <glyph glyph-name="Gbreve" unicode="&#x11e;" horiz-adv-x="767" 
d="M191 24.5q-75 46.5 -116.5 132t-41.5 197.5t42 197.5t119.5 132t179.5 46.5q101 0 179.5 -57t109.5 -152l-113 -30q-21 61 -69.5 98t-108.5 37q-65 0 -114.5 -33.5t-76.5 -95t-27 -142.5q0 -82 29 -143.5t82.5 -95.5t123.5 -34q64 0 113.5 27.5t78 77.5t28.5 115h-307v94
h426v-396h-94l-12 116h-1q-40 -65 -107 -101.5t-148 -36.5q-100 0 -175 46.5zM285.5 826.5q-35.5 36.5 -35.5 93.5h40q0 -39 24 -64.5t61 -25.5t61 25.5t24 64.5h40q0 -56 -35 -93t-90 -37q-54 0 -89.5 36.5z" />
    <glyph glyph-name="Gbreve.alt1" horiz-adv-x="771" 
d="M203.5 24q-81.5 47 -126 132.5t-44.5 197.5t42 197.5t119.5 132t179.5 46.5q101 0 180 -56t108 -149l-112 -30q-20 59 -68.5 95t-109.5 36q-65 0 -115 -33.5t-77 -95t-27 -142.5q0 -82 30 -143.5t84.5 -95.5t125.5 -34q64 0 114 27.5t79.5 77.5t31.5 115h-315v94h433
q2 -17 2 -49q0 -112 -42.5 -195.5t-120.5 -129t-183 -45.5q-107 0 -188.5 47zM285.5 826.5q-35.5 36.5 -35.5 93.5h40q0 -39 24 -64.5t61 -25.5t61 25.5t24 64.5h40q0 -56 -35 -93t-90 -37q-54 0 -89.5 36.5z" />
    <glyph glyph-name="gbreve" unicode="&#x11f;" horiz-adv-x="562" 
d="M98 -196q-69 31 -103 83l67 73q28 -42 76 -67.5t101 -25.5q77 0 122 45t45 121v54h-1q-24 -41 -68 -67.5t-91 -26.5q-64 0 -113.5 33t-76.5 92.5t-27 138.5t27 139.5t76 94t113 33.5q50 0 94.5 -25t66.5 -66h1l13 75h95v-476q0 -79 -33 -137.5t-93.5 -90t-141.5 -31.5
q-80 0 -149 31zM372 134q38 48 38 123q0 77 -37.5 125.5t-98.5 48.5t-99 -48t-38 -126q0 -77 38 -124t99 -47q60 0 98 48zM165.5 635q-40.5 45 -40.5 115h40q0 -52 29.5 -86t74.5 -34q46 0 76 33.5t30 86.5h40q0 -70 -41 -115t-104 -45q-64 0 -104.5 45z" />
    <glyph glyph-name="Gdotaccent" unicode="&#x120;" horiz-adv-x="767" 
d="M191 24.5q-75 46.5 -116.5 132t-41.5 197.5t42 197.5t119.5 132t179.5 46.5q101 0 179.5 -57t109.5 -152l-113 -30q-21 61 -69.5 98t-108.5 37q-65 0 -114.5 -33.5t-76.5 -95t-27 -142.5q0 -82 29 -143.5t82.5 -95.5t123.5 -34q64 0 113.5 27.5t78 77.5t28.5 115h-307v94
h426v-396h-94l-12 116h-1q-40 -65 -107 -101.5t-148 -36.5q-100 0 -175 46.5zM322.5 815q-19.5 19 -19.5 50q0 30 19.5 49t50.5 19t51 -19t20 -49q0 -31 -19.5 -50t-51.5 -19q-31 0 -50.5 19z" />
    <glyph glyph-name="Gdotaccent.alt1" horiz-adv-x="771" 
d="M203.5 24q-81.5 47 -126 132.5t-44.5 197.5t42 197.5t119.5 132t179.5 46.5q101 0 180 -56t108 -149l-112 -30q-20 59 -68.5 95t-109.5 36q-65 0 -115 -33.5t-77 -95t-27 -142.5q0 -82 30 -143.5t84.5 -95.5t125.5 -34q64 0 114 27.5t79.5 77.5t31.5 115h-315v94h433
q2 -17 2 -49q0 -112 -42.5 -195.5t-120.5 -129t-183 -45.5q-107 0 -188.5 47zM322.5 815q-19.5 19 -19.5 50q0 30 19.5 49t50.5 19t51 -19t20 -49q0 -31 -19.5 -50t-51.5 -19q-31 0 -50.5 19z" />
    <glyph glyph-name="gdotaccent" unicode="&#x121;" horiz-adv-x="562" 
d="M98 -196q-69 31 -103 83l67 73q28 -42 76 -67.5t101 -25.5q77 0 122 45t45 121v54h-1q-24 -41 -68 -67.5t-91 -26.5q-64 0 -113.5 33t-76.5 92.5t-27 138.5t27 139.5t76 94t113 33.5q50 0 94.5 -25t66.5 -66h1l13 75h95v-476q0 -79 -33 -137.5t-93.5 -90t-141.5 -31.5
q-80 0 -149 31zM372 134q38 48 38 123q0 77 -37.5 125.5t-98.5 48.5t-99 -48t-38 -126q0 -77 38 -124t99 -47q60 0 98 48zM219.5 617.5q-19.5 19.5 -19.5 50.5q0 29 19.5 48.5t50.5 19.5t50.5 -19.5t19.5 -48.5q0 -31 -19.5 -50.5t-50.5 -19.5t-50.5 19.5z" />
    <glyph glyph-name="uni0122" unicode="&#x122;" horiz-adv-x="767" 
d="M191 24.5q-75 46.5 -116.5 132t-41.5 197.5t42 197.5t119.5 132t179.5 46.5q101 0 179.5 -57t109.5 -152l-113 -30q-21 61 -69.5 98t-108.5 37q-65 0 -114.5 -33.5t-76.5 -95t-27 -142.5q0 -82 29 -143.5t82.5 -95.5t123.5 -34q64 0 113.5 27.5t78 77.5t28.5 115h-307v94
h426v-396h-94l-12 116h-1q-40 -65 -107 -101.5t-148 -36.5q-100 0 -175 46.5zM335 -214q12 -3 23 -3q24 0 38.5 11.5t13.5 33.5q-13 -5 -25 -5q-25 0 -43 16.5t-18 40.5q0 22 15.5 36.5t40.5 14.5q31 0 51 -25.5t20 -67.5q0 -45 -24.5 -68.5t-66.5 -23.5q-16 0 -32 3z" />
    <glyph glyph-name="uni0122.alt1" horiz-adv-x="771" 
d="M203.5 24q-81.5 47 -126 132.5t-44.5 197.5t42 197.5t119.5 132t179.5 46.5q101 0 180 -56t108 -149l-112 -30q-20 59 -68.5 95t-109.5 36q-65 0 -115 -33.5t-77 -95t-27 -142.5q0 -82 30 -143.5t84.5 -95.5t125.5 -34q64 0 114 27.5t79.5 77.5t31.5 115h-315v94h433
q2 -17 2 -49q0 -112 -42.5 -195.5t-120.5 -129t-183 -45.5q-107 0 -188.5 47zM345 -214q12 -3 23 -3q24 0 38.5 11.5t13.5 33.5q-13 -5 -25 -5q-25 0 -43 16.5t-18 40.5q0 22 15.5 36.5t40.5 14.5q31 0 51 -25.5t20 -67.5q0 -45 -24.5 -68.5t-66.5 -23.5q-16 0 -32 3z" />
    <glyph glyph-name="uni0123" unicode="&#x123;" horiz-adv-x="562" 
d="M317 722q-12 3 -23 3q-24 0 -38.5 -11.5t-13.5 -33.5q13 5 25 5q25 0 43 -16.5t18 -40.5q0 -22 -15.5 -36.5t-40.5 -14.5q-31 0 -51 25.5t-20 67.5q0 45 24.5 68.5t66.5 23.5q15 0 32 -3zM98 -196q-69 31 -103 83l67 73q28 -42 76 -67.5t101 -25.5q77 0 122 45t45 121v54
h-1q-24 -41 -68 -67.5t-91 -26.5q-64 0 -113.5 33t-76.5 92.5t-27 138.5t27 139.5t76 94t113 33.5q50 0 94.5 -25t66.5 -66h1l13 75h95v-476q0 -79 -33 -137.5t-93.5 -90t-141.5 -31.5q-80 0 -149 31zM372 134q38 48 38 123q0 77 -37.5 125.5t-98.5 48.5t-99 -48t-38 -126
q0 -77 38 -124t99 -47q60 0 98 48z" />
    <glyph glyph-name="Igrave" unicode="&#xcc;" horiz-adv-x="235" 
d="M16 903l30 26l107 -124l-29 -26zM57 708h121v-708h-121v708z" />
    <glyph glyph-name="igrave" unicode="&#xec;" horiz-adv-x="202" 
d="M-18 738l31 26l128 -143l-30 -27zM47 508h108v-508h-108v508z" />
    <glyph glyph-name="Iacute" unicode="&#xcd;" horiz-adv-x="235" 
d="M82 805l107 124l29 -26l-107 -124zM57 708h121v-708h-121v708z" />
    <glyph glyph-name="iacute" unicode="&#xed;" horiz-adv-x="202" 
d="M61 621l128 143l31 -26l-129 -144zM47 508h108v-508h-108v508z" />
    <glyph glyph-name="Icircumflex" unicode="&#xce;" horiz-adv-x="235" 
d="M-4 805l94 115h54l95 -115l-31 -25l-92 109l-88 -109zM57 708h121v-708h-121v708z" />
    <glyph glyph-name="icircumflex" unicode="&#xee;" horiz-adv-x="202" 
d="M-31 614l104 136h54l105 -136l-32 -24l-100 129l-99 -129zM47 508h108v-508h-108v508z" />
    <glyph glyph-name="Idieresis" unicode="&#xcf;" horiz-adv-x="235" 
d="M-15 814.5q-19 18.5 -19 49.5q0 29 19 48t49 19q31 0 50.5 -19t19.5 -48q0 -31 -19.5 -49.5t-50.5 -18.5q-30 0 -49 18.5zM152 814.5q-19 18.5 -19 49.5q0 29 19 48t49 19t49.5 -19t19.5 -48q0 -30 -19.5 -49t-49.5 -19t-49 18.5zM57 708h121v-708h-121v708z" />
    <glyph glyph-name="idieresis" unicode="&#xef;" horiz-adv-x="202" 
d="M-31 616.5q-19 18.5 -19 49.5q0 30 19 48.5t50 18.5t50 -18.5t19 -48.5q0 -31 -19 -49.5t-50 -18.5t-50 18.5zM133 616.5q-19 18.5 -19 49.5q0 30 19 48.5t50 18.5t50.5 -18.5t19.5 -48.5q0 -31 -19.5 -49.5t-50.5 -18.5t-50 18.5zM47 508h108v-508h-108v508z" />
    <glyph glyph-name="Itilde" unicode="&#x128;" horiz-adv-x="235" 
d="M135.5 796q-16.5 16 -35.5 45q-16 23 -24 32.5t-19 9.5q-16 0 -26.5 -26t-10.5 -67h-40q0 59 20.5 96t56.5 37q25 0 42.5 -17t34.5 -46q14 -21 22 -30.5t19 -9.5q17 0 28.5 26.5t11.5 67.5h40q0 -59 -21 -96.5t-57 -37.5q-25 0 -41.5 16zM57 708h121v-708h-121v708z" />
    <glyph glyph-name="itilde" unicode="&#x129;" horiz-adv-x="202" 
d="M122 601q-16 14 -32 38q-4 6 -13.5 21t-17.5 22.5t-16 7.5q-16 0 -26.5 -26.5t-10.5 -66.5h-40q0 59 21 96t56 37q23 0 40 -15.5t33 -42.5q15 -25 23 -35t19 -10q17 0 28 26.5t11 67.5h40q0 -60 -21 -97t-56 -37q-22 0 -38 14zM47 508h108v-508h-108v508z" />
    <glyph glyph-name="Imacron" unicode="&#x12a;" horiz-adv-x="235" 
d="M14 839h207v-40h-207v40zM57 708h121v-708h-121v708z" />
    <glyph glyph-name="imacron" unicode="&#x12b;" horiz-adv-x="202" 
d="M3 639h196v-40h-196v40zM47 508h108v-508h-108v508z" />
    <glyph glyph-name="Iogonek" unicode="&#x12e;" horiz-adv-x="235" 
d="M178 708v-708h-4q-88 -31 -126.5 -55.5t-38.5 -63.5q0 -21 13.5 -33.5t35.5 -12.5q16 0 34.5 10t34.5 26l28 -26q-19 -23 -46.5 -36.5t-52.5 -13.5q-40 0 -64 22.5t-24 59.5q0 40 27 69t80 54h-18v708h121z" />
    <glyph glyph-name="iogonek" unicode="&#x12f;" horiz-adv-x="202" 
d="M56.5 614.5q-19.5 19.5 -19.5 51.5t19.5 51t51.5 19t52 -19.5t20 -50.5t-20 -51t-52 -20t-51.5 19.5zM53 508h108v-508h-2q-88 -31 -126.5 -55.5t-38.5 -63.5q0 -21 13.5 -33.5t35.5 -12.5q16 0 34.5 10t34.5 26l28 -26q-19 -23 -46.5 -36.5t-52.5 -13.5q-40 0 -64 22.5
t-24 59.5q0 40 27 69t80 54h-7v508z" />
    <glyph glyph-name="Idotaccent" unicode="&#x130;" horiz-adv-x="235" 
d="M57 708h121v-708h-121v708zM67.5 815q-19.5 19 -19.5 50q0 30 19.5 49t50.5 19t51 -19t20 -49q0 -31 -19.5 -50t-51.5 -19q-31 0 -50.5 19z" />
    <glyph glyph-name="dotlessi" unicode="&#x131;" horiz-adv-x="202" 
d="M47 508h108v-508h-108v508z" />
    <glyph glyph-name="IJ" unicode="&#x132;" horiz-adv-x="726" 
d="M57 708h121v-708h-121v708zM320.5 29.5q-56.5 49.5 -67.5 139.5l105 42q4 -62 32.5 -96t75.5 -34q43 0 67 28.5t24 81.5v517h121v-526q0 -97 -54.5 -149.5t-152.5 -52.5q-94 0 -150.5 49.5z" />
    <glyph glyph-name="ij" unicode="&#x133;" horiz-adv-x="431" 
d="M56.5 614.5q-19.5 19.5 -19.5 51.5t19.5 51t51.5 19t52 -19.5t20 -50.5t-20 -51t-52 -20t-51.5 19.5zM53 508h108v-508h-108v508zM271 615q-20 20 -20 51t20 50.5t51 19.5q32 0 52 -19.5t20 -50.5t-20 -51t-52 -20q-31 0 -51 20zM135 -211l15 85q23 -11 50 -11
q32 0 50 20t18 55v570h109v-581q0 -73 -41.5 -113.5t-114.5 -40.5q-51 0 -86 16z" />
    <glyph glyph-name="IJacute" horiz-adv-x="726" 
d="M83 805l106 124l30 -26l-107 -124zM582 805l107 124l29 -26l-107 -124zM57 708h121v-708h-121v708zM320.5 29.5q-56.5 49.5 -67.5 139.5l105 42q4 -62 32.5 -96t75.5 -34q43 0 67 28.5t24 81.5v517h121v-526q0 -97 -54.5 -149.5t-152.5 -52.5q-94 0 -150.5 49.5z" />
    <glyph glyph-name="ijacute" horiz-adv-x="409" 
d="M60 621l128 143l31 -26l-129 -144zM272 621l128 143l30 -26l-128 -144zM47 508h108v-508h-108v508zM121 -211l14 85q23 -11 51 -11q32 0 50 20t18 55v570h108v-581q0 -73 -41 -113.5t-114 -40.5q-53 0 -86 16z" />
    <glyph glyph-name="uni0237" unicode="&#x237;" horiz-adv-x="207" 
d="M-81 -211l15 85q23 -11 50 -11q32 0 50 20t18 55v570h109v-581q0 -73 -41.5 -113.5t-114.5 -40.5q-51 0 -86 16z" />
    <glyph glyph-name="uni0136" unicode="&#x136;" horiz-adv-x="593" 
d="M57 708h121v-305h1l248 305h144l-238 -285l251 -423h-138l-191 333l-77 -91v-242h-121v708zM255 -214q12 -3 23 -3q24 0 38.5 11.5t13.5 33.5q-13 -5 -25 -5q-25 0 -43 16.5t-18 40.5q0 22 15.5 36.5t40.5 14.5q31 0 51 -25.5t20 -67.5q0 -45 -24.5 -68.5t-66.5 -23.5
q-16 0 -32 3z" />
    <glyph glyph-name="uni0136.alt1" horiz-adv-x="584" 
d="M57 708h121v-303h1l246 303h146l-288 -342l301 -366h-151l-254 324h-1v-324h-121v708zM255 -214q12 -3 23 -3q24 0 38.5 11.5t13.5 33.5q-13 -5 -25 -5q-25 0 -43 16.5t-18 40.5q0 22 15.5 36.5t40.5 14.5q31 0 51 -25.5t20 -67.5q0 -45 -24.5 -68.5t-66.5 -23.5
q-16 0 -32 3z" />
    <glyph glyph-name="uni0137" unicode="&#x137;" horiz-adv-x="471" 
d="M47 738h108v-430h1l171 200h132l-173 -193l185 -315h-122l-134 239l-60 -68v-171h-108v738zM189 -214q12 -3 23 -3q24 0 38.5 11.5t13.5 33.5q-13 -5 -25 -5q-25 0 -43 16.5t-18 40.5q0 22 15.5 36.5t40.5 14.5q31 0 51 -25.5t20 -67.5q0 -45 -24.5 -68.5t-66.5 -23.5
q-16 0 -32 3z" />
    <glyph glyph-name="uni0137.alt1" horiz-adv-x="470" 
d="M47 738h108v-437h1l169 207h132l-201 -234l214 -274h-132l-182 243h-1v-243h-108v738zM189 -214q12 -3 23 -3q24 0 38.5 11.5t13.5 33.5q-13 -5 -25 -5q-25 0 -43 16.5t-18 40.5q0 22 15.5 36.5t40.5 14.5q31 0 51 -25.5t20 -67.5q0 -45 -24.5 -68.5t-66.5 -23.5
q-16 0 -32 3z" />
    <glyph glyph-name="Lacute" unicode="&#x139;" horiz-adv-x="477" 
d="M57 708h121v-604h287v-104h-408v708zM99 800l78 129l33 -21l-78 -129z" />
    <glyph glyph-name="lacute" unicode="&#x13a;" horiz-adv-x="202" 
d="M47 738h108v-738h-108v738zM83 800l78 129l33 -21l-78 -129z" />
    <glyph glyph-name="Lcaron" unicode="&#x13d;" horiz-adv-x="477" 
d="M57 708h121v-604h287v-104h-408v708zM283 584q12 -3 23 -3q24 0 38.5 11.5t13.5 33.5q-13 -5 -25 -5q-25 0 -43 16.5t-18 40.5q0 22 15.5 36.5t40.5 14.5q31 0 51 -25.5t20 -67.5q0 -45 -24.5 -68.5t-66.5 -23.5q-16 0 -32 3z" />
    <glyph glyph-name="lcaron" unicode="&#x13e;" horiz-adv-x="202" 
d="M47 738h108v-738h-108v738zM211 584q12 -3 23 -3q24 0 38.5 11.5t13.5 33.5q-13 -5 -25 -5q-25 0 -43 16.5t-18 40.5q0 22 15.5 36.5t40.5 14.5q31 0 51 -25.5t20 -67.5q0 -45 -24.5 -68.5t-66.5 -23.5q-16 0 -32 3z" />
    <glyph glyph-name="uni013B" unicode="&#x13b;" horiz-adv-x="477" 
d="M57 708h121v-604h287v-104h-408v708zM216 -214q12 -3 23 -3q24 0 38.5 11.5t13.5 33.5q-13 -5 -25 -5q-25 0 -43 16.5t-18 40.5q0 22 15.5 36.5t40.5 14.5q31 0 51 -25.5t20 -67.5q0 -45 -24.5 -68.5t-66.5 -23.5q-16 0 -32 3z" />
    <glyph glyph-name="uni013C" unicode="&#x13c;" horiz-adv-x="202" 
d="M47 738h108v-738h-108v738zM53 -214q12 -3 23 -3q24 0 38.5 11.5t13.5 33.5q-13 -5 -25 -5q-25 0 -43 16.5t-18 40.5q0 22 15.5 36.5t40.5 14.5q31 0 51 -25.5t20 -67.5q0 -45 -24.5 -68.5t-66.5 -23.5q-16 0 -32 3z" />
    <glyph glyph-name="Lslash" unicode="&#x141;" horiz-adv-x="559" 
d="M548 104v-104h-408v315l-120 -70l-20 35l140 82v346h121v-276l177 103l20 -35l-197 -115v-281h287z" />
    <glyph glyph-name="lslash" unicode="&#x142;" horiz-adv-x="388" 
d="M248 401v-401h-108v331l-120 -78l-20 35l140 91v359h108v-289l121 78l20 -35z" />
    <glyph glyph-name="Nacute" unicode="&#x143;" horiz-adv-x="666" 
d="M57 708h157l276 -556h2v556h116v-708h-156l-276 555h-2v-555h-117v708zM319 800l78 129l33 -21l-78 -129z" />
    <glyph glyph-name="nacute" unicode="&#x144;" 
d="M435 478.5q42 -45.5 42 -126.5v-352h-108v335q0 46 -24.5 72t-65.5 26q-56 0 -90 -36t-34 -96v-301h-108v508h93l13 -72h1q27 43 68.5 65.5t96.5 22.5q74 0 116 -45.5zM247 621l93 149l34 -21l-94 -149z" />
    <glyph glyph-name="Ncaron" unicode="&#x147;" horiz-adv-x="666" 
d="M57 708h157l276 -556h2v556h116v-708h-156l-276 555h-2v-555h-117v708zM202 903l29 27l106 -110l106 110l29 -27l-108 -113h-54z" />
    <glyph glyph-name="ncaron" unicode="&#x148;" 
d="M435 478.5q42 -45.5 42 -126.5v-352h-108v335q0 46 -24.5 72t-65.5 26q-56 0 -90 -36t-34 -96v-301h-108v508h93l13 -72h1q27 43 68.5 65.5t96.5 22.5q74 0 116 -45.5zM117 733l29 27l124 -129l125 129l29 -27l-127 -133h-54z" />
    <glyph glyph-name="Ntilde" unicode="&#xd1;" horiz-adv-x="666" 
d="M57 708h157l276 -556h2v556h116v-708h-156l-276 555h-2v-555h-117v708zM370.5 789.5q-15.5 9.5 -29.5 25.5t-25 31q-14 18 -24.5 27.5t-22.5 9.5q-20 0 -33 -26t-13 -67h-40q0 58 24 95.5t63 37.5q27 0 44.5 -15.5t38.5 -44.5q17 -23 27.5 -33t23.5 -10q21 0 35 26.5
t14 67.5h40q0 -59 -24 -96.5t-63 -37.5q-20 0 -35.5 9.5z" />
    <glyph glyph-name="ntilde" unicode="&#xf1;" 
d="M435 478.5q42 -45.5 42 -126.5v-352h-108v335q0 46 -24.5 72t-65.5 26q-56 0 -90 -36t-34 -96v-301h-108v508h93l13 -72h1q27 43 68.5 65.5t96.5 22.5q74 0 116 -45.5zM295.5 604.5q-18.5 14.5 -37.5 39.5q-19 26 -30 37.5t-26 11.5q-20 0 -33 -26t-13 -67h-40
q0 58 24 95.5t63 37.5q25 0 43 -14.5t37 -40.5q18 -25 29 -36.5t25 -11.5q21 0 35 26.5t14 67.5h40q0 -59 -24 -96.5t-63 -37.5q-25 0 -43.5 14.5z" />
    <glyph glyph-name="uni0145" unicode="&#x145;" horiz-adv-x="666" 
d="M57 708h157l276 -556h2v556h116v-708h-156l-276 555h-2v-555h-117v708zM287 -214q12 -3 23 -3q24 0 38.5 11.5t13.5 33.5q-13 -5 -25 -5q-25 0 -43 16.5t-18 40.5q0 22 15.5 36.5t40.5 14.5q31 0 51 -25.5t20 -67.5q0 -45 -24.5 -68.5t-66.5 -23.5q-16 0 -32 3z" />
    <glyph glyph-name="uni0146" unicode="&#x146;" 
d="M435 478.5q42 -45.5 42 -126.5v-352h-108v335q0 46 -24.5 72t-65.5 26q-56 0 -90 -36t-34 -96v-301h-108v508h93l13 -72h1q27 43 68.5 65.5t96.5 22.5q74 0 116 -45.5zM215 -214q12 -3 23 -3q24 0 38.5 11.5t13.5 33.5q-13 -5 -25 -5q-25 0 -43 16.5t-18 40.5
q0 22 15.5 36.5t40.5 14.5q31 0 51 -25.5t20 -67.5q0 -45 -24.5 -68.5t-66.5 -23.5q-16 0 -32 3z" />
    <glyph glyph-name="Ograve" unicode="&#xd2;" horiz-adv-x="772" 
d="M201 24q-80 47 -124 132.5t-44 197.5t44 197.5t124 132t185 46.5q106 0 185.5 -46.5t123.5 -131.5t44 -198q0 -112 -44 -197.5t-124 -132.5t-185 -47t-185 47zM508.5 115.5q52.5 33.5 81 95.5t28.5 143t-28.5 143t-81 95.5t-122.5 33.5t-122.5 -34t-81.5 -95.5
t-29 -142.5t29 -142.5t81.5 -95.5t122.5 -34t122.5 33.5zM306 908l33 21l78 -129l-33 -21z" />
    <glyph glyph-name="ograve" unicode="&#xf2;" horiz-adv-x="558" 
d="M147 16.5q-57 33.5 -88 95t-31 143.5q0 81 31 142t88 94.5t132 33.5t132.5 -33.5t88.5 -94.5t31 -142q0 -82 -31.5 -143.5t-88.5 -95t-132 -33.5t-132 33.5zM383.5 125.5q39.5 48.5 39.5 129.5q0 80 -39.5 128t-104.5 48t-104 -48t-39 -128q0 -81 39 -129.5t104 -48.5
t104.5 48.5zM184 749l34 21l93 -149l-34 -21z" />
    <glyph glyph-name="Oacute" unicode="&#xd3;" horiz-adv-x="772" 
d="M201 24q-80 47 -124 132.5t-44 197.5t44 197.5t124 132t185 46.5q106 0 185.5 -46.5t123.5 -131.5t44 -198q0 -112 -44 -197.5t-124 -132.5t-185 -47t-185 47zM508.5 115.5q52.5 33.5 81 95.5t28.5 143t-28.5 143t-81 95.5t-122.5 33.5t-122.5 -34t-81.5 -95.5
t-29 -142.5t29 -142.5t81.5 -95.5t122.5 -34t122.5 33.5zM368 800l78 129l33 -21l-78 -129z" />
    <glyph glyph-name="oacute" unicode="&#xf3;" horiz-adv-x="558" 
d="M147 16.5q-57 33.5 -88 95t-31 143.5q0 81 31 142t88 94.5t132 33.5t132.5 -33.5t88.5 -94.5t31 -142q0 -82 -31.5 -143.5t-88.5 -95t-132 -33.5t-132 33.5zM383.5 125.5q39.5 48.5 39.5 129.5q0 80 -39.5 128t-104.5 48t-104 -48t-39 -128q0 -81 39 -129.5t104 -48.5
t104.5 48.5zM255 621l93 149l34 -21l-94 -149z" />
    <glyph glyph-name="Otilde" unicode="&#xd5;" horiz-adv-x="772" 
d="M201 24q-80 47 -124 132.5t-44 197.5t44 197.5t124 132t185 46.5q106 0 185.5 -46.5t123.5 -131.5t44 -198q0 -112 -44 -197.5t-124 -132.5t-185 -47t-185 47zM508.5 115.5q52.5 33.5 81 95.5t28.5 143t-28.5 143t-81 95.5t-122.5 33.5t-122.5 -34t-81.5 -95.5
t-29 -142.5t29 -142.5t81.5 -95.5t122.5 -34t122.5 33.5zM419.5 789.5q-15.5 9.5 -29.5 25.5t-25 31q-14 18 -24.5 27.5t-22.5 9.5q-20 0 -33 -26t-13 -67h-40q0 58 24 95.5t63 37.5q27 0 44.5 -15.5t38.5 -44.5q17 -23 27.5 -33t23.5 -10q21 0 35 26.5t14 67.5h40
q0 -59 -24 -96.5t-63 -37.5q-20 0 -35.5 9.5z" />
    <glyph glyph-name="otilde" unicode="&#xf5;" horiz-adv-x="558" 
d="M147 16.5q-57 33.5 -88 95t-31 143.5q0 81 31 142t88 94.5t132 33.5t132.5 -33.5t88.5 -94.5t31 -142q0 -82 -31.5 -143.5t-88.5 -95t-132 -33.5t-132 33.5zM383.5 125.5q39.5 48.5 39.5 129.5q0 80 -39.5 128t-104.5 48t-104 -48t-39 -128q0 -81 39 -129.5t104 -48.5
t104.5 48.5zM304.5 604.5q-18.5 14.5 -37.5 39.5q-19 26 -30 37.5t-26 11.5q-20 0 -33 -26t-13 -67h-40q0 58 24 95.5t63 37.5q25 0 43 -14.5t37 -40.5q18 -25 29 -36.5t25 -11.5q21 0 35 26.5t14 67.5h40q0 -59 -24 -96.5t-63 -37.5q-25 0 -43.5 14.5z" />
    <glyph glyph-name="Odieresis" unicode="&#xd6;" horiz-adv-x="772" 
d="M201 24q-80 47 -124 132.5t-44 197.5t44 197.5t124 132t185 46.5q106 0 185.5 -46.5t123.5 -131.5t44 -198q0 -112 -44 -197.5t-124 -132.5t-185 -47t-185 47zM508.5 115.5q52.5 33.5 81 95.5t28.5 143t-28.5 143t-81 95.5t-122.5 33.5t-122.5 -34t-81.5 -95.5
t-29 -142.5t29 -142.5t81.5 -95.5t122.5 -34t122.5 33.5zM219 814.5q-19 18.5 -19 49.5q0 29 19 48t50 19q30 0 49.5 -19t19.5 -48q0 -30 -19.5 -49t-49.5 -19q-31 0 -50 18.5zM455.5 814.5q-18.5 18.5 -18.5 49.5q0 30 19 48.5t49 18.5t49 -19t19 -48q0 -31 -19 -49.5
t-49 -18.5q-31 0 -49.5 18.5z" />
    <glyph glyph-name="odieresis" unicode="&#xf6;" horiz-adv-x="558" 
d="M147 16.5q-57 33.5 -88 95t-31 143.5q0 81 31 142t88 94.5t132 33.5t132.5 -33.5t88.5 -94.5t31 -142q0 -82 -31.5 -143.5t-88.5 -95t-132 -33.5t-132 33.5zM383.5 125.5q39.5 48.5 39.5 129.5q0 80 -39.5 128t-104.5 48t-104 -48t-39 -128q0 -81 39 -129.5t104 -48.5
t104.5 48.5zM117 619q-19 19 -19 48t19 47.5t49 18.5t49.5 -18.5t19.5 -47.5t-19.5 -48t-49.5 -19t-49 19zM343 619q-19 19 -19 48t19 47.5t49 18.5t49.5 -18.5t19.5 -47.5t-19.5 -48t-49.5 -19t-49 19z" />
    <glyph glyph-name="Oslash" unicode="&#xd8;" horiz-adv-x="772" 
d="M679.5 579.5q59.5 -93.5 59.5 -225.5q0 -112 -44 -197.5t-124 -132t-185 -46.5q-41 0 -83 8l-37 -125l-38 11l36 124q-108 36 -169.5 130t-61.5 228q0 112 44 197.5t124 132t185 46.5q50 0 90 -10l29 101l39 -11l-29 -101q105 -36 164.5 -129.5zM190.5 194
q37.5 -67 103.5 -94l152 519q-27 7 -60 7q-70 0 -122.5 -34t-81.5 -95.5t-29 -142.5q0 -93 37.5 -160zM508.5 115.5q52.5 33.5 81 95.5t28.5 143q0 91 -35.5 156.5t-98.5 94.5l-152 -517q26 -6 54 -6q70 0 122.5 33.5z" />
    <glyph glyph-name="oslash" unicode="&#xf8;" horiz-adv-x="558" 
d="M490 415.5q41 -66.5 41 -160.5q0 -82 -31.5 -143.5t-88.5 -95t-132 -33.5q-27 0 -55 5l-67 -228l-38 11l66 228q-73 27 -115 94t-42 162q0 81 31 142t88 94.5t132 33.5q26 0 58 -5l58 200l39 -12l-58 -199q73 -27 114 -93.5zM154.5 155q20.5 -42 58.5 -62l97 335
q-15 3 -31 3q-66 0 -105.5 -48t-39.5 -128q0 -58 20.5 -100zM384.5 125.5q39.5 48.5 39.5 129.5q0 56 -20 97.5t-56 61.5l-98 -334q15 -3 29 -3q66 0 105.5 48.5z" />
    <glyph glyph-name="Oslashacute" unicode="&#x1fe;" horiz-adv-x="772" 
d="M679.5 579.5q59.5 -93.5 59.5 -225.5q0 -112 -44 -197.5t-124 -132t-185 -46.5q-41 0 -83 8l-37 -125l-38 11l36 124q-108 36 -169.5 130t-61.5 228q0 112 44 197.5t124 132t185 46.5q50 0 90 -10l29 101l39 -11l-29 -101q105 -36 164.5 -129.5zM190.5 194
q37.5 -67 103.5 -94l152 519q-27 7 -60 7q-70 0 -122.5 -34t-81.5 -95.5t-29 -142.5q0 -93 37.5 -160zM508.5 115.5q52.5 33.5 81 95.5t28.5 143q0 91 -35.5 156.5t-98.5 94.5l-152 -517q26 -6 54 -6q70 0 122.5 33.5zM350 800l78 129l33 -21l-78 -129z" />
    <glyph glyph-name="oslashacute" unicode="&#x1ff;" horiz-adv-x="558" 
d="M490 415.5q41 -66.5 41 -160.5q0 -82 -31.5 -143.5t-88.5 -95t-132 -33.5q-27 0 -55 5l-67 -228l-38 11l66 228q-73 27 -115 94t-42 162q0 81 31 142t88 94.5t132 33.5q26 0 58 -5l58 200l39 -12l-58 -199q73 -27 114 -93.5zM154.5 155q20.5 -42 58.5 -62l97 335
q-15 3 -31 3q-66 0 -105.5 -48t-39.5 -128q0 -58 20.5 -100zM384.5 125.5q39.5 48.5 39.5 129.5q0 56 -20 97.5t-56 61.5l-98 -334q15 -3 29 -3q66 0 105.5 48.5zM204 621l93 149l34 -21l-94 -149z" />
    <glyph glyph-name="Omacron" unicode="&#x14c;" horiz-adv-x="772" 
d="M201 24q-80 47 -124 132.5t-44 197.5t44 197.5t124 132t185 46.5q106 0 185.5 -46.5t123.5 -131.5t44 -198q0 -112 -44 -197.5t-124 -132.5t-185 -47t-185 47zM508.5 115.5q52.5 33.5 81 95.5t28.5 143t-28.5 143t-81 95.5t-122.5 33.5t-122.5 -34t-81.5 -95.5
t-29 -142.5t29 -142.5t81.5 -95.5t122.5 -34t122.5 33.5zM246 839h281v-40h-281v40z" />
    <glyph glyph-name="omacron" unicode="&#x14d;" horiz-adv-x="558" 
d="M147 16.5q-57 33.5 -88 95t-31 143.5q0 81 31 142t88 94.5t132 33.5t132.5 -33.5t88.5 -94.5t31 -142q0 -82 -31.5 -143.5t-88.5 -95t-132 -33.5t-132 33.5zM383.5 125.5q39.5 48.5 39.5 129.5q0 80 -39.5 128t-104.5 48t-104 -48t-39 -128q0 -81 39 -129.5t104 -48.5
t104.5 48.5zM139 639h281v-40h-281v40z" />
    <glyph glyph-name="Obreve" unicode="&#x14e;" horiz-adv-x="772" 
d="M201 24q-80 47 -124 132.5t-44 197.5t44 197.5t124 132t185 46.5q106 0 185.5 -46.5t123.5 -131.5t44 -198q0 -112 -44 -197.5t-124 -132.5t-185 -47t-185 47zM508.5 115.5q52.5 33.5 81 95.5t28.5 143t-28.5 143t-81 95.5t-122.5 33.5t-122.5 -34t-81.5 -95.5
t-29 -142.5t29 -142.5t81.5 -95.5t122.5 -34t122.5 33.5zM299.5 826.5q-35.5 36.5 -35.5 93.5h40q0 -39 24 -64.5t61 -25.5t61 25.5t24 64.5h40q0 -56 -35 -93t-90 -37q-54 0 -89.5 36.5z" />
    <glyph glyph-name="obreve" unicode="&#x14f;" horiz-adv-x="558" 
d="M147 16.5q-57 33.5 -88 95t-31 143.5q0 81 31 142t88 94.5t132 33.5t132.5 -33.5t88.5 -94.5t31 -142q0 -82 -31.5 -143.5t-88.5 -95t-132 -33.5t-132 33.5zM383.5 125.5q39.5 48.5 39.5 129.5q0 80 -39.5 128t-104.5 48t-104 -48t-39 -128q0 -81 39 -129.5t104 -48.5
t104.5 48.5zM174.5 635q-40.5 45 -40.5 115h40q0 -52 29.5 -86t74.5 -34q46 0 76 33.5t30 86.5h40q0 -70 -41 -115t-104 -45q-64 0 -104.5 45z" />
    <glyph glyph-name="Ohungarumlaut" unicode="&#x150;" horiz-adv-x="772" 
d="M201 24q-80 47 -124 132.5t-44 197.5t44 197.5t124 132t185 46.5q106 0 185.5 -46.5t123.5 -131.5t44 -198q0 -112 -44 -197.5t-124 -132.5t-185 -47t-185 47zM508.5 115.5q52.5 33.5 81 95.5t28.5 143t-28.5 143t-81 95.5t-122.5 33.5t-122.5 -34t-81.5 -95.5
t-29 -142.5t29 -142.5t81.5 -95.5t122.5 -34t122.5 33.5zM296 788l78 129l33 -21l-78 -129zM435 788l78 129l34 -21l-79 -129z" />
    <glyph glyph-name="ohungarumlaut" unicode="&#x151;" horiz-adv-x="558" 
d="M147 16.5q-57 33.5 -88 95t-31 143.5q0 81 31 142t88 94.5t132 33.5t132.5 -33.5t88.5 -94.5t31 -142q0 -82 -31.5 -143.5t-88.5 -95t-132 -33.5t-132 33.5zM383.5 125.5q39.5 48.5 39.5 129.5q0 80 -39.5 128t-104.5 48t-104 -48t-39 -128q0 -81 39 -129.5t104 -48.5
t104.5 48.5zM182 621l93 149l34 -21l-94 -149zM322 621l93 149l34 -21l-94 -149z" />
    <glyph glyph-name="Ocircumflex" unicode="&#xd4;" horiz-adv-x="772" 
d="M201 24q-80 47 -124 132.5t-44 197.5t44 197.5t124 132t185 46.5q106 0 185.5 -46.5t123.5 -131.5t44 -198q0 -112 -44 -197.5t-124 -132.5t-185 -47t-185 47zM508.5 115.5q52.5 33.5 81 95.5t28.5 143t-28.5 143t-81 95.5t-122.5 33.5t-122.5 -34t-81.5 -95.5
t-29 -142.5t29 -142.5t81.5 -95.5t122.5 -34t122.5 33.5zM251 807l108 113h54l108 -113l-29 -27l-106 109l-106 -109z" />
    <glyph glyph-name="ocircumflex" unicode="&#xf4;" horiz-adv-x="558" 
d="M147 16.5q-57 33.5 -88 95t-31 143.5q0 81 31 142t88 94.5t132 33.5t132.5 -33.5t88.5 -94.5t31 -142q0 -82 -31.5 -143.5t-88.5 -95t-132 -33.5t-132 33.5zM383.5 125.5q39.5 48.5 39.5 129.5q0 80 -39.5 128t-104.5 48t-104 -48t-39 -128q0 -81 39 -129.5t104 -48.5
t104.5 48.5zM127 617l126 133h54l127 -133l-29 -27l-125 130l-124 -130z" />
    <glyph glyph-name="OE" unicode="&#x152;" horiz-adv-x="963" 
d="M197 30q-79 45 -121.5 128t-42.5 196t42.5 196t121 128t185.5 45q57 0 127 -15h420v-102h-313v-200h273v-93h-273v-211h323v-102h-429q-72 -15 -127 -15q-107 0 -186 45zM447.5 95.5q29.5 5.5 49.5 14.5v487q-19 9 -47 15t-55 6q-73 0 -128 -32t-84.5 -92t-29.5 -140
t28.5 -140t81.5 -92t123 -32q32 0 61.5 5.5z" />
    <glyph glyph-name="oe" unicode="&#x153;" horiz-adv-x="943" 
d="M921 115q-25 -61 -85.5 -96t-137.5 -35q-72 0 -126 28t-87 81q-31 -53 -83.5 -81t-123.5 -28q-76 0 -132.5 33t-87 94t-30.5 143t30.5 143t87 94t132.5 33q69 0 120.5 -26.5t83.5 -77.5q29 50 78.5 77t115.5 27q69 0 121 -32t80 -91.5t28 -140.5q0 -35 -2 -39h-362
q8 -68 49.5 -108t104.5 -40q47 0 85 22t54 59zM582.5 397.5q-34.5 -35.5 -41.5 -97.5h252q-4 62 -37.5 97.5t-85.5 35.5q-53 0 -87.5 -35.5zM384.5 124.5q38.5 47.5 38.5 129.5t-38.5 129.5t-105.5 47.5q-66 0 -104.5 -47.5t-38.5 -129.5t38.5 -129.5t104.5 -47.5
q67 0 105.5 47.5z" />
    <glyph glyph-name="Racute" unicode="&#x154;" horiz-adv-x="656" 
d="M457.5 5q-28.5 24 -39.5 65l-40 142q-10 34 -34.5 55.5t-53.5 21.5h-113v-289h-120v708h295q72 0 129 -26.5t88.5 -75t31.5 -110.5q0 -68 -46 -120t-124 -67v-1q50 -25 65 -85l31 -114q10 -37 35 -37t49 36l44 -63q-22 -30 -54.5 -47t-70.5 -17q-44 0 -72.5 24zM344 385
q60 0 98.5 31t38.5 79q0 52 -38 83t-99 31h-166v-224h166zM284 800l78 129l33 -21l-78 -129z" />
    <glyph glyph-name="Racute.alt1" horiz-adv-x="638" 
d="M57 708h295q72 0 129 -26.5t88.5 -75t31.5 -110.5q0 -55 -31.5 -100.5t-87.5 -69.5v-1q43 -9 67 -39.5t24 -73.5v-212h-120v202q0 37 -21 62t-54 25h-201v-289h-120v708zM344 385q60 0 98.5 31t38.5 79q0 52 -38 83t-99 31h-166v-224h166zM284 800l78 129l33 -21
l-78 -129z" />
    <glyph glyph-name="Racute.alt2" horiz-adv-x="636" 
d="M57 708h295q72 0 129 -26.5t88.5 -75t31.5 -110.5q0 -64 -41 -115t-108 -70l151 -311h-131l-135 289h-160v-289h-120v708zM344 385q60 0 98.5 31t38.5 79q0 52 -38 83t-99 31h-166v-224h166zM284 800l78 129l33 -21l-78 -129z" />
    <glyph glyph-name="racute" unicode="&#x155;" horiz-adv-x="440" 
d="M379.5 481q37.5 -44 41.5 -122l-92 -28q-3 49 -23 76.5t-53 27.5q-46 0 -72 -44t-26 -123v-268h-108v508h87l13 -82h1q18 47 52.5 73t78.5 26q63 0 100.5 -44zM206 621l93 149l34 -21l-94 -149z" />
    <glyph glyph-name="Rcaron" unicode="&#x158;" horiz-adv-x="656" 
d="M457.5 5q-28.5 24 -39.5 65l-40 142q-10 34 -34.5 55.5t-53.5 21.5h-113v-289h-120v708h295q72 0 129 -26.5t88.5 -75t31.5 -110.5q0 -68 -46 -120t-124 -67v-1q50 -25 65 -85l31 -114q10 -37 35 -37t49 36l44 -63q-22 -30 -54.5 -47t-70.5 -17q-44 0 -72.5 24zM344 385
q60 0 98.5 31t38.5 79q0 52 -38 83t-99 31h-166v-224h166zM167 903l29 27l106 -110l106 110l29 -27l-108 -113h-54z" />
    <glyph glyph-name="Rcaron.alt1" horiz-adv-x="638" 
d="M57 708h295q72 0 129 -26.5t88.5 -75t31.5 -110.5q0 -55 -31.5 -100.5t-87.5 -69.5v-1q43 -9 67 -39.5t24 -73.5v-212h-120v202q0 37 -21 62t-54 25h-201v-289h-120v708zM344 385q60 0 98.5 31t38.5 79q0 52 -38 83t-99 31h-166v-224h166zM167 903l29 27l106 -110
l106 110l29 -27l-108 -113h-54z" />
    <glyph glyph-name="Rcaron.alt2" horiz-adv-x="636" 
d="M57 708h295q72 0 129 -26.5t88.5 -75t31.5 -110.5q0 -64 -41 -115t-108 -70l151 -311h-131l-135 289h-160v-289h-120v708zM344 385q60 0 98.5 31t38.5 79q0 52 -38 83t-99 31h-166v-224h166zM167 903l29 27l106 -110l106 110l29 -27l-108 -113h-54z" />
    <glyph glyph-name="rcaron" unicode="&#x159;" horiz-adv-x="440" 
d="M379.5 481q37.5 -44 41.5 -122l-92 -28q-3 49 -23 76.5t-53 27.5q-46 0 -72 -44t-26 -123v-268h-108v508h87l13 -82h1q18 47 52.5 73t78.5 26q63 0 100.5 -44zM76 733l29 27l124 -129l125 129l29 -27l-127 -133h-54z" />
    <glyph glyph-name="uni0156" unicode="&#x156;" horiz-adv-x="656" 
d="M457.5 5q-28.5 24 -39.5 65l-40 142q-10 34 -34.5 55.5t-53.5 21.5h-113v-289h-120v708h295q72 0 129 -26.5t88.5 -75t31.5 -110.5q0 -68 -46 -120t-124 -67v-1q50 -25 65 -85l31 -114q10 -37 35 -37t49 36l44 -63q-22 -30 -54.5 -47t-70.5 -17q-44 0 -72.5 24zM344 385
q60 0 98.5 31t38.5 79q0 52 -38 83t-99 31h-166v-224h166zM267 -214q12 -3 23 -3q24 0 38.5 11.5t13.5 33.5q-13 -5 -25 -5q-25 0 -43 16.5t-18 40.5q0 22 15.5 36.5t40.5 14.5q31 0 51 -25.5t20 -67.5q0 -45 -24.5 -68.5t-66.5 -23.5q-16 0 -32 3z" />
    <glyph glyph-name="uni0156.alt1" horiz-adv-x="638" 
d="M57 708h295q72 0 129 -26.5t88.5 -75t31.5 -110.5q0 -55 -31.5 -100.5t-87.5 -69.5v-1q43 -9 67 -39.5t24 -73.5v-212h-120v202q0 37 -21 62t-54 25h-201v-289h-120v708zM344 385q60 0 98.5 31t38.5 79q0 52 -38 83t-99 31h-166v-224h166zM267 -214q12 -3 23 -3
q24 0 38.5 11.5t13.5 33.5q-13 -5 -25 -5q-25 0 -43 16.5t-18 40.5q0 22 15.5 36.5t40.5 14.5q31 0 51 -25.5t20 -67.5q0 -45 -24.5 -68.5t-66.5 -23.5q-16 0 -32 3z" />
    <glyph glyph-name="uni0156.alt2" horiz-adv-x="636" 
d="M57 708h295q72 0 129 -26.5t88.5 -75t31.5 -110.5q0 -64 -41 -115t-108 -70l151 -311h-131l-135 289h-160v-289h-120v708zM344 385q60 0 98.5 31t38.5 79q0 52 -38 83t-99 31h-166v-224h166zM268 -214q12 -3 23 -3q24 0 38.5 11.5t13.5 33.5q-13 -5 -25 -5
q-25 0 -43 16.5t-18 40.5q0 22 15.5 36.5t40.5 14.5q31 0 51 -25.5t20 -67.5q0 -45 -24.5 -68.5t-66.5 -23.5q-16 0 -32 3z" />
    <glyph glyph-name="uni0157" unicode="&#x157;" horiz-adv-x="440" 
d="M379.5 481q37.5 -44 41.5 -122l-92 -28q-3 49 -23 76.5t-53 27.5q-46 0 -72 -44t-26 -123v-268h-108v508h87l13 -82h1q18 47 52.5 73t78.5 26q63 0 100.5 -44zM53 -214q12 -3 23 -3q24 0 38.5 11.5t13.5 33.5q-13 -5 -25 -5q-25 0 -43 16.5t-18 40.5q0 22 15.5 36.5
t40.5 14.5q31 0 51 -25.5t20 -67.5q0 -45 -24.5 -68.5t-66.5 -23.5q-16 0 -32 3z" />
    <glyph glyph-name="Sacute" unicode="&#x15a;" horiz-adv-x="588" 
d="M163 8q-64 31 -101.5 87.5t-41.5 129.5l115 21q1 -49 24.5 -87.5t63.5 -60t90 -21.5q62 0 100 31.5t38 78.5q0 38 -27.5 63t-88.5 42l-104 30q-94 25 -137 72t-43 123q0 62 29 110.5t83 75.5t126 27q68 0 121 -26t84.5 -72.5t36.5 -108.5l-112 -25q-2 60 -38.5 96.5
t-92.5 36.5q-53 0 -86 -29t-33 -73q0 -39 25 -63t81 -40l104 -29q98 -26 144 -74t46 -124q0 -64 -31.5 -114.5t-90 -79t-138.5 -28.5q-82 0 -146 31zM268 800l78 129l33 -21l-78 -129z" />
    <glyph glyph-name="sacute" unicode="&#x15b;" horiz-adv-x="481" 
d="M133.5 4.5q-51.5 21.5 -82 62.5t-32.5 97l101 18q2 -52 38.5 -82t93.5 -30q47 0 77.5 18.5t30.5 49.5q-1 24 -24 40t-74 28l-77 19q-73 19 -106.5 52.5t-33.5 88.5q0 72 52 115.5t135 43.5q81 0 136.5 -41.5t62.5 -109.5l-100 -21q-3 41 -30.5 63.5t-70.5 22.5
q-38 0 -61 -18t-23 -46q0 -22 20.5 -37.5t65.5 -27.5l76 -19q80 -21 117 -55t38 -89q0 -48 -28 -85t-77 -58t-110 -21q-63 0 -114.5 21.5zM210 621l93 149l34 -21l-94 -149z" />
    <glyph glyph-name="Scedilla" unicode="&#x15e;" horiz-adv-x="588" 
d="M538.5 86.5q-30.5 -49.5 -87.5 -78.5t-135 -30l-3 -26q44 -3 70 -23t26 -55q0 -36 -25 -57.5t-66 -21.5q-29 0 -55 15t-39 38l31 25q8 -17 26 -27.5t37 -10.5q23 0 37 10t14 27q0 19 -18 31t-47 12h-35l7 64q-73 6 -130 38t-90 86t-36 122l115 21q1 -49 24.5 -87.5
t63.5 -60t90 -21.5q62 0 100 31.5t38 78.5q0 38 -27.5 63t-88.5 42l-104 30q-94 25 -137 72t-43 123q0 62 29 110.5t83 75.5t126 27q68 0 121 -26t84.5 -72.5t36.5 -108.5l-112 -25q-2 60 -38.5 96.5t-92.5 36.5q-53 0 -86 -29t-33 -73q0 -39 25 -63t81 -40l104 -29
q98 -26 144 -74t46 -124q0 -63 -30.5 -112.5z" />
    <glyph glyph-name="scedilla" unicode="&#x15f;" horiz-adv-x="481" 
d="M407.5 33q-55.5 -45 -143.5 -50l-4 -31q44 -3 70 -23t26 -55q0 -36 -25 -57.5t-66 -21.5q-29 0 -55 15t-39 38l31 25q8 -17 26 -27.5t37 -10.5q23 0 37 10t14 27q0 19 -18 31t-47 12h-35l8 69q-88 6 -145 54t-60 126l101 18q2 -52 38.5 -82t93.5 -30q47 0 77.5 18.5
t30.5 49.5q-1 24 -24 40t-74 28l-77 19q-73 19 -106.5 52.5t-33.5 88.5q0 72 52 115.5t135 43.5q81 0 136.5 -41.5t62.5 -109.5l-100 -21q-3 41 -30.5 63.5t-70.5 22.5q-38 0 -61 -18t-23 -46q0 -22 20.5 -37.5t65.5 -27.5l76 -19q80 -21 117 -55t38 -89q0 -69 -55.5 -114z
" />
    <glyph glyph-name="Scaron" unicode="&#x160;" horiz-adv-x="588" 
d="M163 8q-64 31 -101.5 87.5t-41.5 129.5l115 21q1 -49 24.5 -87.5t63.5 -60t90 -21.5q62 0 100 31.5t38 78.5q0 38 -27.5 63t-88.5 42l-104 30q-94 25 -137 72t-43 123q0 62 29 110.5t83 75.5t126 27q68 0 121 -26t84.5 -72.5t36.5 -108.5l-112 -25q-2 60 -38.5 96.5
t-92.5 36.5q-53 0 -86 -29t-33 -73q0 -39 25 -63t81 -40l104 -29q98 -26 144 -74t46 -124q0 -64 -31.5 -114.5t-90 -79t-138.5 -28.5q-82 0 -146 31zM151 903l29 27l106 -110l106 110l29 -27l-108 -113h-54z" />
    <glyph glyph-name="scaron" unicode="&#x161;" horiz-adv-x="481" 
d="M133.5 4.5q-51.5 21.5 -82 62.5t-32.5 97l101 18q2 -52 38.5 -82t93.5 -30q47 0 77.5 18.5t30.5 49.5q-1 24 -24 40t-74 28l-77 19q-73 19 -106.5 52.5t-33.5 88.5q0 72 52 115.5t135 43.5q81 0 136.5 -41.5t62.5 -109.5l-100 -21q-3 41 -30.5 63.5t-70.5 22.5
q-38 0 -61 -18t-23 -46q0 -22 20.5 -37.5t65.5 -27.5l76 -19q80 -21 117 -55t38 -89q0 -48 -28 -85t-77 -58t-110 -21q-63 0 -114.5 21.5zM80 733l29 27l124 -129l125 129l29 -27l-127 -133h-54z" />
    <glyph glyph-name="uni0218" unicode="&#x218;" horiz-adv-x="588" 
d="M163 8q-64 31 -101.5 87.5t-41.5 129.5l115 21q1 -49 24.5 -87.5t63.5 -60t90 -21.5q62 0 100 31.5t38 78.5q0 38 -27.5 63t-88.5 42l-104 30q-94 25 -137 72t-43 123q0 62 29 110.5t83 75.5t126 27q68 0 121 -26t84.5 -72.5t36.5 -108.5l-112 -25q-2 60 -38.5 96.5
t-92.5 36.5q-53 0 -86 -29t-33 -73q0 -39 25 -63t81 -40l104 -29q98 -26 144 -74t46 -124q0 -64 -31.5 -114.5t-90 -79t-138.5 -28.5q-82 0 -146 31zM251 -214q12 -3 23 -3q24 0 38.5 11.5t13.5 33.5q-13 -5 -25 -5q-25 0 -43 16.5t-18 40.5q0 22 15.5 36.5t40.5 14.5
q31 0 51 -25.5t20 -67.5q0 -45 -24.5 -68.5t-66.5 -23.5q-16 0 -32 3z" />
    <glyph glyph-name="uni0219" unicode="&#x219;" horiz-adv-x="481" 
d="M133.5 4.5q-51.5 21.5 -82 62.5t-32.5 97l101 18q2 -52 38.5 -82t93.5 -30q47 0 77.5 18.5t30.5 49.5q-1 24 -24 40t-74 28l-77 19q-73 19 -106.5 52.5t-33.5 88.5q0 72 52 115.5t135 43.5q81 0 136.5 -41.5t62.5 -109.5l-100 -21q-3 41 -30.5 63.5t-70.5 22.5
q-38 0 -61 -18t-23 -46q0 -22 20.5 -37.5t65.5 -27.5l76 -19q80 -21 117 -55t38 -89q0 -48 -28 -85t-77 -58t-110 -21q-63 0 -114.5 21.5zM198 -214q12 -3 23 -3q24 0 38.5 11.5t13.5 33.5q-13 -5 -25 -5q-25 0 -43 16.5t-18 40.5q0 22 15.5 36.5t40.5 14.5q31 0 51 -25.5
t20 -67.5q0 -45 -24.5 -68.5t-66.5 -23.5q-16 0 -32 3z" />
    <glyph glyph-name="Scircumflex" unicode="&#x15c;" horiz-adv-x="588" 
d="M163 8q-64 31 -101.5 87.5t-41.5 129.5l115 21q1 -49 24.5 -87.5t63.5 -60t90 -21.5q62 0 100 31.5t38 78.5q0 38 -27.5 63t-88.5 42l-104 30q-94 25 -137 72t-43 123q0 62 29 110.5t83 75.5t126 27q68 0 121 -26t84.5 -72.5t36.5 -108.5l-112 -25q-2 60 -38.5 96.5
t-92.5 36.5q-53 0 -86 -29t-33 -73q0 -39 25 -63t81 -40l104 -29q98 -26 144 -74t46 -124q0 -64 -31.5 -114.5t-90 -79t-138.5 -28.5q-82 0 -146 31zM151 807l108 113h54l108 -113l-29 -27l-106 109l-106 -109z" />
    <glyph glyph-name="scircumflex" unicode="&#x15d;" horiz-adv-x="481" 
d="M133.5 4.5q-51.5 21.5 -82 62.5t-32.5 97l101 18q2 -52 38.5 -82t93.5 -30q47 0 77.5 18.5t30.5 49.5q-1 24 -24 40t-74 28l-77 19q-73 19 -106.5 52.5t-33.5 88.5q0 72 52 115.5t135 43.5q81 0 136.5 -41.5t62.5 -109.5l-100 -21q-3 41 -30.5 63.5t-70.5 22.5
q-38 0 -61 -18t-23 -46q0 -22 20.5 -37.5t65.5 -27.5l76 -19q80 -21 117 -55t38 -89q0 -48 -28 -85t-77 -58t-110 -21q-63 0 -114.5 21.5zM81 617l126 133h54l127 -133l-29 -27l-125 130l-124 -130z" />
    <glyph glyph-name="Tcaron" unicode="&#x164;" horiz-adv-x="547" 
d="M213 603h-202v105h525v-105h-202v-603h-121v603zM138 903l29 27l106 -110l106 110l29 -27l-108 -113h-54z" />
    <glyph glyph-name="tcaron" unicode="&#x165;" horiz-adv-x="420" 
d="M138 25q-43 42 -43 113l-1 285h-93v85h93v142l109 24v-166h184v-85h-184v-267q0 -38 17.5 -60t48.5 -22t52.5 22t27.5 66l69 -49q-10 -61 -54.5 -95.5t-109.5 -34.5q-73 0 -116 42zM274 608q12 -3 23 -3q24 0 38.5 11.5t13.5 33.5q-13 -5 -25 -5q-25 0 -43 16.5t-18 40.5
q0 22 15.5 36.5t40.5 14.5q31 0 51 -25.5t20 -67.5q0 -45 -24.5 -68.5t-66.5 -23.5q-16 0 -32 3z" />
    <glyph glyph-name="uni021A" unicode="&#x21a;" horiz-adv-x="547" 
d="M213 603h-202v105h525v-105h-202v-603h-121v603zM226 -214q12 -3 23 -3q24 0 38.5 11.5t13.5 33.5q-13 -5 -25 -5q-25 0 -43 16.5t-18 40.5q0 22 15.5 36.5t40.5 14.5q31 0 51 -25.5t20 -67.5q0 -45 -24.5 -68.5t-66.5 -23.5q-16 0 -32 3z" />
    <glyph glyph-name="uni021B" unicode="&#x21b;" horiz-adv-x="420" 
d="M138 25q-43 42 -43 113l-1 285h-93v85h93v142l109 24v-166h184v-85h-184v-267q0 -38 17.5 -60t48.5 -22t52.5 22t27.5 66l69 -49q-10 -61 -54.5 -95.5t-109.5 -34.5q-73 0 -116 42zM198 -214q12 -3 23 -3q24 0 38.5 11.5t13.5 33.5q-13 -5 -25 -5q-25 0 -43 16.5
t-18 40.5q0 22 15.5 36.5t40.5 14.5q31 0 51 -25.5t20 -67.5q0 -45 -24.5 -68.5t-66.5 -23.5q-16 0 -32 3z" />
    <glyph glyph-name="uni0162" unicode="&#x162;" horiz-adv-x="547" 
d="M294 0l-6 -48q44 -3 70 -23t26 -55q0 -36 -25 -57.5t-66 -21.5q-29 0 -55 15t-39 38l31 25q8 -17 26 -27.5t37 -10.5q23 0 37 10t14 27q0 19 -18 31t-47 12h-35l10 85h-41v603h-202v105h525v-105h-202v-603h-40z" />
    <glyph glyph-name="uni0163" unicode="&#x163;" horiz-adv-x="420" 
d="M366.5 20.5q-41.5 -34.5 -102.5 -37.5l-4 -31q44 -3 70 -23t26 -55q0 -36 -25 -57.5t-66 -21.5q-29 0 -55 15t-39 38l31 25q8 -17 26 -27.5t37 -10.5q23 0 37 10t14 27q0 19 -18 31t-47 12h-35l8 70q-60 8 -94.5 49t-34.5 104l-1 285h-93v85h93v142l109 24v-166h184v-85
h-184v-267q0 -38 17.5 -60t48.5 -22t52.5 22t27.5 66l69 -49q-10 -58 -51.5 -92.5z" />
    <glyph glyph-name="Ugrave" unicode="&#xd9;" horiz-adv-x="648" 
d="M178.5 10.5q-62.5 33.5 -96.5 94.5t-34 142v461h121v-458q0 -73 42.5 -120.5t113.5 -47.5t113 46t42 123v457h120v-461q0 -81 -34 -142t-96 -94.5t-145 -33.5q-84 0 -146.5 33.5zM243 908l33 21l78 -129l-33 -21z" />
    <glyph glyph-name="ugrave" unicode="&#xf9;" 
d="M85 29.5q-42 45.5 -42 126.5v352h108v-335q0 -46 24.5 -72t65.5 -26q56 0 90 36t34 96v301h108v-508h-93l-13 72h-1q-27 -43 -68.5 -65.5t-96.5 -22.5q-74 0 -116 45.5zM162 749l34 21l93 -149l-34 -21z" />
    <glyph glyph-name="ugrave.alt1" horiz-adv-x="515" 
d="M101 37.5q-58 54.5 -59 145.5v325h109v-323q0 -48 29 -77.5t78 -29.5q48 0 77.5 29.5t29.5 77.5v323h108v-325q0 -92 -58.5 -146t-157.5 -54q-98 0 -156 54.5zM165 749l34 21l93 -149l-34 -21z" />
    <glyph glyph-name="Uacute" unicode="&#xda;" horiz-adv-x="648" 
d="M178.5 10.5q-62.5 33.5 -96.5 94.5t-34 142v461h121v-458q0 -73 42.5 -120.5t113.5 -47.5t113 46t42 123v457h120v-461q0 -81 -34 -142t-96 -94.5t-145 -33.5q-84 0 -146.5 33.5zM305 800l78 129l33 -21l-78 -129z" />
    <glyph glyph-name="uacute" unicode="&#xfa;" 
d="M85 29.5q-42 45.5 -42 126.5v352h108v-335q0 -46 24.5 -72t65.5 -26q56 0 90 36t34 96v301h108v-508h-93l-13 72h-1q-27 -43 -68.5 -65.5t-96.5 -22.5q-74 0 -116 45.5zM233 621l93 149l34 -21l-94 -149z" />
    <glyph glyph-name="uacute.alt1" horiz-adv-x="515" 
d="M101 37.5q-58 54.5 -59 145.5v325h109v-323q0 -48 29 -77.5t78 -29.5q48 0 77.5 29.5t29.5 77.5v323h108v-325q0 -92 -58.5 -146t-157.5 -54q-98 0 -156 54.5zM237 621l93 149l34 -21l-94 -149z" />
    <glyph glyph-name="Ucircumflex" unicode="&#xdb;" horiz-adv-x="648" 
d="M178.5 10.5q-62.5 33.5 -96.5 94.5t-34 142v461h121v-458q0 -73 42.5 -120.5t113.5 -47.5t113 46t42 123v457h120v-461q0 -81 -34 -142t-96 -94.5t-145 -33.5q-84 0 -146.5 33.5zM188 807l108 113h54l108 -113l-29 -27l-106 109l-106 -109z" />
    <glyph glyph-name="ucircumflex" unicode="&#xfb;" 
d="M85 29.5q-42 45.5 -42 126.5v352h108v-335q0 -46 24.5 -72t65.5 -26q56 0 90 36t34 96v301h108v-508h-93l-13 72h-1q-27 -43 -68.5 -65.5t-96.5 -22.5q-74 0 -116 45.5zM105 617l126 133h54l127 -133l-29 -27l-125 130l-124 -130z" />
    <glyph glyph-name="ucircumflex.alt1" horiz-adv-x="515" 
d="M101 37.5q-58 54.5 -59 145.5v325h109v-323q0 -48 29 -77.5t78 -29.5q48 0 77.5 29.5t29.5 77.5v323h108v-325q0 -92 -58.5 -146t-157.5 -54q-98 0 -156 54.5zM108 617l126 133h54l127 -133l-29 -27l-125 130l-124 -130z" />
    <glyph glyph-name="Utilde" unicode="&#x168;" horiz-adv-x="648" 
d="M178.5 10.5q-62.5 33.5 -96.5 94.5t-34 142v461h121v-458q0 -73 42.5 -120.5t113.5 -47.5t113 46t42 123v457h120v-461q0 -81 -34 -142t-96 -94.5t-145 -33.5q-84 0 -146.5 33.5zM356.5 789.5q-15.5 9.5 -29.5 25.5t-25 31q-14 18 -24.5 27.5t-22.5 9.5q-20 0 -33 -26
t-13 -67h-40q0 58 24 95.5t63 37.5q27 0 44.5 -15.5t38.5 -44.5q17 -23 27.5 -33t23.5 -10q21 0 35 26.5t14 67.5h40q0 -59 -24 -96.5t-63 -37.5q-20 0 -35.5 9.5z" />
    <glyph glyph-name="utilde" unicode="&#x169;" 
d="M85 29.5q-42 45.5 -42 126.5v352h108v-335q0 -46 24.5 -72t65.5 -26q56 0 90 36t34 96v301h108v-508h-93l-13 72h-1q-27 -43 -68.5 -65.5t-96.5 -22.5q-74 0 -116 45.5zM282.5 604.5q-18.5 14.5 -37.5 39.5q-19 26 -30 37.5t-26 11.5q-20 0 -33 -26t-13 -67h-40
q0 58 24 95.5t63 37.5q25 0 43 -14.5t37 -40.5q18 -25 29 -36.5t25 -11.5q21 0 35 26.5t14 67.5h40q0 -59 -24 -96.5t-63 -37.5q-25 0 -43.5 14.5z" />
    <glyph glyph-name="utilde.alt1" horiz-adv-x="515" 
d="M101 37.5q-58 54.5 -59 145.5v325h109v-323q0 -48 29 -77.5t78 -29.5q48 0 77.5 29.5t29.5 77.5v323h108v-325q0 -92 -58.5 -146t-157.5 -54q-98 0 -156 54.5zM285.5 604.5q-18.5 14.5 -37.5 39.5q-19 26 -30 37.5t-26 11.5q-20 0 -33 -26t-13 -67h-40q0 58 24 95.5
t63 37.5q25 0 43 -14.5t37 -40.5q18 -25 29 -36.5t25 -11.5q21 0 35 26.5t14 67.5h40q0 -59 -24 -96.5t-63 -37.5q-25 0 -43.5 14.5z" />
    <glyph glyph-name="Umacron" unicode="&#x16a;" horiz-adv-x="648" 
d="M178.5 10.5q-62.5 33.5 -96.5 94.5t-34 142v461h121v-458q0 -73 42.5 -120.5t113.5 -47.5t113 46t42 123v457h120v-461q0 -81 -34 -142t-96 -94.5t-145 -33.5q-84 0 -146.5 33.5zM183 839h281v-40h-281v40z" />
    <glyph glyph-name="umacron" unicode="&#x16b;" 
d="M85 29.5q-42 45.5 -42 126.5v352h108v-335q0 -46 24.5 -72t65.5 -26q56 0 90 36t34 96v301h108v-508h-93l-13 72h-1q-27 -43 -68.5 -65.5t-96.5 -22.5q-74 0 -116 45.5zM117 639h281v-40h-281v40z" />
    <glyph glyph-name="umacron.alt1" horiz-adv-x="515" 
d="M101 37.5q-58 54.5 -59 145.5v325h109v-323q0 -48 29 -77.5t78 -29.5q48 0 77.5 29.5t29.5 77.5v323h108v-325q0 -92 -58.5 -146t-157.5 -54q-98 0 -156 54.5zM120 639h281v-40h-281v40z" />
    <glyph glyph-name="Ubreve" unicode="&#x16c;" horiz-adv-x="648" 
d="M178.5 10.5q-62.5 33.5 -96.5 94.5t-34 142v461h121v-458q0 -73 42.5 -120.5t113.5 -47.5t113 46t42 123v457h120v-461q0 -81 -34 -142t-96 -94.5t-145 -33.5q-84 0 -146.5 33.5zM236.5 826.5q-35.5 36.5 -35.5 93.5h40q0 -39 24 -64.5t61 -25.5t61 25.5t24 64.5h40
q0 -56 -35 -93t-90 -37q-54 0 -89.5 36.5z" />
    <glyph glyph-name="ubreve" unicode="&#x16d;" 
d="M85 29.5q-42 45.5 -42 126.5v352h108v-335q0 -46 24.5 -72t65.5 -26q56 0 90 36t34 96v301h108v-508h-93l-13 72h-1q-27 -43 -68.5 -65.5t-96.5 -22.5q-74 0 -116 45.5zM152.5 635q-40.5 45 -40.5 115h40q0 -52 29.5 -86t74.5 -34q46 0 76 33.5t30 86.5h40
q0 -70 -41 -115t-104 -45q-64 0 -104.5 45z" />
    <glyph glyph-name="ubreve.alt1" horiz-adv-x="515" 
d="M101 37.5q-58 54.5 -59 145.5v325h109v-323q0 -48 29 -77.5t78 -29.5q48 0 77.5 29.5t29.5 77.5v323h108v-325q0 -92 -58.5 -146t-157.5 -54q-98 0 -156 54.5zM156.5 635q-40.5 45 -40.5 115h40q0 -52 29.5 -86t74.5 -34q46 0 76 33.5t30 86.5h40q0 -70 -41 -115
t-104 -45q-64 0 -104.5 45z" />
    <glyph glyph-name="Uring" unicode="&#x16e;" horiz-adv-x="648" 
d="M178.5 10.5q-62.5 33.5 -96.5 94.5t-34 142v461h121v-458q0 -73 42.5 -120.5t113.5 -47.5t113 46t42 123v457h120v-461q0 -81 -34 -142t-96 -94.5t-145 -33.5q-84 0 -146.5 33.5zM255.5 807.5q-26.5 27.5 -26.5 69.5q0 40 27 66.5t68 26.5t67.5 -27t27.5 -68
q0 -41 -26.5 -68t-68.5 -27t-68.5 27.5zM363 835.5q15 15.5 15 39.5t-15 39.5t-40 15.5q-23 0 -39 -15.5t-16 -39.5t16 -39.5t39 -15.5q25 0 40 15.5z" />
    <glyph glyph-name="uring" unicode="&#x16f;" 
d="M85 29.5q-42 45.5 -42 126.5v352h108v-335q0 -46 24.5 -72t65.5 -26q56 0 90 36t34 96v301h108v-508h-93l-13 72h-1q-27 -43 -68.5 -65.5t-96.5 -22.5q-74 0 -116 45.5zM189.5 617.5q-26.5 27.5 -26.5 69.5q0 40 27 66.5t68 26.5t67.5 -27t27.5 -68q0 -41 -26.5 -68
t-68.5 -27t-68.5 27.5zM297 645.5q15 15.5 15 39.5t-15 39.5t-40 15.5q-23 0 -39 -15.5t-16 -39.5t16 -39.5t39 -15.5q25 0 40 15.5z" />
    <glyph glyph-name="uring.alt1" horiz-adv-x="515" 
d="M101 37.5q-58 54.5 -59 145.5v325h109v-323q0 -48 29 -77.5t78 -29.5q48 0 77.5 29.5t29.5 77.5v323h108v-325q0 -92 -58.5 -146t-157.5 -54q-98 0 -156 54.5zM192.5 617.5q-26.5 27.5 -26.5 69.5q0 40 27 66.5t68 26.5t67.5 -27t27.5 -68q0 -41 -26.5 -68t-68.5 -27
t-68.5 27.5zM300 645.5q15 15.5 15 39.5t-15 39.5t-40 15.5q-23 0 -39 -15.5t-16 -39.5t16 -39.5t39 -15.5q25 0 40 15.5z" />
    <glyph glyph-name="Uhungarumlaut" unicode="&#x170;" horiz-adv-x="648" 
d="M178.5 10.5q-62.5 33.5 -96.5 94.5t-34 142v461h121v-458q0 -73 42.5 -120.5t113.5 -47.5t113 46t42 123v457h120v-461q0 -81 -34 -142t-96 -94.5t-145 -33.5q-84 0 -146.5 33.5zM234 788l78 129l33 -21l-78 -129zM373 788l78 129l34 -21l-79 -129z" />
    <glyph glyph-name="uhungarumlaut" unicode="&#x171;" 
d="M85 29.5q-42 45.5 -42 126.5v352h108v-335q0 -46 24.5 -72t65.5 -26q56 0 90 36t34 96v301h108v-508h-93l-13 72h-1q-27 -43 -68.5 -65.5t-96.5 -22.5q-74 0 -116 45.5zM160 621l93 149l34 -21l-94 -149zM300 621l93 149l34 -21l-94 -149z" />
    <glyph glyph-name="uhungarumlaut.alt1" horiz-adv-x="515" 
d="M101 37.5q-58 54.5 -59 145.5v325h109v-323q0 -48 29 -77.5t78 -29.5q48 0 77.5 29.5t29.5 77.5v323h108v-325q0 -92 -58.5 -146t-157.5 -54q-98 0 -156 54.5zM163 621l93 149l34 -21l-94 -149zM303 621l93 149l34 -21l-94 -149z" />
    <glyph glyph-name="Udieresis" unicode="&#xdc;" horiz-adv-x="648" 
d="M178.5 10.5q-62.5 33.5 -96.5 94.5t-34 142v461h121v-458q0 -73 42.5 -120.5t113.5 -47.5t113 46t42 123v457h120v-461q0 -81 -34 -142t-96 -94.5t-145 -33.5q-84 0 -146.5 33.5zM157 814.5q-19 18.5 -19 49.5q0 29 19 48t50 19q30 0 49.5 -19t19.5 -48q0 -30 -19.5 -49
t-49.5 -19q-31 0 -50 18.5zM393.5 814.5q-18.5 18.5 -18.5 49.5q0 30 19 48.5t49 18.5t49 -19t19 -48q0 -31 -19 -49.5t-49 -18.5q-31 0 -49.5 18.5z" />
    <glyph glyph-name="udieresis" unicode="&#xfc;" 
d="M85 29.5q-42 45.5 -42 126.5v352h108v-335q0 -46 24.5 -72t65.5 -26q56 0 90 36t34 96v301h108v-508h-93l-13 72h-1q-27 -43 -68.5 -65.5t-96.5 -22.5q-74 0 -116 45.5zM95 619q-19 19 -19 48t19 47.5t49 18.5t49.5 -18.5t19.5 -47.5t-19.5 -48t-49.5 -19t-49 19z
M321 619q-19 19 -19 48t19 47.5t49 18.5t49.5 -18.5t19.5 -47.5t-19.5 -48t-49.5 -19t-49 19z" />
    <glyph glyph-name="udieresis.alt1" horiz-adv-x="515" 
d="M101 37.5q-58 54.5 -59 145.5v325h109v-323q0 -48 29 -77.5t78 -29.5q48 0 77.5 29.5t29.5 77.5v323h108v-325q0 -92 -58.5 -146t-157.5 -54q-98 0 -156 54.5zM98 619q-19 19 -19 48t19 47.5t49 18.5t49.5 -18.5t19.5 -47.5t-19.5 -48t-49.5 -19t-49 19zM324 619
q-19 19 -19 48t19 47.5t49 18.5t49.5 -18.5t19.5 -47.5t-19.5 -48t-49.5 -19t-49 19z" />
    <glyph glyph-name="Uogonek" unicode="&#x172;" horiz-adv-x="648" 
d="M600 708v-461q0 -98 -49.5 -166t-136.5 -92q-70 -25 -102.5 -48.5t-32.5 -59.5q0 -21 13.5 -33.5t35.5 -12.5q16 0 34.5 10t34.5 26l28 -26q-19 -23 -46.5 -36.5t-52.5 -13.5q-40 0 -64 23t-24 60q0 60 66 101q-78 4 -136 38t-89 93.5t-31 136.5v461h121v-458
q0 -73 42.5 -120.5t113.5 -47.5t113 46t42 123v457h120z" />
    <glyph glyph-name="uogonek" unicode="&#x173;" 
d="M346.5 -55.5q-38.5 -24.5 -38.5 -63.5q0 -21 13.5 -33.5t35.5 -12.5q16 0 34.5 10t34.5 26l28 -26q-19 -23 -46.5 -36.5t-52.5 -13.5q-40 0 -64 23t-24 61q0 40 28.5 69.5t84.5 54.5l-13 69h-1q-27 -43 -68.5 -65.5t-96.5 -22.5q-74 0 -116 45.5t-42 126.5v352h108v-335
q0 -46 24.5 -72t65.5 -26q56 0 90 36t34 96v301h108v-508q-88 -31 -126.5 -55.5z" />
    <glyph glyph-name="uogonek.alt1" horiz-adv-x="515" 
d="M473 508v-325q0 -73 -38.5 -123.5t-106.5 -67.5q-73 -27 -107 -51t-34 -60q0 -21 13.5 -33.5t35.5 -12.5q16 0 34.5 10t34.5 26l28 -26q-19 -23 -46.5 -36.5t-52.5 -13.5q-40 0 -64 22.5t-24 59.5q0 34 19.5 60t57.5 48q-84 10 -132 62.5t-49 135.5v325h109v-323
q0 -48 29 -77.5t78 -29.5q48 0 77.5 29.5t29.5 77.5v323h108z" />
    <glyph glyph-name="Wgrave" unicode="&#x1e80;" horiz-adv-x="960" 
d="M9 708h123l140 -587h2l126 587h161l127 -587h2l138 587h123l-180 -708h-164l-125 576h-2l-127 -576h-164zM400 908l33 21l78 -129l-33 -21z" />
    <glyph glyph-name="wgrave" unicode="&#x1e81;" horiz-adv-x="787" 
d="M9 508h110l104 -399h1l107 399h125l110 -400h1l102 400h110l-144 -508h-133l-107 399h-2l-104 -399h-134zM298 749l34 21l93 -149l-34 -21z" />
    <glyph glyph-name="Wacute" unicode="&#x1e82;" horiz-adv-x="960" 
d="M9 708h123l140 -587h2l126 587h161l127 -587h2l138 587h123l-180 -708h-164l-125 576h-2l-127 -576h-164zM462 800l78 129l33 -21l-78 -129z" />
    <glyph glyph-name="wacute" unicode="&#x1e83;" horiz-adv-x="787" 
d="M9 508h110l104 -399h1l107 399h125l110 -400h1l102 400h110l-144 -508h-133l-107 399h-2l-104 -399h-134zM370 621l93 149l34 -21l-94 -149z" />
    <glyph glyph-name="Wcircumflex" unicode="&#x174;" horiz-adv-x="960" 
d="M9 708h123l140 -587h2l126 587h161l127 -587h2l138 587h123l-180 -708h-164l-125 576h-2l-127 -576h-164zM345 807l108 113h54l108 -113l-29 -27l-106 109l-106 -109z" />
    <glyph glyph-name="wcircumflex" unicode="&#x175;" horiz-adv-x="787" 
d="M9 508h110l104 -399h1l107 399h125l110 -400h1l102 400h110l-144 -508h-133l-107 399h-2l-104 -399h-134zM241 617l126 133h54l127 -133l-29 -27l-125 130l-124 -130z" />
    <glyph glyph-name="Wdieresis" unicode="&#x1e84;" horiz-adv-x="960" 
d="M9 708h123l140 -587h2l126 587h161l127 -587h2l138 587h123l-180 -708h-164l-125 576h-2l-127 -576h-164zM313 814.5q-19 18.5 -19 49.5q0 29 19 48t50 19q30 0 49.5 -19t19.5 -48q0 -30 -19.5 -49t-49.5 -19q-31 0 -50 18.5zM549.5 814.5q-18.5 18.5 -18.5 49.5
q0 30 19 48.5t49 18.5t49 -19t19 -48q0 -31 -19 -49.5t-49 -18.5q-31 0 -49.5 18.5z" />
    <glyph glyph-name="wdieresis" unicode="&#x1e85;" horiz-adv-x="787" 
d="M9 508h110l104 -399h1l107 399h125l110 -400h1l102 400h110l-144 -508h-133l-107 399h-2l-104 -399h-134zM231 619q-19 19 -19 48t19 47.5t49 18.5t49.5 -18.5t19.5 -47.5t-19.5 -48t-49.5 -19t-49 19zM457 619q-19 19 -19 48t19 47.5t49 18.5t49.5 -18.5t19.5 -47.5
t-19.5 -48t-49.5 -19t-49 19z" />
    <glyph glyph-name="Ygrave" unicode="&#x1ef2;" horiz-adv-x="597" 
d="M240 252l-231 456h128l162 -340h2l157 340h130l-228 -456v-252h-120v252zM218 908l33 21l78 -129l-33 -21z" />
    <glyph glyph-name="ygrave" unicode="&#x1ef3;" horiz-adv-x="518" 
d="M80.5 -197q-61.5 30 -94.5 84l71 70q25 -42 66 -66t92 -24q69 0 109 40t40 111v35h-1q-22 -40 -60.5 -62.5t-83.5 -22.5q-83 0 -131 53t-48 143v344h108v-337q0 -50 26.5 -80t73.5 -30q50 0 82 33t32 87v327h109l1 -493q0 -114 -67.5 -178t-184.5 -64q-78 0 -139.5 30z
M163 749l34 21l93 -149l-34 -21z" />
    <glyph glyph-name="ygrave.alt1" horiz-adv-x="503" 
d="M218 23l-209 485h114l144 -347h1l115 347h111l-244 -718h-112zM159 749l34 21l93 -149l-34 -21z" />
    <glyph glyph-name="Yacute" unicode="&#xdd;" horiz-adv-x="597" 
d="M240 252l-231 456h128l162 -340h2l157 340h130l-228 -456v-252h-120v252zM280 800l78 129l33 -21l-78 -129z" />
    <glyph glyph-name="yacute" unicode="&#xfd;" horiz-adv-x="518" 
d="M80.5 -197q-61.5 30 -94.5 84l71 70q25 -42 66 -66t92 -24q69 0 109 40t40 111v35h-1q-22 -40 -60.5 -62.5t-83.5 -22.5q-83 0 -131 53t-48 143v344h108v-337q0 -50 26.5 -80t73.5 -30q50 0 82 33t32 87v327h109l1 -493q0 -114 -67.5 -178t-184.5 -64q-78 0 -139.5 30z
M235 621l93 149l34 -21l-94 -149z" />
    <glyph glyph-name="yacute.alt1" horiz-adv-x="503" 
d="M218 23l-209 485h114l144 -347h1l115 347h111l-244 -718h-112zM231 621l93 149l34 -21l-94 -149z" />
    <glyph glyph-name="Ydieresis" unicode="&#x178;" horiz-adv-x="597" 
d="M240 252l-231 456h128l162 -340h2l157 340h130l-228 -456v-252h-120v252zM132 814.5q-19 18.5 -19 49.5q0 29 19 48t50 19q30 0 49.5 -19t19.5 -48q0 -30 -19.5 -49t-49.5 -19q-31 0 -50 18.5zM368.5 814.5q-18.5 18.5 -18.5 49.5q0 30 19 48.5t49 18.5t49 -19t19 -48
q0 -31 -19 -49.5t-49 -18.5q-31 0 -49.5 18.5z" />
    <glyph glyph-name="ydieresis" unicode="&#xff;" horiz-adv-x="518" 
d="M80.5 -197q-61.5 30 -94.5 84l71 70q25 -42 66 -66t92 -24q69 0 109 40t40 111v35h-1q-22 -40 -60.5 -62.5t-83.5 -22.5q-83 0 -131 53t-48 143v344h108v-337q0 -50 26.5 -80t73.5 -30q50 0 82 33t32 87v327h109l1 -493q0 -114 -67.5 -178t-184.5 -64q-78 0 -139.5 30z
M96 619q-19 19 -19 48t19 47.5t49 18.5t49.5 -18.5t19.5 -47.5t-19.5 -48t-49.5 -19t-49 19zM322 619q-19 19 -19 48t19 47.5t49 18.5t49.5 -18.5t19.5 -47.5t-19.5 -48t-49.5 -19t-49 19z" />
    <glyph glyph-name="ydieresis.alt1" horiz-adv-x="503" 
d="M218 23l-209 485h114l144 -347h1l115 347h111l-244 -718h-112zM92 619q-19 19 -19 48t19 47.5t49 18.5t49.5 -18.5t19.5 -47.5t-19.5 -48t-49.5 -19t-49 19zM318 619q-19 19 -19 48t19 47.5t49 18.5t49.5 -18.5t19.5 -47.5t-19.5 -48t-49.5 -19t-49 19z" />
    <glyph glyph-name="Ycircumflex" unicode="&#x176;" horiz-adv-x="597" 
d="M240 252l-231 456h128l162 -340h2l157 340h130l-228 -456v-252h-120v252zM164 807l108 113h54l108 -113l-29 -27l-106 109l-106 -109z" />
    <glyph glyph-name="ycircumflex" unicode="&#x177;" horiz-adv-x="518" 
d="M80.5 -197q-61.5 30 -94.5 84l71 70q25 -42 66 -66t92 -24q69 0 109 40t40 111v35h-1q-22 -40 -60.5 -62.5t-83.5 -22.5q-83 0 -131 53t-48 143v344h108v-337q0 -50 26.5 -80t73.5 -30q50 0 82 33t32 87v327h109l1 -493q0 -114 -67.5 -178t-184.5 -64q-78 0 -139.5 30z
M106 617l126 133h54l127 -133l-29 -27l-125 130l-124 -130z" />
    <glyph glyph-name="ycircumflex.alt1" horiz-adv-x="503" 
d="M218 23l-209 485h114l144 -347h1l115 347h111l-244 -718h-112zM102 617l126 133h54l127 -133l-29 -27l-125 130l-124 -130z" />
    <glyph glyph-name="Zacute" unicode="&#x179;" horiz-adv-x="542" 
d="M13 108l378 503h-368v97h497v-109l-378 -502h388v-97h-517v108zM258 800l78 129l33 -21l-78 -129z" />
    <glyph glyph-name="zacute" unicode="&#x17a;" horiz-adv-x="454" 
d="M20 106l289 311h-279v91h395v-106l-290 -311h300v-91h-415v106zM205 621l93 149l34 -21l-94 -149z" />
    <glyph glyph-name="Zdotaccent" unicode="&#x17b;" horiz-adv-x="542" 
d="M13 108l378 503h-368v97h497v-109l-378 -502h388v-97h-517v108zM226.5 815q-19.5 19 -19.5 50q0 30 19.5 49t50.5 19t51 -19t20 -49q0 -31 -19.5 -50t-51.5 -19q-31 0 -50.5 19z" />
    <glyph glyph-name="zdotaccent" unicode="&#x17c;" horiz-adv-x="454" 
d="M20 106l289 311h-279v91h395v-106l-290 -311h300v-91h-415v106zM177.5 617.5q-19.5 19.5 -19.5 50.5q0 29 19.5 48.5t50.5 19.5t50.5 -19.5t19.5 -48.5q0 -31 -19.5 -50.5t-50.5 -19.5t-50.5 19.5z" />
    <glyph glyph-name="Zcaron" unicode="&#x17d;" horiz-adv-x="542" 
d="M13 108l378 503h-368v97h497v-109l-378 -502h388v-97h-517v108zM141 903l29 27l106 -110l106 110l29 -27l-108 -113h-54z" />
    <glyph glyph-name="zcaron" unicode="&#x17e;" horiz-adv-x="454" 
d="M20 106l289 311h-279v91h395v-106l-290 -311h300v-91h-415v106zM75 733l29 27l124 -129l125 129l29 -27l-127 -133h-54z" />
    <glyph glyph-name="uni1E9E" unicode="&#x1e9e;" horiz-adv-x="586" 
d="M534.5 228q23.5 -37 23.5 -88q0 -69 -46 -110.5t-120 -41.5q-78 0 -125.5 45t-52.5 122l78 37q2 -53 26.5 -85t65.5 -32q26 0 43.5 16.5t17.5 43.5q0 23 -16 43.5t-51 43.5l-62 39q-43 26 -62.5 55t-19.5 66q0 47 36.5 81t109.5 49q3 15 3 30q0 42 -24 64.5t-65 22.5
q-55 0 -90 -38t-35 -101v-490h-121v498q0 69 31 120.5t87 80t129 28.5q92 0 149 -46.5t57 -130.5q0 -60 -19 -99q-68 -9 -99.5 -24t-31.5 -37q0 -13 10 -25t33 -26l66 -41q51 -33 74.5 -70z" />
    <glyph glyph-name="germandbls" unicode="&#xdf;" horiz-adv-x="564" 
d="M513.5 223.5q21.5 -35.5 21.5 -83.5q0 -69 -45.5 -110.5t-117.5 -41.5q-70 0 -115 45.5t-50 121.5l79 37q2 -52 24 -82t57 -30q28 0 43.5 14t15.5 42q0 22 -13.5 41.5t-42.5 39.5l-62 44q-42 29 -61 56.5t-19 60.5q0 52 33.5 85.5t104.5 57.5q4 32 4 44q0 43 -25.5 67
t-67.5 24q-53 0 -83 -39.5t-30 -109.5v-507h-116v514q0 112 62 176t169 64q92 0 148.5 -50t56.5 -139q0 -60 -18 -103q-71 -13 -99 -29t-28 -41q0 -13 11 -27t36 -31l58 -43q48 -32 69.5 -67.5z" />
    <glyph glyph-name="ampersand" unicode="&#x26;" horiz-adv-x="679" 
d="M679 0h-141l-68 67q-46 -41 -103 -63.5t-115 -22.5q-66 0 -117 25t-79 71t-28 106q0 69 32 115.5t101 82.5q-26 34 -41 74t-15 79q0 56 25 100t70.5 68t102.5 24q86 0 140 -47t54 -129q0 -67 -41 -114t-130 -82l144 -147q43 56 73 138l74 -73q-34 -77 -78 -131zM239 604
q-25 -27 -25 -70q0 -58 49 -116q67 26 97.5 56t30.5 68t-25.5 63.5t-62.5 25.5q-39 0 -64 -27zM341.5 92q35.5 15 62.5 42l-177 178q-46 -22 -66.5 -50t-20.5 -71q0 -51 35 -82.5t91 -31.5q40 0 75.5 15z" />
    <glyph glyph-name="zero" unicode="0" horiz-adv-x="658" 
d="M180 25q-64 46 -98.5 131t-34.5 198t34.5 198t98.5 131t149 46t149 -46t98.5 -131t34.5 -198t-34.5 -198t-98.5 -131t-149 -46t-149 46zM448 155.5q44 73.5 44 198.5t-44 198.5t-119 73.5q-76 0 -120 -73.5t-44 -198.5t44 -198.5t120 -73.5q75 0 119 73.5z" />
    <glyph glyph-name="one" unicode="1" horiz-adv-x="446" 
d="M25 100h160v449h-1q-27 -46 -108 -77l-40 105q60 16 101 50t59 81h108v-608h132v-100h-411v100z" />
    <glyph glyph-name="two" unicode="2" horiz-adv-x="554" 
d="M46 61q1 99 37.5 160t126.5 112l90 54q49 28 68.5 57t19.5 73q0 50 -27 80.5t-71 30.5q-51 0 -82 -43t-31 -121l-119 22q1 72 30.5 127t82.5 85.5t121 30.5q64 0 113 -27t76 -75.5t27 -111.5q0 -70 -31.5 -117t-107.5 -91l-95 -56q-58 -35 -80.5 -69t-22.5 -84h343v-98
h-468v61z" />
    <glyph glyph-name="three" unicode="3" horiz-adv-x="572" 
d="M162.5 9q-57.5 30 -91 84.5t-35.5 124.5l110 28q3 -75 42.5 -120.5t103.5 -45.5q54 0 88 33t34 86q0 55 -33.5 90t-82.5 37l-41 2v80l46 2q37 1 58.5 30t21.5 75q0 50 -26 81t-68 31q-47 0 -76.5 -40t-30.5 -105l-118 15q1 67 30 119.5t80 81.5t117 29q61 0 108 -25
t73.5 -70t26.5 -103q0 -54 -23.5 -94.5t-65.5 -61.5v-1q59 -23 91.5 -69.5t32.5 -108.5q0 -63 -30 -112t-84.5 -76t-125.5 -27q-74 0 -131.5 30z" />
    <glyph glyph-name="three.alt1" horiz-adv-x="568" 
d="M162 9q-57 30 -90.5 84t-35.5 124l110 29q3 -74 41.5 -120t100.5 -46q54 0 88 37t34 95q0 62 -35.5 101t-92.5 39q-28 0 -48 -9l-54 76l185 189h-269v100h384v-115l-168 -166h16q58 -2 104 -30.5t72 -78.5t26 -113q0 -67 -30 -118t-84.5 -79.5t-124.5 -28.5
q-72 0 -129 30z" />
    <glyph glyph-name="four" unicode="4" horiz-adv-x="554" 
d="M327 150h-308v73l270 485h155v-461h80v-97h-80v-150h-117v150zM327 247v334h-1l-184 -334h185z" />
    <glyph glyph-name="five" unicode="5" horiz-adv-x="540" 
d="M141 6.5q-55 27.5 -87 77.5t-35 116l114 27q2 -66 39 -106.5t94 -40.5q58 0 92 40t34 107q0 70 -34.5 112t-92.5 42q-28 0 -55.5 -13t-43.5 -35l-87 22l23 353h348v-99h-246l-14 -176q17 18 48 28t65 10q63 0 110 -30t73 -85t26 -128q0 -75 -30.5 -131t-86.5 -87
t-129 -31q-70 0 -125 27.5z" />
    <glyph glyph-name="six" unicode="6" horiz-adv-x="595" 
d="M465 666q58 -64 71 -179l-111 -17q-13 162 -120 162q-65 0 -104 -66t-40 -189q26 39 67.5 59t102.5 20q63 0 112.5 -29.5t77.5 -82.5t28 -120q0 -72 -31 -127t-88.5 -85.5t-133.5 -30.5q-121 0 -185 82t-64 243q0 195 62 309.5t196 114.5q102 0 160 -64zM202.5 326
q-36.5 -39 -36.5 -101q0 -64 36.5 -103.5t97.5 -39.5q59 0 94 39.5t35 103.5q0 62 -35 101t-93 39q-62 0 -98.5 -39z" />
    <glyph glyph-name="seven" unicode="7" horiz-adv-x="477" 
d="M336 606h-316v102h438v-91q-97 -137 -150.5 -290t-69.5 -327h-130q35 348 228 606z" />
    <glyph glyph-name="eight" unicode="8" horiz-adv-x="565" 
d="M100.5 37.5q-67.5 57.5 -67.5 155.5q0 72 38.5 121.5t105.5 64.5q-51 16 -81 60t-30 102q0 86 59 138t158 52t158 -51.5t59 -138.5q0 -58 -30.5 -101.5t-83.5 -60.5q68 -15 107 -64.5t39 -122.5q0 -98 -67 -155t-182 -57t-182.5 57.5zM355.5 444.5q27.5 30.5 27.5 80.5
q0 48 -27.5 77t-72.5 29t-72.5 -29t-27.5 -77q0 -50 27.5 -80.5t72.5 -30.5t72.5 30.5zM377.5 113q35.5 34 35.5 90t-36 90.5t-94 34.5t-94 -34.5t-36 -90.5t35.5 -90t94.5 -34t94.5 34z" />
    <glyph glyph-name="nine" unicode="9" horiz-adv-x="612" 
d="M157 10.5q-57 30.5 -91 86t-42 127.5l112 16q5 -72 46.5 -117t107.5 -45q73 0 116.5 65.5t44.5 190.5q-26 -38 -66.5 -58.5t-107.5 -20.5q-61 0 -110 29.5t-76.5 82.5t-27.5 120q0 72 31.5 127t88 85.5t130.5 30.5q121 0 186.5 -82.5t65.5 -243.5q0 -424 -278 -424
q-73 0 -130 30.5zM409.5 385q36.5 39 36.5 101q0 64 -36.5 103.5t-97.5 39.5q-59 -1 -94 -40.5t-35 -102.5q0 -62 35.5 -101t93.5 -39q61 0 97.5 39z" />
    <glyph glyph-name="exclam" unicode="!" horiz-adv-x="238" 
d="M61 520v188h117v-188l-28 -325h-62zM67.5 7q-20.5 20 -20.5 51t20 50.5t52 19.5t52 -19.5t20 -50.5t-20.5 -51t-51.5 -20t-51.5 20z" />
    <glyph glyph-name="exclamdown" unicode="&#xa1;" horiz-adv-x="238" 
d="M171 511q20 -20 20 -51t-20 -50.5t-51 -19.5q-32 0 -52.5 19.5t-20.5 50.5t20.5 51t52.5 20q31 0 51 -20zM177 -2v-188h-117v188l28 325h62z" />
    <glyph glyph-name="question" unicode="?" horiz-adv-x="487" 
d="M199 316q21 44 65 80l23 19q28 23 42.5 47t14.5 56q0 49 -30.5 80.5t-76.5 31.5q-50 0 -82 -39t-35 -106l-110 26q2 66 32.5 115.5t82 76.5t114.5 27q64 0 115 -26.5t80 -73.5t29 -107q0 -57 -22.5 -95t-66.5 -72l-26 -19q-35 -28 -50 -58.5t-15 -84.5h-105q0 78 21 122z
M181 6.5q-20 19.5 -20 50.5t20 50.5t51 19.5q32 0 52.5 -19.5t20.5 -50.5t-20.5 -50.5t-52.5 -19.5q-31 0 -51 19.5z" />
    <glyph glyph-name="questiondown" unicode="&#xbf;" horiz-adv-x="487" 
d="M291.5 511q20.5 -20 20.5 -51t-20 -50.5t-52 -19.5t-52 19.5t-20 50.5t20.5 51t51.5 20t51.5 -20zM274 201.5q-21 -44.5 -65 -80.5l-23 -19q-28 -22 -42.5 -46t-14.5 -57q0 -49 30 -80.5t77 -31.5q49 0 81.5 39t34.5 106l111 -26q-3 -66 -33.5 -116t-81.5 -76.5
t-115 -26.5t-115 26.5t-79.5 73.5t-28.5 107q0 58 22 95.5t66 71.5l26 19q36 27 50.5 57.5t14.5 85.5h106q0 -77 -21 -121.5z" />
    <glyph glyph-name="period" unicode="." horiz-adv-x="218" 
d="M57.5 7q-20.5 20 -20.5 51t20 50.5t52 19.5t52 -19.5t20 -50.5t-20.5 -51t-51.5 -20t-51.5 20z" />
    <glyph glyph-name="comma" unicode="," horiz-adv-x="239" 
d="M49 -109q12 -3 23 -3q38 0 63.5 31.5t24.5 78.5q-19 -9 -37 -9q-29 0 -48.5 20t-19.5 48q0 31 20 50.5t49 19.5q36 0 57 -29.5t21 -84.5q0 -75 -35.5 -120t-92.5 -45q-15 0 -37 5z" />
    <glyph glyph-name="colon" unicode=":" horiz-adv-x="218" 
d="M57.5 401q-20.5 20 -20.5 51t20 50.5t52 19.5t52 -19.5t20 -50.5t-20.5 -51t-51.5 -20t-51.5 20zM57.5 7q-20.5 20 -20.5 51t20 50.5t52 19.5t52 -19.5t20 -50.5t-20.5 -51t-51.5 -20t-51.5 20z" />
    <glyph glyph-name="semicolon" unicode=";" horiz-adv-x="239" 
d="M49 -109q12 -3 23 -3q38 0 63.5 31.5t24.5 78.5q-19 -9 -37 -9q-29 0 -48.5 20t-19.5 48q0 31 20 50.5t49 19.5q36 0 57 -29.5t21 -84.5q0 -75 -35.5 -120t-92.5 -45q-15 0 -37 5zM75.5 401q-20.5 20 -20.5 51t20 50.5t52 19.5t52 -19.5t20 -50.5t-20.5 -51t-51.5 -20
t-51.5 20z" />
    <glyph glyph-name="ellipsis" unicode="&#x2026;" horiz-adv-x="607" 
d="M57.5 7q-20.5 20 -20.5 51t20 50.5t52 19.5t52 -19.5t20 -50.5t-20.5 -51t-51.5 -20t-51.5 20zM251.5 7q-20.5 20 -20.5 51t20 50.5t52 19.5t52 -19.5t20 -50.5t-20.5 -51t-51.5 -20t-51.5 20zM446.5 7q-20.5 20 -20.5 51t20 50.5t52 19.5t52 -19.5t20 -50.5t-20.5 -51
t-51.5 -20t-51.5 20z" />
    <glyph glyph-name="periodcentered" unicode="&#xb7;" horiz-adv-x="218" 
d="M57.5 235q-20.5 20 -20.5 51t20 50.5t52 19.5t52 -19.5t20 -50.5t-20.5 -51t-51.5 -20t-51.5 20z" />
    <glyph glyph-name="bullet" unicode="&#x2022;" horiz-adv-x="301" 
d="M69 230.5q-32 30.5 -32 79.5t32 79.5t82 30.5t81.5 -30.5t31.5 -79.5t-31.5 -79.5t-81.5 -30.5t-82 30.5z" />
    <glyph glyph-name="hyphen" unicode="-" horiz-adv-x="415" 
d="M47 307h321v-88h-321v88z" />
    <glyph glyph-name="endash" unicode="&#x2013;" horiz-adv-x="585" 
d="M47 290h491v-40h-491v40z" />
    <glyph glyph-name="emdash" unicode="&#x2014;" horiz-adv-x="899" 
d="M47 290h806v-40h-806v40z" />
    <glyph glyph-name="underscore" unicode="_" horiz-adv-x="450" 
d="M0 0h450v-40h-450v40z" />
    <glyph glyph-name="quotesingle" unicode="'" horiz-adv-x="118" 
d="M40 708h40v-284h-41z" />
    <glyph glyph-name="quotesinglbase" unicode="&#x201a;" horiz-adv-x="239" 
d="M49 -109q12 -3 23 -3q38 0 63.5 31.5t24.5 78.5q-19 -9 -37 -9q-29 0 -48.5 20t-19.5 48q0 31 20 50.5t49 19.5q36 0 57 -29.5t21 -84.5q0 -75 -35.5 -120t-92.5 -45q-15 0 -37 5z" />
    <glyph glyph-name="quoteleft" unicode="&#x2018;" horiz-adv-x="239" 
d="M190 687q-12 3 -23 3q-38 0 -63.5 -31.5t-24.5 -78.5q19 9 37 9q29 0 48.5 -20t19.5 -48q0 -30 -19.5 -50t-49.5 -20q-36 0 -57 29.5t-21 84.5q0 75 35.5 120t92.5 45q15 0 37 -5z" />
    <glyph glyph-name="quoteright" unicode="&#x2019;" horiz-adv-x="239" 
d="M49 494q12 -3 23 -3q38 0 63.5 31.5t24.5 78.5q-19 -9 -37 -9q-29 0 -48.5 20t-19.5 48q0 31 20 50.5t49 19.5q36 0 57 -29.5t21 -84.5q0 -75 -35.5 -120t-92.5 -45q-15 0 -37 5z" />
    <glyph glyph-name="quotedbl" unicode="&#x22;" horiz-adv-x="241" 
d="M41 708h40v-284h-41zM161 708h40v-284h-41z" />
    <glyph glyph-name="quotedblleft" unicode="&#x201c;" horiz-adv-x="426" 
d="M190 687q-12 3 -23 3q-38 0 -63.5 -31.5t-24.5 -78.5q19 9 37 9q29 0 48.5 -20t19.5 -48q0 -30 -19.5 -50t-49.5 -20q-36 0 -57 29.5t-21 84.5q0 75 35.5 120t92.5 45q15 0 37 -5zM377 687q-12 3 -23 3q-38 0 -63.5 -31.5t-24.5 -78.5q19 9 37 9q29 0 48.5 -20t19.5 -48
q0 -30 -19.5 -50t-49.5 -20q-36 0 -57 29.5t-21 84.5q0 75 35.5 120t92.5 45q15 0 37 -5z" />
    <glyph glyph-name="quotedblright" unicode="&#x201d;" horiz-adv-x="426" 
d="M49 494q12 -3 23 -3q38 0 63.5 31.5t24.5 78.5q-20 -9 -37 -9q-29 0 -48.5 20t-19.5 48q0 31 20 50.5t49 19.5q36 0 57 -29.5t21 -84.5q0 -75 -35.5 -120t-92.5 -45q-15 0 -37 5zM235 494q12 -3 23 -3q38 0 64 31.5t25 78.5q-19 -9 -37 -9q-28 0 -48 19.5t-20 46.5
q0 31 20 51.5t49 20.5q35 0 56 -29.5t21 -84.5q1 -75 -34.5 -120t-92.5 -45q-15 0 -37 5z" />
    <glyph glyph-name="quotedblbase" unicode="&#x201e;" horiz-adv-x="426" 
d="M49 -109q12 -3 23 -3q38 0 63.5 31.5t24.5 78.5q-19 -9 -37 -9q-29 0 -48.5 20t-19.5 48q0 31 20 50.5t49 19.5q36 0 57 -29.5t21 -84.5q0 -75 -35.5 -120t-92.5 -45q-15 0 -37 5zM235 -109q12 -3 23 -3q38 0 64 31.5t25 78.5q-19 -9 -37 -9q-28 0 -48 19.5t-20 46.5
q0 31 20 51.5t49 20.5q35 0 56 -29.5t21 -84.5q1 -75 -34.5 -120t-92.5 -45q-15 0 -37 5z" />
    <glyph glyph-name="parenleft" unicode="(" horiz-adv-x="224" 
d="M78 20.5q-45 133.5 -45 259.5t45 258.5t114 209.5l31 -26q-66 -77 -108 -201.5t-42 -239.5q0 -114 42.5 -241.5t107.5 -203.5l-31 -26q-69 77 -114 210.5z" />
    <glyph glyph-name="parenright" unicode=")" horiz-adv-x="224" 
d="M1 -164q70 82 110 205t40 240t-40 237.5t-110 203.5l31 26q75 -83 117 -210.5t42 -257.5q0 -129 -42.5 -258.5t-116.5 -211.5z" />
    <glyph glyph-name="bracketleft" unicode="[" horiz-adv-x="223" 
d="M57 748h164v-40h-123v-858h123v-40h-164v938z" />
    <glyph glyph-name="bracketright" unicode="]" horiz-adv-x="223" 
d="M1 -190v40h123v858h-123v40h164v-938h-164z" />
    <glyph glyph-name="braceleft" unicode="{" horiz-adv-x="292" 
d="M140.5 -162.5q-24.5 27.5 -24.5 72.5v261q0 34 -17 55t-46 23l-20 1v63l20 1q29 2 46 23t17 56v255q0 45 25 72.5t65 27.5h85v-40h-85q-22 0 -36 -16.5t-14 -43.5v-265q0 -41 -22 -68.5t-58 -31.5v-2q36 -4 58 -31.5t22 -68.5v-271q0 -27 14 -43.5t36 -16.5h85l-1 -40
h-85q-40 0 -64.5 27.5z" />
    <glyph glyph-name="braceright" unicode="}" horiz-adv-x="292" 
d="M2 -190l-1 40h85q23 0 36.5 16.5t13.5 43.5v271q0 41 22 68.5t58 31.5v2q-36 4 -58 31.5t-22 68.5v265q0 27 -13.5 43.5t-36.5 16.5h-85v40h85q40 0 65 -27.5t25 -72.5v-255q0 -35 17 -56t46 -23l20 -1v-63l-20 -1q-29 -2 -46 -23t-17 -55v-261q0 -45 -24.5 -72.5
t-64.5 -27.5h-85z" />
    <glyph glyph-name="slash" unicode="/" horiz-adv-x="319" 
d="M1 -229l277 949l39 -12l-278 -948z" />
    <glyph glyph-name="bar" unicode="|" horiz-adv-x="154" 
d="M57 738h40v-968h-40v968z" />
    <glyph glyph-name="backslash" unicode="\" horiz-adv-x="320" 
d="M2 708l40 12l276 -949l-38 -11z" />
    <glyph glyph-name="guillemotleft" unicode="&#xab;" horiz-adv-x="437" 
d="M28 254l185 264l33 -23l-168 -241l167 -241l-32 -23zM191 254l185 264l33 -23l-167 -241l167 -241l-33 -23z" />
    <glyph glyph-name="guillemotright" unicode="&#xbb;" horiz-adv-x="438" 
d="M28 13l167 241l-167 241l33 23l185 -264l-185 -264zM193 13l167 241l-168 241l33 23l185 -264l-185 -264z" />
    <glyph glyph-name="guilsinglleft" unicode="&#x2039;" horiz-adv-x="273" 
d="M28 254l185 264l33 -23l-168 -241l167 -241l-32 -23z" />
    <glyph glyph-name="guilsinglright" unicode="&#x203a;" horiz-adv-x="273" 
d="M28 13l167 241l-167 241l33 23l185 -264l-185 -264z" />
    <glyph glyph-name="asterisk" unicode="*" horiz-adv-x="458" 
d="M209 403q0 15 -6 23.5t-17 8.5q-9 0 -20 -7l-113 -65l-20 35l112 65q19 12 19 25q0 15 -19 25l-112 65l20 35l113 -65q11 -7 20 -7q11 0 17 8.5t6 23.5v130h40v-130q0 -15 6 -23.5t17 -8.5q9 0 20 7l113 65l20 -35l-113 -65q-19 -11 -19 -25q0 -12 19 -25l113 -65
l-20 -35l-113 65q-11 7 -20 7q-11 0 -17 -8.5t-6 -23.5v-130h-40v130z" />
    <glyph glyph-name="numbersign" unicode="#" horiz-adv-x="898" 
d="M201 0l66 244h-239v40h250l51 190h-251v40h262l60 222l39 -10l-57 -212h192l59 222l38 -11l-56 -211h255l1 -40h-267l-50 -190h267l-1 -40h-277l-67 -254l-39 10l65 244h-193l-69 -254zM513 284l50 190h-192l-52 -190h194z" />
    <glyph glyph-name="colon.case" horiz-adv-x="218" 
d="M57.5 481q-20.5 20 -20.5 51t20 50.5t52 19.5t52 -19.5t20 -50.5t-20.5 -51t-51.5 -20t-51.5 20zM57.5 87q-20.5 20 -20.5 51t20 50.5t52 19.5t52 -19.5t20 -50.5t-20.5 -51t-51.5 -20t-51.5 20z" />
    <glyph glyph-name="semicolon.case" horiz-adv-x="239" 
d="M49 -29q12 -3 23 -3q38 0 63.5 31.5t24.5 78.5q-19 -9 -37 -9q-29 0 -48.5 20t-19.5 48q0 31 20 50.5t49 19.5q36 0 57 -29.5t21 -84.5q0 -75 -35.5 -120t-92.5 -45q-15 0 -37 5zM75.5 481q-20.5 20 -20.5 51t20 50.5t52 19.5t52 -19.5t20 -50.5t-20.5 -51t-51.5 -20
t-51.5 20z" />
    <glyph glyph-name="exclamdown.case" horiz-adv-x="238" 
d="M171 701q20 -20 20 -51t-20 -50.5t-51 -19.5q-32 0 -52.5 19.5t-20.5 50.5t20.5 51t52.5 20q31 0 51 -20zM177 188v-188h-117v188l28 325h62z" />
    <glyph glyph-name="questiondown.case" horiz-adv-x="487" 
d="M291.5 701q20.5 -20 20.5 -51t-20 -50.5t-52 -19.5t-52 19.5t-20 50.5t20.5 51t51.5 20t51.5 -20zM274 391.5q-21 -44.5 -65 -80.5l-23 -19q-28 -22 -42.5 -46t-14.5 -57q0 -49 30 -80.5t77 -31.5q49 0 81.5 39t34.5 106l111 -26q-3 -66 -33.5 -116t-81.5 -76.5
t-115 -26.5t-115 26.5t-79.5 73.5t-28.5 107q0 58 22 95.5t66 71.5l26 19q36 27 50.5 57.5t14.5 85.5h106q0 -77 -21 -121.5z" />
    <glyph glyph-name="slash.case" horiz-adv-x="318" 
d="M1 -40l277 801l39 -16l-279 -800z" />
    <glyph glyph-name="backslash.case" horiz-adv-x="318" 
d="M1 745l39 15l277 -799l-37 -15z" />
    <glyph glyph-name="parenleft.case" horiz-adv-x="224" 
d="M78 90.5q-45 133.5 -45 259.5t45 258.5t114 209.5l31 -26q-66 -77 -108 -201.5t-42 -239.5q0 -114 42.5 -241.5t107.5 -203.5l-31 -26q-69 77 -114 210.5z" />
    <glyph glyph-name="parenright.case" horiz-adv-x="224" 
d="M1 -94q65 76 107.5 203.5t42.5 241.5q0 115 -42 239.5t-108 201.5l31 26q69 -77 114 -209.5t45 -258.5t-45 -259.5t-114 -210.5z" />
    <glyph glyph-name="braceleft.case" horiz-adv-x="292" 
d="M140.5 -92.5q-24.5 27.5 -24.5 72.5v261q0 34 -17 55t-46 23l-20 1v63l20 1q29 2 46 23t17 56v255q0 45 25 72.5t65 27.5h85v-40h-85q-22 0 -36 -16.5t-14 -43.5v-265q0 -41 -22 -68.5t-58 -31.5v-2q36 -4 58 -31.5t22 -68.5v-271q0 -27 14 -43.5t36 -16.5h85l-1 -40h-85
q-40 0 -64.5 27.5z" />
    <glyph glyph-name="braceright.case" horiz-adv-x="292" 
d="M2 -120l-1 40h85q23 0 36.5 16.5t13.5 43.5v271q0 41 22 68.5t58 31.5v2q-36 4 -58 31.5t-22 68.5v265q0 27 -13.5 43.5t-36.5 16.5h-85v40h85q40 0 65 -27.5t25 -72.5v-255q0 -35 17 -56t46 -23l20 -1v-63l-20 -1q-29 -2 -46 -23t-17 -55v-261q0 -45 -24.5 -72.5
t-64.5 -27.5h-85z" />
    <glyph glyph-name="bracketleft.case" horiz-adv-x="223" 
d="M57 818h164v-40h-123v-858h123v-40h-164v938z" />
    <glyph glyph-name="bracketright.case" horiz-adv-x="223" 
d="M1 -120v40h123v858h-123v40h164v-938h-164z" />
    <glyph glyph-name="hyphen.case" horiz-adv-x="415" 
d="M47 414h321v-88h-321v88z" />
    <glyph glyph-name="endash.case" horiz-adv-x="585" 
d="M47 390h491v-40h-491v40z" />
    <glyph glyph-name="emdash.case" horiz-adv-x="899" 
d="M47 390h806v-40h-806v40z" />
    <glyph glyph-name="guillemotleft.case" horiz-adv-x="437" 
d="M28 354l185 264l33 -23l-168 -241l167 -241l-32 -23zM191 354l185 264l33 -23l-167 -241l167 -241l-33 -23z" />
    <glyph glyph-name="guillemotright.case" horiz-adv-x="437" 
d="M246 354l-185 -264l-33 23l167 241l-167 242l33 22zM409 354l-185 -264l-33 23l168 241l-167 242l32 22z" />
    <glyph glyph-name="guilsinglleft.case" horiz-adv-x="273" 
d="M28 354l185 264l33 -23l-168 -241l167 -241l-32 -23z" />
    <glyph glyph-name="guilsinglright.case" horiz-adv-x="274" 
d="M245 354l-185 -264l-33 23l168 241l-167 242l32 22z" />
    <glyph glyph-name="plus" unicode="+" horiz-adv-x="516" 
d="M204 317h-157v93h157v170h108v-170h157v-93h-157v-177h-108v177z" />
    <glyph glyph-name="minus" unicode="&#x2212;" horiz-adv-x="496" 
d="M47 413h403v-93h-403v93z" />
    <glyph glyph-name="plusminus" unicode="&#xb1;" horiz-adv-x="514" 
d="M205 384h-158v91h158v112h103v-112h159v-91h-159v-117h-103v117zM47 190h420v-40h-420v40z" />
    <glyph glyph-name="multiply" unicode="&#xd7;" horiz-adv-x="389" 
d="M47 261l88 103l-88 104l64 64l83 -100l84 98l64 -63l-88 -103l88 -103l-63 -64l-85 99l-83 -99z" />
    <glyph glyph-name="divide" unicode="&#xf7;" horiz-adv-x="494" 
d="M197 496q-19 19 -19 50q0 29 19 48t49 19q31 0 50.5 -19t19.5 -48q0 -31 -19.5 -50t-50.5 -19q-30 0 -49 19zM47 377h400v-40h-400v40zM197 121.5q-19 19.5 -19 49.5q0 29 19 48.5t49 19.5q31 0 50.5 -19.5t19.5 -48.5q0 -30 -19.5 -49.5t-50.5 -19.5q-30 0 -49 19.5z
" />
    <glyph glyph-name="less" unicode="&#x3c;" horiz-adv-x="418" 
d="M47 278v128l282 169l42 -84l-259 -148l259 -149l-43 -85z" />
    <glyph glyph-name="greater" unicode="&#x3e;" horiz-adv-x="418" 
d="M371 406v-128l-282 -169l-42 84l259 148l-259 149l43 85z" />
    <glyph glyph-name="lessequal" unicode="&#x2264;" horiz-adv-x="403" 
d="M47 347v114l280 128l29 -85l-239 -100l239 -100l-29 -84zM47 167h309v-40h-309v40z" />
    <glyph glyph-name="greaterequal" unicode="&#x2265;" horiz-adv-x="403" 
d="M47 304l239 100l-239 100l28 85l281 -128v-114l-280 -127zM47 127v40h309v-40h-309z" />
    <glyph glyph-name="equal" unicode="=" horiz-adv-x="513" 
d="M47 502h420v-88h-420v88zM47 306h420v-88h-420v88z" />
    <glyph glyph-name="notequal" unicode="&#x2260;" horiz-adv-x="513" 
d="M301 414l-34 -108h200v-88h-228l-72 -230l-38 10l68 220h-150v88h178l33 108h-211v88h239l66 213l40 -12l-63 -201h138v-88h-166z" />
    <glyph glyph-name="logicalnot" unicode="&#xac;" horiz-adv-x="583" 
d="M443 373h-396v88h489v-281h-93v193z" />
    <glyph glyph-name="degree" unicode="&#xb0;" horiz-adv-x="455" 
d="M125.5 361.5q-45.5 25.5 -71.5 70.5t-26 101q0 58 26 104.5t71.5 72.5t102.5 26t102.5 -26t71.5 -71.5t26 -103.5q0 -57 -26 -102.5t-71.5 -71t-102.5 -25.5t-102.5 25.5zM310.5 396.5q36.5 20.5 57 57t20.5 81.5q0 46 -20.5 82.5t-57 57.5t-81.5 21q-46 0 -83 -21
t-57.5 -57.5t-20.5 -82.5q0 -45 21 -81.5t57.5 -57t82.5 -20.5q45 0 81.5 20.5z" />
    <glyph glyph-name="percent" unicode="%" horiz-adv-x="965" 
d="M211 13l521 733l33 -23l-521 -733zM125.5 361.5q-45.5 25.5 -71.5 70.5t-26 101q0 58 26 104.5t71.5 72.5t102.5 26t102.5 -26t71.5 -71.5t26 -103.5q0 -57 -26 -102.5t-71.5 -71t-102.5 -25.5t-102.5 25.5zM310 454q32 32 32 81q0 50 -32 82.5t-81 32.5
q-51 0 -83.5 -32.5t-32.5 -82.5q0 -49 33 -81t83 -32q49 0 81 32zM635.5 11.5q-45.5 25.5 -71.5 71t-26 102.5q0 58 26 103.5t71.5 71.5t102.5 26t102.5 -26t71.5 -71.5t26 -103.5q0 -57 -26 -102.5t-71.5 -71t-102.5 -25.5t-102.5 25.5zM820 104q32 32 32 81q0 50 -32 82.5
t-81 32.5q-51 0 -83.5 -32.5t-32.5 -82.5q0 -49 33 -81t83 -32q49 0 81 32z" />
    <glyph glyph-name="perthousand" unicode="&#x2030;" horiz-adv-x="1456" 
d="M211 13l521 733l33 -23l-521 -733zM125.5 361.5q-45.5 25.5 -71.5 70.5t-26 101q0 58 26 104.5t71.5 72.5t102.5 26t102.5 -26t71.5 -71.5t26 -103.5q0 -57 -26 -102.5t-71.5 -71t-102.5 -25.5t-102.5 25.5zM310 454q32 32 32 81q0 50 -32 82.5t-81 32.5
q-51 0 -83.5 -32.5t-32.5 -82.5q0 -49 33 -81t83 -32q49 0 81 32zM635.5 11.5q-45.5 25.5 -71.5 71t-26 102.5q0 58 26 103.5t71.5 71.5t102.5 26t102.5 -26t71.5 -71.5t26 -103.5q0 -57 -26 -102.5t-71.5 -71t-102.5 -25.5t-102.5 25.5zM1126.5 11.5q-45.5 25.5 -71.5 70.5
t-26 101q0 58 26 104.5t71.5 72.5t102.5 26t102.5 -26t71.5 -71.5t26 -103.5q0 -57 -26 -102.5t-71.5 -71t-102.5 -25.5t-102.5 25.5zM820 104q32 32 32 81q0 50 -32 82.5t-81 32.5q-51 0 -83.5 -32.5t-32.5 -82.5q0 -49 33 -81t83 -32q49 0 81 32zM1311 104q32 32 32 81
q0 50 -32 82.5t-81 32.5q-51 0 -83.5 -32.5t-32.5 -82.5q0 -49 33 -81t83 -32q49 0 81 32z" />
    <glyph glyph-name="currency" unicode="&#xa4;" horiz-adv-x="692" 
d="M28 -23l110 111q-51 68 -51 162t51 162l-109 110l27 28l109 -108q35 33 81.5 50.5t99.5 17.5q54 0 100.5 -17.5t81.5 -50.5l109 108l28 -28l-110 -111q51 -66 51 -161t-51 -161l110 -111l-28 -28l-109 108q-35 -33 -81.5 -50.5t-99.5 -17.5q-54 0 -100.5 17.5t-81.5 50.5
l-109 -108zM428.5 111.5q36.5 20.5 57 56.5t20.5 82q0 45 -20.5 81.5t-57 57t-81.5 20.5q-70 0 -114.5 -45t-44.5 -114q0 -70 45 -114.5t114 -44.5q45 0 81.5 20.5z" />
    <glyph glyph-name="dollar" unicode="$" horiz-adv-x="588" 
d="M538 86q-31 -50 -89 -79t-137 -29v-108h-40v110q-110 10 -178.5 76t-73.5 169l115 21q2 -64 39.5 -108.5t97.5 -56.5v229l-41 12q-94 25 -137 72t-43 123q0 59 27 106.5t77 75.5t117 31v90h40v-91q94 -7 153 -62.5t66 -143.5l-112 -25q-2 53 -31.5 88t-75.5 43v-213
l67 -19q98 -26 144 -74t46 -124q0 -63 -31 -113zM193 467q24 -24 79 -40v203q-47 -4 -75 -32t-28 -69q0 -38 24 -62zM413 108.5q38 31.5 38 78.5q0 38 -27.5 63t-88.5 42l-23 7v-222h1q62 0 100 31.5z" />
    <glyph glyph-name="cent" unicode="&#xa2;" horiz-adv-x="531" 
d="M437 41.5q-62 -55.5 -152 -58.5v-113h-40v114q-99 11 -158 82.5t-59 184.5q0 79 26.5 139.5t76 95.5t114.5 39v115h40v-116q73 -7 125 -53.5t68 -119.5l-100 -25q-10 42 -35 69.5t-58 35.5v-356q50 3 85 38t43 93l99 -20q-13 -89 -75 -144.5zM164 136q30 -47 81 -58v354
q-51 -8 -81 -55t-30 -123q0 -71 30 -118z" />
    <glyph glyph-name="Euro" unicode="&#x20ac;" horiz-adv-x="808" 
d="M789 266q-12 -88 -56 -153t-113 -100t-155 -35q-142 0 -232 81t-108 223h-97v40h93q-1 10 -1 32q0 24 1 35h-93v40h97q18 141 102.5 221t217.5 80q113 0 189.5 -67t98.5 -186l-113 -25q-14 83 -61 128.5t-115 45.5q-79 0 -131 -52t-67 -145h297v-40h-302q-1 -11 -1 -35
q0 -22 1 -32h302v-40h-297q17 -94 74 -146.5t145 -52.5q84 0 140.5 55.5t70.5 151.5z" />
    <glyph glyph-name="sterling" unicode="&#xa3;" horiz-adv-x="539" 
d="M28 104q107 38 107 230h-97v40h97l1 156q-1 90 47.5 144.5t133.5 54.5q87 0 138.5 -56.5t56.5 -152.5l-102 -18q-2 62 -25 98.5t-63 36.5q-35 0 -54.5 -29t-19.5 -79v-155h223v-40h-223q-4 -97 -34 -157t-81 -82v-1h376v-94h-481v104z" />
    <glyph glyph-name="yen" unicode="&#xa5;" horiz-adv-x="605" 
d="M244 141h-202v40h202v48h-202v40h187l-220 439h129l166 -356l162 356h131l-219 -439h186v-40h-199v-48h199v-40h-199v-141h-121v141z" />
    <glyph glyph-name="lira" unicode="&#x20a4;" horiz-adv-x="539" 
d="M28 100q49 15 78.5 64t29.5 120h-102v40h102v48h-102v40h102l-1 118q0 90 48.5 144.5t131.5 54.5q87 0 139 -57t57 -152l-102 -17q-3 62 -25.5 97.5t-61.5 35.5q-35 0 -55 -29.5t-19 -79.5v-115h223v-40h-223v-48h223v-40h-225q0 -65 -31 -118t-83 -76v-1h378v-89h-482
v100z" />
    <glyph glyph-name="copyright" unicode="&#xa9;" horiz-adv-x="786" 
d="M206 23.5q-82 48.5 -127.5 136t-45.5 199.5t46 200t128 137t186 49q105 0 187 -49t127.5 -136.5t45.5 -200.5q0 -112 -45.5 -199.5t-127.5 -136t-187 -48.5t-187 48.5zM559.5 58.5q72.5 43.5 113 121.5t40.5 178q0 101 -40.5 180t-113 123t-164.5 44q-94 0 -167 -44
t-114 -123t-41 -180q0 -100 41 -178t114.5 -121.5t166.5 -43.5q92 0 164.5 43.5zM272 119.5q-56 33.5 -86.5 95t-30.5 142.5t29 142.5t82 95t122 33.5q82 0 140.5 -47t75.5 -127l-102 -25q-12 50 -42.5 78.5t-71.5 28.5q-56 0 -90.5 -49t-33.5 -130q0 -82 38.5 -130.5
t100.5 -48.5q52 0 88.5 35.5t45.5 95.5l102 -20q-13 -92 -78 -147.5t-159 -55.5q-74 0 -130 33.5z" />
    <glyph glyph-name="registered" unicode="&#xae;" horiz-adv-x="786" 
d="M207 23.5q-82 48.5 -128 136t-46 199.5t46 200t128 137t186 49q105 0 187 -49t127.5 -136.5t45.5 -200.5q0 -112 -45.5 -199.5t-127.5 -136t-187 -48.5q-104 0 -186 48.5zM559.5 58.5q72.5 43.5 113 121.5t40.5 178q0 101 -40.5 180t-113 123t-164.5 44q-94 0 -167 -44
t-114 -123t-41 -180q0 -100 41 -178t114.5 -121.5t166.5 -43.5q92 0 164.5 43.5zM230 626h176q83 0 129.5 -42.5t46.5 -113.5q0 -51 -25 -87.5t-73 -53.5l96 -215h-106l-81 202h-66v-202h-97v512zM403 394q39 0 63 20.5t24 54.5q0 35 -24 56t-63 21h-76v-152h76z" />
    <glyph glyph-name="at" unicode="@" horiz-adv-x="830" 
d="M216 -123.5q-87 50.5 -135 142t-48 211.5q0 125 48 219t135 145.5t200 51.5t199.5 -48.5t134 -139.5t47.5 -214q0 -126 -45 -193.5t-117 -67.5q-43 0 -72 19.5t-39 59.5l-2 8h-1q-25 -41 -67 -63.5t-97 -22.5q-76 0 -124.5 41.5t-48.5 108.5t52 111t150 55l94 12
q20 2 32 14.5t12 32.5q0 33 -31 55t-75 22q-53 0 -87.5 -32t-36.5 -76l-97 32q2 45 31 83t79 60t113 22t110 -23t73 -64.5t26 -95.5v-246q0 -55 43 -55q19 0 38.5 23.5t33 69t13.5 109.5q0 111 -42.5 193t-119.5 126t-178 44q-103 0 -181 -46.5t-120.5 -131.5t-42.5 -199
q0 -108 43 -190.5t121 -127.5t180 -45q97 0 178 49l22 -34q-90 -55 -201 -55q-113 0 -200 50.5zM484 112.5q37 37.5 37 95.5v30l-111 -13q-59 -7 -88 -28.5t-29 -53.5q0 -31 27 -49.5t70 -18.5q57 0 94 37.5z" />
    <glyph glyph-name="at.case" horiz-adv-x="830" 
d="M216 -4.5q-87 50.5 -135 142t-48 211.5q0 125 48 219t135 145.5t200 51.5t199.5 -48.5t134 -139.5t47.5 -214q0 -126 -45 -193.5t-117 -67.5q-43 0 -72 19.5t-39 59.5l-2 8h-1q-25 -41 -67 -63.5t-97 -22.5q-76 0 -124.5 41.5t-48.5 108.5t52 111t150 55l94 12
q20 2 32 14.5t12 32.5q0 33 -31 55t-75 22q-53 0 -87.5 -32t-36.5 -76l-97 32q2 45 31 83t79 60t113 22t110 -23t73 -64.5t26 -95.5v-246q0 -55 43 -55q19 0 38.5 23.5t33 69t13.5 109.5q0 111 -42.5 193t-119.5 126t-178 44q-103 0 -181 -46.5t-120.5 -131.5t-42.5 -199
q0 -108 43 -190.5t121 -127.5t180 -45q97 0 178 49l22 -34q-90 -55 -201 -55q-113 0 -200 50.5zM484 231.5q37 37.5 37 95.5v30l-111 -13q-59 -7 -88 -28.5t-29 -53.5q0 -31 27 -49.5t70 -18.5q57 0 94 37.5z" />
    <glyph glyph-name="trademark" unicode="&#x2122;" horiz-adv-x="963" 
d="M131 629h-120v79h333v-79h-120v-349h-93v349zM388 708h122l136 -320l137 320h123v-428h-88v309l-131 -309h-80l-131 309v-309h-88v428z" />
    <glyph glyph-name="section" unicode="&#xa7;" horiz-adv-x="519" 
d="M152.5 5q-52.5 22 -84 62.5t-35.5 93.5l101 21q3 -53 40.5 -82.5t98.5 -29.5q47 0 77.5 17t30.5 49q0 26 -26 43.5t-85 31.5l-83 19q-66 16 -101.5 47t-35.5 88q0 33 15.5 61.5t41.5 49.5q-35 33 -35 92q0 46 23.5 82t65 56.5t94.5 20.5q77 0 130.5 -42t60.5 -110
l-99 -21q-2 40 -28 63.5t-64 23.5q-36 0 -58.5 -19t-22.5 -47q0 -24 17 -39t56 -26l95 -23q137 -34 138 -136q0 -62 -46 -106q52 -40 52 -101q0 -49 -28.5 -85.5t-78 -56t-109.5 -19.5q-65 0 -117.5 22zM369 308q10 15 10 32q-1 22 -20.5 37.5t-52.5 24.5l-113 30
q-20 -10 -32 -26t-12 -34q-1 -40 60 -55l133 -34q17 10 27 25z" />
    <glyph glyph-name="paragraph" unicode="&#xb6;" horiz-adv-x="641" 
d="M252 316q-67 0 -117.5 24.5t-78.5 68.5t-28 101q0 58 28 103t78.5 70t117.5 25h362v-81h-78v-845h-97v845h-91v-845h-96v534z" />
    <glyph glyph-name="asciicircum" unicode="^" horiz-adv-x="459" 
d="M28 434l138 274h127l138 -273l-88 -35l-113 231l-113 -231z" />
    <glyph glyph-name="asciitilde" unicode="~" horiz-adv-x="593" 
d="M565 311q-27 -47 -68.5 -77t-81.5 -30q-29 0 -58.5 14.5t-67.5 41.5q-43 29 -67 42.5t-47 13.5q-50 0 -98 -63l-49 52q26 46 69 75.5t83 29.5q31 0 61 -16t76 -48q37 -25 58.5 -36.5t41.5 -11.5q27 0 51.5 17t44.5 46z" />
    <glyph glyph-name="grave" unicode="`" horiz-adv-x="168" 
d="M21 749l34 21l93 -149l-34 -21z" />
    <glyph glyph-name="acute" unicode="&#xb4;" horiz-adv-x="170" 
d="M21 621l93 149l34 -21l-94 -149z" />
    <glyph glyph-name="dieresis" unicode="&#xa8;" horiz-adv-x="405" 
d="M40 619q-19 19 -19 48t19 47.5t49 18.5t49.5 -18.5t19.5 -47.5t-19.5 -48t-49.5 -19t-49 19zM266 619q-19 19 -19 48t19 47.5t49 18.5t49.5 -18.5t19.5 -47.5t-19.5 -48t-49.5 -19t-49 19z" />
    <glyph glyph-name="macron" unicode="&#xaf;" horiz-adv-x="347" 
d="M33 639h281v-40h-281v40z" />
    <glyph glyph-name="cedilla" unicode="&#xb8;" horiz-adv-x="226" 
d="M60 -190q-26 15 -39 38l31 25q8 -17 26 -27.5t37 -10.5q23 0 37 10t14 27q0 19 -18 31t-47 12h-35l10 87h40l-6 -50q44 -3 70 -23t26 -55q0 -36 -25 -57.5t-66 -21.5q-29 0 -55 15z" />
    <glyph glyph-name="circumflex" unicode="&#x2c6;" horiz-adv-x="349" 
d="M21 617l126 133h54l127 -133l-29 -27l-125 130l-124 -130z" />
    <glyph glyph-name="caron" unicode="&#x2c7;" horiz-adv-x="349" 
d="M21 733l29 27l124 -129l125 129l29 -27l-127 -133h-54z" />
    <glyph glyph-name="breve" unicode="&#x2d8;" horiz-adv-x="331" 
d="M61.5 635q-40.5 45 -40.5 115h40q0 -52 29.5 -86t74.5 -34q46 0 76 33.5t30 86.5h40q0 -70 -41 -115t-104 -45q-64 0 -104.5 45z" />
    <glyph glyph-name="dotaccent" unicode="&#x2d9;" horiz-adv-x="182" 
d="M40.5 617.5q-19.5 19.5 -19.5 50.5q0 29 19.5 48.5t50.5 19.5t50.5 -19.5t19.5 -48.5q0 -31 -19.5 -50.5t-50.5 -19.5t-50.5 19.5z" />
    <glyph glyph-name="uniF6C3" unicode="&#xf6c3;" horiz-adv-x="0" 
d="M-137 -214q12 -3 23 -3q24 0 38.5 11.5t13.5 33.5q-13 -5 -25 -5q-25 0 -43 16.5t-18 40.5q0 22 15.5 36.5t40.5 14.5q31 0 51 -25.5t20 -67.5q0 -45 -24.5 -68.5t-66.5 -23.5q-16 0 -32 3z" />
    <glyph glyph-name="ring" unicode="&#x2da;" horiz-adv-x="231" 
d="M47.5 617.5q-26.5 27.5 -26.5 69.5q0 40 27 66.5t68 26.5t67.5 -27t27.5 -68q0 -41 -26.5 -68t-68.5 -27t-68.5 27.5zM155 645.5q15 15.5 15 39.5t-15 39.5t-40 15.5q-23 0 -39 -15.5t-16 -39.5t16 -39.5t39 -15.5q25 0 40 15.5z" />
    <glyph glyph-name="ogonek" unicode="&#x2db;" horiz-adv-x="237" 
d="M34 -182q-24 23 -24 60q0 53 47.5 88t142.5 65l16 -31q-88 -31 -126.5 -55.5t-38.5 -63.5q0 -21 13.5 -33.5t35.5 -12.5q16 0 34.5 10t34.5 26l28 -26q-19 -23 -46.5 -36.5t-52.5 -13.5q-40 0 -64 23z" />
    <glyph glyph-name="tilde" unicode="&#x2dc;" horiz-adv-x="352" 
d="M200.5 604.5q-18.5 14.5 -37.5 39.5q-19 26 -30 37.5t-26 11.5q-20 0 -33 -26t-13 -67h-40q0 58 24 95.5t63 37.5q25 0 43 -14.5t37 -40.5q18 -25 29 -36.5t25 -11.5q21 0 35 26.5t14 67.5h40q0 -59 -24 -96.5t-63 -37.5q-25 0 -43.5 14.5z" />
    <glyph glyph-name="hungarumlaut" unicode="&#x2dd;" horiz-adv-x="308" 
d="M21 621l93 149l34 -21l-94 -149zM161 621l93 149l34 -21l-94 -149z" />
    <glyph glyph-name="acute.case" horiz-adv-x="154" 
d="M21 800l78 129l33 -21l-78 -129z" />
    <glyph glyph-name="breve.case" horiz-adv-x="292" 
d="M56.5 826.5q-35.5 36.5 -35.5 93.5h40q0 -39 24 -64.5t61 -25.5t61 25.5t24 64.5h40q0 -56 -35 -93t-90 -37q-54 0 -89.5 36.5z" />
    <glyph glyph-name="caron.case" horiz-adv-x="312" 
d="M21 903l29 27l106 -110l106 110l29 -27l-108 -113h-54z" />
    <glyph glyph-name="caron.alt1" horiz-adv-x="169" 
d="M32 584q12 -3 23 -3q24 0 38.5 11.5t13.5 33.5q-13 -5 -25 -5q-25 0 -43 16.5t-18 40.5q0 22 15.5 36.5t40.5 14.5q31 0 51 -25.5t20 -67.5q0 -45 -24.5 -68.5t-66.5 -23.5q-16 0 -32 3z" />
    <glyph glyph-name="circumflex.case" horiz-adv-x="312" 
d="M21 807l108 113h54l108 -113l-29 -27l-106 109l-106 -109z" />
    <glyph glyph-name="dieresis.case" horiz-adv-x="415" 
d="M40 814.5q-19 18.5 -19 49.5q0 29 19 48t50 19q30 0 49.5 -19t19.5 -48q0 -30 -19.5 -49t-49.5 -19q-31 0 -50 18.5zM276.5 814.5q-18.5 18.5 -18.5 49.5q0 30 19 48.5t49 18.5t49 -19t19 -48q0 -31 -19 -49.5t-49 -18.5q-31 0 -49.5 18.5z" />
    <glyph glyph-name="dotaccent.case" horiz-adv-x="182" 
d="M40.5 815q-19.5 19 -19.5 50q0 30 19.5 49t50.5 19t51 -19t20 -49q0 -31 -19.5 -50t-51.5 -19q-31 0 -50.5 19z" />
    <glyph glyph-name="grave.case" horiz-adv-x="153" 
d="M21 908l33 21l78 -129l-33 -21z" />
    <glyph glyph-name="hungarumlaut.case" horiz-adv-x="292" 
d="M21 800l78 129l33 -21l-78 -129zM160 800l78 129l34 -21l-79 -129z" />
    <glyph glyph-name="ring.case" horiz-adv-x="232" 
d="M47.5 807.5q-26.5 27.5 -26.5 69.5q0 40 27 66.5t68 26.5t67.5 -27t27.5 -68q0 -41 -26.5 -68t-68.5 -27t-68.5 27.5zM155 835.5q15 15.5 15 39.5t-15 39.5t-40 15.5q-23 0 -39 -15.5t-16 -39.5t16 -39.5t39 -15.5q25 0 40 15.5z" />
    <glyph glyph-name="tilde.case" horiz-adv-x="352" 
d="M208.5 789.5q-15.5 9.5 -29.5 25.5t-25 31q-14 18 -24.5 27.5t-22.5 9.5q-20 0 -33 -26t-13 -67h-40q0 58 24 95.5t63 37.5q27 0 44.5 -15.5t38.5 -44.5q17 -23 27.5 -33t23.5 -10q21 0 35 26.5t14 67.5h40q0 -59 -24 -96.5t-63 -37.5q-20 0 -35.5 9.5z" />
    <glyph glyph-name="arrowup" unicode="&#x2191;" horiz-adv-x="524" 
d="M262 527l229 -220l-27 -29l-182 174v-452h-40v452l-181 -174l-28 29z" />
    <glyph glyph-name="uni2197" unicode="&#x2197;" horiz-adv-x="483" 
d="M420 447l6 -317l-39 -2l-6 252l-320 -319l-28 28l320 320l-251 4v41z" />
    <glyph glyph-name="arrowright" unicode="&#x2192;" horiz-adv-x="593" 
d="M311 60l174 181h-452v40h452l-174 182l29 27l220 -229l-220 -229z" />
    <glyph glyph-name="uni2198" unicode="&#x2198;" horiz-adv-x="483" 
d="M420 79l-318 -7l-1 40l251 6l-319 319l28 29l320 -320l5 251l40 -1z" />
    <glyph glyph-name="arrowdown" unicode="&#x2193;" horiz-adv-x="524" 
d="M61 230l181 -174v452h40v-452l182 174l27 -29l-229 -220l-229 220z" />
    <glyph glyph-name="uni2199" unicode="&#x2199;" horiz-adv-x="483" 
d="M97 397l5 -251l320 320l28 -29l-319 -319l251 -6l-1 -40l-317 7l-7 317z" />
    <glyph glyph-name="arrowleft" unicode="&#x2190;" horiz-adv-x="593" 
d="M33 261l220 229l29 -27l-174 -182h452v-40h-452l174 -181l-29 -28z" />
    <glyph glyph-name="uni2196" unicode="&#x2196;" horiz-adv-x="483" 
d="M382 413l-251 -4l319 -320l-28 -28l-320 319l-5 -252l-40 2l6 317l318 7z" />
    <glyph glyph-name="arrowboth" unicode="&#x2194;" horiz-adv-x="921" 
d="M888 261l-220 -229l-29 27l174 182h-705l174 -181l-29 -28l-220 229l220 229l29 -27l-174 -182h705l-174 181l29 28z" />
    <glyph glyph-name="arrowupdn" unicode="&#x2195;" horiz-adv-x="524" 
d="M464 100l27 -29l-229 -220l-229 220l28 29l181 -174v656l-182 -174l-27 29l229 220l229 -220l-28 -29l-181 174v-656z" />
    <glyph glyph-name="arrowup.case" horiz-adv-x="524" 
d="M262 618l229 -220l-27 -29l-182 174v-452h-40v452l-181 -174l-28 29z" />
    <glyph glyph-name="uni2197.case" horiz-adv-x="483" 
d="M420 539l6 -318l-39 -1l-6 252l-320 -320l-28 28l320 320l-251 5v40z" />
    <glyph glyph-name="arrowright.case" horiz-adv-x="593" 
d="M311 160l174 181h-452v40h452l-174 182l29 27l220 -229l-220 -229z" />
    <glyph glyph-name="uni2198.case" horiz-adv-x="483" 
d="M420 170l-318 -6l-1 39l251 6l-319 320l28 28l320 -320l5 251h40z" />
    <glyph glyph-name="arrowdown.case" horiz-adv-x="524" 
d="M61 322l181 -174v452h40v-452l182 174l27 -29l-229 -220l-229 220z" />
    <glyph glyph-name="uni2199.case" horiz-adv-x="483" 
d="M97 497l5 -251l320 320l28 -29l-319 -319l251 -6l-1 -40l-317 7l-7 317z" />
    <glyph glyph-name="arrowleft.case" horiz-adv-x="593" 
d="M33 361l220 229l29 -27l-174 -182h452v-40h-452l174 -181l-29 -28z" />
    <glyph glyph-name="uni2196.case" horiz-adv-x="483" 
d="M382 513l-251 -4l319 -320l-28 -28l-320 319l-5 -252l-40 2l6 317l318 7z" />
    <glyph glyph-name="arrowboth.case" horiz-adv-x="921" 
d="M888 361l-220 -229l-29 27l174 182h-705l174 -181l-29 -28l-220 229l220 229l29 -27l-174 -182h705l-174 181l29 28z" />
    <glyph glyph-name="arrowupdn.case" horiz-adv-x="524" 
d="M464 200l27 -29l-229 -220l-229 220l28 29l181 -174v656l-182 -174l-27 29l229 220l229 -220l-28 -29l-181 174v-656z" />
    </font>
</defs>
</svg>
